M48
;Layer_Color=9474304
;FILE_FORMAT=2:5
INCH,TZ
;TYPE=PLATED
T1F00S00C0.00787
T2F00S00C0.01968
T3F00S00C0.03937
T4F00S00C0.04000
T5F00S00C0.12598
%
T01
X58063Y82390
X30315Y155709
Y157677
X24803Y164370
Y166339
Y173819
Y175787
Y183268
Y185236
Y193504
Y195473
T02
X39764Y200787
X39370Y215748
Y225197
T03
X153473Y59331
Y70236
Y81142
Y92047
Y102953
Y113858
Y124764
Y135669
Y146575
Y157480
Y168386
Y179291
Y190197
Y201102
Y212008
X164653Y206555
Y195649
Y184744
Y173838
Y162933
Y152027
Y141122
Y130216
Y119311
Y108405
Y97500
Y86594
Y75689
Y64783
Y217460
Y228366
Y239272
Y250177
X153473Y255630
Y244724
Y233819
Y222913
T04
X94488Y21980
X104488
X114488
Y31980
X104488
X94488
Y41980
X104488
X114488
Y51980
X104488
X94488
Y61980
X104488
X114488
Y71980
X104488
X94488
Y81980
X104488
X114488
Y91980
X104488
X94488
Y101980
X104488
X114488
Y111980
X104488
X94488
Y132480
X104488
X114488
Y142480
X104488
X94488
Y152480
X104488
X114488
Y162480
X104488
X94488
Y172480
X104488
X114488
Y182480
X104488
X94488
Y192480
X104488
X114488
Y202480
X104488
X94488
Y212480
X104488
X114488
Y222480
X104488
X94488
Y242480
Y252480
Y262480
Y272480
Y282480
Y292480
X104488
Y282480
Y272480
Y262480
Y252480
Y242480
T05
X159063Y32480
Y282480
M30
