G04*
G04 #@! TF.GenerationSoftware,Altium Limited,Altium Designer,18.1.11 (251)*
G04*
G04 Layer_Color=16711935*
%FSLAX25Y25*%
%MOIN*%
G70*
G01*
G75*
%ADD18R,0.11417X0.02559*%
%ADD21C,0.06600*%
%ADD22R,0.06600X0.06600*%
%ADD23R,0.06706X0.06706*%
%ADD24C,0.06706*%
%ADD25C,0.15367*%
%ADD26C,0.02375*%
%ADD27C,0.04737*%
D18*
X9449Y168504D02*
D03*
Y225197D02*
D03*
Y222047D02*
D03*
Y218898D02*
D03*
Y215748D02*
D03*
Y212598D02*
D03*
Y209449D02*
D03*
Y206299D02*
D03*
Y203150D02*
D03*
Y200000D02*
D03*
Y196851D02*
D03*
Y193701D02*
D03*
Y190551D02*
D03*
Y187401D02*
D03*
Y184252D02*
D03*
Y181102D02*
D03*
Y177953D02*
D03*
Y174803D02*
D03*
Y171653D02*
D03*
Y165354D02*
D03*
Y162205D02*
D03*
Y159055D02*
D03*
Y143307D02*
D03*
Y140157D02*
D03*
Y137008D02*
D03*
Y133858D02*
D03*
Y130709D02*
D03*
Y127559D02*
D03*
Y124409D02*
D03*
Y121260D02*
D03*
Y118110D02*
D03*
Y114961D02*
D03*
Y111811D02*
D03*
Y108661D02*
D03*
Y105512D02*
D03*
Y102362D02*
D03*
Y99213D02*
D03*
Y96063D02*
D03*
Y92914D02*
D03*
Y89764D02*
D03*
D21*
X114488Y21980D02*
D03*
X104488D02*
D03*
X94488D02*
D03*
X114488Y31980D02*
D03*
X104488D02*
D03*
X94488D02*
D03*
X114488Y41980D02*
D03*
X104488D02*
D03*
X94488D02*
D03*
X114488Y51980D02*
D03*
X104488D02*
D03*
X94488D02*
D03*
X114488Y61980D02*
D03*
X104488D02*
D03*
X94488D02*
D03*
X114488Y71980D02*
D03*
X104488D02*
D03*
X94488D02*
D03*
X114488Y81980D02*
D03*
X104488D02*
D03*
X94488D02*
D03*
X114488Y91980D02*
D03*
X104488D02*
D03*
X94488D02*
D03*
X114488Y101980D02*
D03*
X104488D02*
D03*
X94488D02*
D03*
X114488Y111980D02*
D03*
X104488D02*
D03*
X114488Y132480D02*
D03*
X104488D02*
D03*
X94488D02*
D03*
X114488Y142480D02*
D03*
X104488D02*
D03*
X94488D02*
D03*
X114488Y152480D02*
D03*
X104488D02*
D03*
X94488D02*
D03*
X114488Y162480D02*
D03*
X104488D02*
D03*
X94488D02*
D03*
X114488Y172480D02*
D03*
X104488D02*
D03*
X94488D02*
D03*
X114488Y182480D02*
D03*
X104488D02*
D03*
X94488D02*
D03*
X114488Y192480D02*
D03*
X104488D02*
D03*
X94488D02*
D03*
X114488Y202480D02*
D03*
X104488D02*
D03*
X94488D02*
D03*
X114488Y212480D02*
D03*
X104488D02*
D03*
X94488D02*
D03*
X114488Y222480D02*
D03*
X104488D02*
D03*
Y292480D02*
D03*
X94488Y282480D02*
D03*
X104488D02*
D03*
X94488Y272480D02*
D03*
X104488D02*
D03*
X94488Y262480D02*
D03*
X104488D02*
D03*
X94488Y252480D02*
D03*
X104488D02*
D03*
X94488Y242480D02*
D03*
X104488D02*
D03*
D22*
X94488Y111980D02*
D03*
Y222480D02*
D03*
Y292480D02*
D03*
D23*
X153473Y255630D02*
D03*
D24*
Y244724D02*
D03*
Y233819D02*
D03*
Y222913D02*
D03*
Y212008D02*
D03*
Y201102D02*
D03*
Y190197D02*
D03*
Y179291D02*
D03*
Y168386D02*
D03*
Y157480D02*
D03*
Y146575D02*
D03*
Y135669D02*
D03*
Y124764D02*
D03*
Y113858D02*
D03*
Y102953D02*
D03*
Y92047D02*
D03*
Y81142D02*
D03*
Y70236D02*
D03*
Y59331D02*
D03*
X164653Y250177D02*
D03*
Y239272D02*
D03*
Y228366D02*
D03*
Y217460D02*
D03*
Y206555D02*
D03*
Y195649D02*
D03*
Y184744D02*
D03*
Y173838D02*
D03*
Y162933D02*
D03*
Y152027D02*
D03*
Y141122D02*
D03*
Y130216D02*
D03*
Y119311D02*
D03*
Y108405D02*
D03*
Y97500D02*
D03*
Y86594D02*
D03*
Y75689D02*
D03*
Y64783D02*
D03*
D25*
X159063Y32480D02*
D03*
Y282480D02*
D03*
D26*
X58063Y82390D02*
D03*
X24803Y193504D02*
D03*
Y195473D02*
D03*
Y183268D02*
D03*
Y185236D02*
D03*
Y173819D02*
D03*
Y175787D02*
D03*
Y164370D02*
D03*
Y166339D02*
D03*
X30315Y155709D02*
D03*
Y157677D02*
D03*
D27*
X39370Y225197D02*
D03*
Y215748D02*
D03*
X39764Y200787D02*
D03*
M02*
