G04*
G04 #@! TF.GenerationSoftware,Altium Limited,Altium Designer,18.1.11 (251)*
G04*
G04 Layer_Color=16711935*
%FSLAX25Y25*%
%MOIN*%
G70*
G01*
G75*
%ADD13C,0.00787*%
D13*
X34567Y75886D02*
G03*
X30630Y71949I0J-3937D01*
G01*
X29055Y68012D02*
G03*
X30630Y69587I0J1575D01*
G01*
X23623Y81791D02*
G03*
X19686Y85728I-3937J0D01*
G01*
X20472Y146457D02*
G03*
X20472Y155905I0J4724D01*
G01*
X19686Y229232D02*
G03*
X23623Y233169I0J3937D01*
G01*
X30630Y245374D02*
G03*
X29055Y246949I-1575J0D01*
G01*
X30630Y243012D02*
G03*
X34567Y239075I3937J0D01*
G01*
X34567Y75886D02*
X58425D01*
X30630Y69587D02*
Y71949D01*
X23623Y68012D02*
X29055D01*
X23623D02*
Y81791D01*
X3069Y85728D02*
X19686D01*
X-0D02*
X3069D01*
X-0D02*
Y146457D01*
X3069D01*
X20472D01*
X3069Y155905D02*
X20472D01*
X-0D02*
X3069D01*
X-0D02*
Y229232D01*
X3069D01*
X19686D01*
X23623Y233169D02*
Y246949D01*
X29055D01*
X30630Y243012D02*
Y245374D01*
X34567Y239075D02*
X58425D01*
Y0D02*
X196850Y-0D01*
Y314961D01*
X58425Y314961D02*
X196850Y314961D01*
X58425Y0D02*
Y75886D01*
Y239075D02*
Y314961D01*
M02*
