G04 Layer_Physical_Order=2*
G04 Layer_Color=16711680*
%FSLAX25Y25*%
%MOIN*%
G70*
G01*
G75*
%ADD10R,0.11024X0.02165*%
%ADD13C,0.01969*%
%ADD15C,0.00394*%
%ADD16C,0.00787*%
%ADD17C,0.06000*%
%ADD18R,0.06000X0.06000*%
%ADD19R,0.05906X0.05906*%
%ADD20C,0.05906*%
%ADD21C,0.14567*%
%ADD22C,0.03937*%
%ADD23C,0.01575*%
G36*
X196850Y314961D02*
Y-0D01*
X58425Y0D01*
Y75886D01*
X34567D01*
X34567Y75886D01*
X34181Y75867D01*
X33424Y75716D01*
X32711Y75421D01*
X32069Y74992D01*
X31524Y74446D01*
X31095Y73805D01*
X30799Y73092D01*
X30671Y72446D01*
X30649Y72335D01*
X30630Y71949D01*
X30630D01*
X30630Y71949D01*
Y69587D01*
X30630Y69587D01*
Y69273D01*
X30390Y68695D01*
X29947Y68252D01*
X29521Y68075D01*
X29055Y68012D01*
X29055Y68012D01*
X23623D01*
Y81791D01*
X23623Y81791D01*
X23604Y82177D01*
X23453Y82934D01*
X23158Y83647D01*
X22729Y84289D01*
X22183Y84835D01*
X21542Y85264D01*
X20829Y85559D01*
X20072Y85709D01*
X19686Y85728D01*
X19686Y85728D01*
X-0D01*
Y146457D01*
X20472D01*
X20472Y146457D01*
X21089Y146497D01*
X22280Y146816D01*
X23348Y147433D01*
X24221Y148305D01*
X24837Y149373D01*
X25156Y150564D01*
Y151798D01*
X24837Y152989D01*
X24221Y154057D01*
X23348Y154929D01*
X22280Y155546D01*
X21089Y155865D01*
X20472Y155905D01*
X20472Y155905D01*
X-0D01*
Y229232D01*
X19686D01*
X19686Y229232D01*
X20072Y229251D01*
X20829Y229402D01*
X21542Y229697D01*
X22183Y230126D01*
X22729Y230672D01*
X23158Y231313D01*
X23453Y232026D01*
X23585Y232691D01*
X23604Y232783D01*
X23623Y233169D01*
X23623Y233169D01*
Y246949D01*
X29055D01*
X29055Y246949D01*
X29055Y246949D01*
X29056D01*
X29538Y246879D01*
X29947Y246709D01*
X30390Y246266D01*
X30567Y245839D01*
X30630Y245374D01*
Y245374D01*
X30630Y245374D01*
X30630Y245374D01*
Y243012D01*
X30630Y243012D01*
X30649Y242626D01*
X30799Y241869D01*
X31095Y241156D01*
X31524Y240514D01*
X32069Y239968D01*
X32711Y239540D01*
X33424Y239244D01*
X34181Y239094D01*
X34567Y239075D01*
X34567Y239075D01*
X58425D01*
Y314961D01*
X196850Y314961D01*
D02*
G37*
%LPC*%
G36*
X97882Y295874D02*
X91094D01*
Y289087D01*
X97882D01*
Y295874D01*
D02*
G37*
G36*
X104488Y295903D02*
X103602Y295787D01*
X102777Y295445D01*
X102068Y294901D01*
X101524Y294192D01*
X101182Y293366D01*
X101065Y292480D01*
X101182Y291594D01*
X101524Y290769D01*
X102068Y290060D01*
X102777Y289516D01*
X103602Y289174D01*
X104488Y289057D01*
X105374Y289174D01*
X106200Y289516D01*
X106909Y290060D01*
X107453Y290769D01*
X107794Y291594D01*
X107911Y292480D01*
X107794Y293366D01*
X107453Y294192D01*
X106909Y294901D01*
X106200Y295445D01*
X105374Y295787D01*
X104488Y295903D01*
D02*
G37*
G36*
X104882Y286447D02*
Y282874D01*
X108455D01*
X108370Y283520D01*
X107968Y284490D01*
X107330Y285322D01*
X106498Y285961D01*
X105528Y286362D01*
X104882Y286447D01*
D02*
G37*
G36*
X94882D02*
Y282874D01*
X98455D01*
X98370Y283520D01*
X97968Y284490D01*
X97330Y285322D01*
X96497Y285961D01*
X95528Y286362D01*
X94882Y286447D01*
D02*
G37*
G36*
X104095D02*
X103448Y286362D01*
X102479Y285961D01*
X101647Y285322D01*
X101008Y284490D01*
X100607Y283520D01*
X100521Y282874D01*
X104095D01*
Y286447D01*
D02*
G37*
G36*
X94095D02*
X93448Y286362D01*
X92479Y285961D01*
X91647Y285322D01*
X91008Y284490D01*
X90606Y283520D01*
X90521Y282874D01*
X94095D01*
Y286447D01*
D02*
G37*
G36*
X108455Y282087D02*
X104882D01*
Y278514D01*
X105528Y278599D01*
X106498Y279000D01*
X107330Y279639D01*
X107968Y280471D01*
X108370Y281440D01*
X108455Y282087D01*
D02*
G37*
G36*
X98455D02*
X94882D01*
Y278514D01*
X95528Y278599D01*
X96497Y279000D01*
X97330Y279639D01*
X97968Y280471D01*
X98370Y281440D01*
X98455Y282087D01*
D02*
G37*
G36*
X104095D02*
X100521D01*
X100607Y281440D01*
X101008Y280471D01*
X101647Y279639D01*
X102479Y279000D01*
X103448Y278599D01*
X104095Y278514D01*
Y282087D01*
D02*
G37*
G36*
X94095D02*
X90521D01*
X90606Y281440D01*
X91008Y280471D01*
X91647Y279639D01*
X92479Y279000D01*
X93448Y278599D01*
X94095Y278514D01*
Y282087D01*
D02*
G37*
G36*
X104488Y275903D02*
X103602Y275787D01*
X102777Y275445D01*
X102068Y274901D01*
X101524Y274192D01*
X101182Y273366D01*
X101065Y272480D01*
X101182Y271594D01*
X101524Y270769D01*
X102068Y270060D01*
X102777Y269516D01*
X103602Y269174D01*
X104488Y269057D01*
X105374Y269174D01*
X106200Y269516D01*
X106909Y270060D01*
X107453Y270769D01*
X107794Y271594D01*
X107911Y272480D01*
X107794Y273366D01*
X107453Y274192D01*
X106909Y274901D01*
X106200Y275445D01*
X105374Y275787D01*
X104488Y275903D01*
D02*
G37*
G36*
X94488D02*
X93602Y275787D01*
X92777Y275445D01*
X92068Y274901D01*
X91524Y274192D01*
X91182Y273366D01*
X91065Y272480D01*
X91182Y271594D01*
X91524Y270769D01*
X92068Y270060D01*
X92777Y269516D01*
X93602Y269174D01*
X94488Y269057D01*
X95374Y269174D01*
X96200Y269516D01*
X96909Y270060D01*
X97453Y270769D01*
X97795Y271594D01*
X97911Y272480D01*
X97795Y273366D01*
X97453Y274192D01*
X96909Y274901D01*
X96200Y275445D01*
X95374Y275787D01*
X94488Y275903D01*
D02*
G37*
G36*
X104882Y266447D02*
Y262874D01*
X108455D01*
X108370Y263520D01*
X107968Y264490D01*
X107330Y265322D01*
X106498Y265961D01*
X105528Y266362D01*
X104882Y266447D01*
D02*
G37*
G36*
X94882D02*
Y262874D01*
X98455D01*
X98370Y263520D01*
X97968Y264490D01*
X97330Y265322D01*
X96497Y265961D01*
X95528Y266362D01*
X94882Y266447D01*
D02*
G37*
G36*
X104095D02*
X103448Y266362D01*
X102479Y265961D01*
X101647Y265322D01*
X101008Y264490D01*
X100607Y263520D01*
X100521Y262874D01*
X104095D01*
Y266447D01*
D02*
G37*
G36*
X94095D02*
X93448Y266362D01*
X92479Y265961D01*
X91647Y265322D01*
X91008Y264490D01*
X90606Y263520D01*
X90521Y262874D01*
X94095D01*
Y266447D01*
D02*
G37*
G36*
X108455Y262087D02*
X104882D01*
Y258513D01*
X105528Y258599D01*
X106498Y259000D01*
X107330Y259639D01*
X107968Y260471D01*
X108370Y261440D01*
X108455Y262087D01*
D02*
G37*
G36*
X98455D02*
X94882D01*
Y258513D01*
X95528Y258599D01*
X96497Y259000D01*
X97330Y259639D01*
X97968Y260471D01*
X98370Y261440D01*
X98455Y262087D01*
D02*
G37*
G36*
X104095D02*
X100521D01*
X100607Y261440D01*
X101008Y260471D01*
X101647Y259639D01*
X102479Y259000D01*
X103448Y258599D01*
X104095Y258513D01*
Y262087D01*
D02*
G37*
G36*
X94095D02*
X90521D01*
X90606Y261440D01*
X91008Y260471D01*
X91647Y259639D01*
X92479Y259000D01*
X93448Y258599D01*
X94095Y258513D01*
Y262087D01*
D02*
G37*
G36*
X156819Y258977D02*
X150126D01*
Y252284D01*
X156819D01*
Y258977D01*
D02*
G37*
G36*
X104488Y255903D02*
X103602Y255787D01*
X102777Y255445D01*
X102068Y254901D01*
X101524Y254192D01*
X101182Y253366D01*
X101065Y252480D01*
X101182Y251594D01*
X101524Y250769D01*
X102068Y250060D01*
X102777Y249516D01*
X103602Y249174D01*
X104488Y249057D01*
X105374Y249174D01*
X106200Y249516D01*
X106909Y250060D01*
X107453Y250769D01*
X107794Y251594D01*
X107911Y252480D01*
X107794Y253366D01*
X107453Y254192D01*
X106909Y254901D01*
X106200Y255445D01*
X105374Y255787D01*
X104488Y255903D01*
D02*
G37*
G36*
X94488D02*
X93602Y255787D01*
X92777Y255445D01*
X92068Y254901D01*
X91524Y254192D01*
X91182Y253366D01*
X91065Y252480D01*
X91182Y251594D01*
X91524Y250769D01*
X92068Y250060D01*
X92777Y249516D01*
X93602Y249174D01*
X94488Y249057D01*
X95374Y249174D01*
X96200Y249516D01*
X96909Y250060D01*
X97453Y250769D01*
X97795Y251594D01*
X97911Y252480D01*
X97795Y253366D01*
X97453Y254192D01*
X96909Y254901D01*
X96200Y255445D01*
X95374Y255787D01*
X94488Y255903D01*
D02*
G37*
G36*
X164653Y253553D02*
X163780Y253438D01*
X162966Y253100D01*
X162267Y252564D01*
X161730Y251865D01*
X161393Y251051D01*
X161278Y250177D01*
X161393Y249304D01*
X161730Y248490D01*
X162267Y247791D01*
X162966Y247254D01*
X163780Y246917D01*
X164653Y246802D01*
X165527Y246917D01*
X166341Y247254D01*
X167040Y247791D01*
X167577Y248490D01*
X167914Y249304D01*
X168029Y250177D01*
X167914Y251051D01*
X167577Y251865D01*
X167040Y252564D01*
X166341Y253100D01*
X165527Y253438D01*
X164653Y253553D01*
D02*
G37*
G36*
X153866Y248643D02*
Y245118D01*
X157392D01*
X157308Y245752D01*
X156912Y246710D01*
X156281Y247532D01*
X155458Y248163D01*
X154500Y248560D01*
X153866Y248643D01*
D02*
G37*
G36*
X153079D02*
X152445Y248560D01*
X151487Y248163D01*
X150665Y247532D01*
X150034Y246710D01*
X149637Y245752D01*
X149553Y245118D01*
X153079D01*
Y248643D01*
D02*
G37*
G36*
X104882Y246447D02*
Y242874D01*
X108455D01*
X108370Y243520D01*
X107968Y244490D01*
X107330Y245322D01*
X106498Y245961D01*
X105528Y246362D01*
X104882Y246447D01*
D02*
G37*
G36*
X94882D02*
Y242874D01*
X98455D01*
X98370Y243520D01*
X97968Y244490D01*
X97330Y245322D01*
X96497Y245961D01*
X95528Y246362D01*
X94882Y246447D01*
D02*
G37*
G36*
X104095D02*
X103448Y246362D01*
X102479Y245961D01*
X101647Y245322D01*
X101008Y244490D01*
X100607Y243520D01*
X100521Y242874D01*
X104095D01*
Y246447D01*
D02*
G37*
G36*
X94095D02*
X93448Y246362D01*
X92479Y245961D01*
X91647Y245322D01*
X91008Y244490D01*
X90606Y243520D01*
X90521Y242874D01*
X94095D01*
Y246447D01*
D02*
G37*
G36*
X157392Y244331D02*
X153866D01*
Y240805D01*
X154500Y240889D01*
X155458Y241285D01*
X156281Y241916D01*
X156912Y242739D01*
X157308Y243696D01*
X157392Y244331D01*
D02*
G37*
G36*
X153079D02*
X149553D01*
X149637Y243696D01*
X150034Y242739D01*
X150665Y241916D01*
X151487Y241285D01*
X152445Y240889D01*
X153079Y240805D01*
Y244331D01*
D02*
G37*
G36*
X108455Y242087D02*
X104882D01*
Y238513D01*
X105528Y238599D01*
X106498Y239000D01*
X107330Y239639D01*
X107968Y240471D01*
X108370Y241440D01*
X108455Y242087D01*
D02*
G37*
G36*
X98455D02*
X94882D01*
Y238513D01*
X95528Y238599D01*
X96497Y239000D01*
X97330Y239639D01*
X97968Y240471D01*
X98370Y241440D01*
X98455Y242087D01*
D02*
G37*
G36*
X104095D02*
X100521D01*
X100607Y241440D01*
X101008Y240471D01*
X101647Y239639D01*
X102479Y239000D01*
X103448Y238599D01*
X104095Y238513D01*
Y242087D01*
D02*
G37*
G36*
X94095D02*
X90521D01*
X90606Y241440D01*
X91008Y240471D01*
X91647Y239639D01*
X92479Y239000D01*
X93448Y238599D01*
X94095Y238513D01*
Y242087D01*
D02*
G37*
G36*
X164653Y242648D02*
X163780Y242533D01*
X162966Y242195D01*
X162267Y241659D01*
X161730Y240960D01*
X161393Y240146D01*
X161278Y239272D01*
X161393Y238399D01*
X161730Y237585D01*
X162267Y236886D01*
X162966Y236349D01*
X163780Y236012D01*
X164653Y235897D01*
X165527Y236012D01*
X166341Y236349D01*
X167040Y236886D01*
X167577Y237585D01*
X167914Y238399D01*
X168029Y239272D01*
X167914Y240146D01*
X167577Y240960D01*
X167040Y241659D01*
X166341Y242195D01*
X165527Y242533D01*
X164653Y242648D01*
D02*
G37*
G36*
X153473Y237195D02*
X152599Y237080D01*
X151785Y236742D01*
X151086Y236206D01*
X150549Y235507D01*
X150212Y234693D01*
X150097Y233819D01*
X150212Y232946D01*
X150549Y232132D01*
X151086Y231433D01*
X151785Y230896D01*
X152599Y230559D01*
X153473Y230444D01*
X154346Y230559D01*
X155160Y230896D01*
X155859Y231433D01*
X156396Y232132D01*
X156733Y232946D01*
X156848Y233819D01*
X156733Y234693D01*
X156396Y235507D01*
X155859Y236206D01*
X155160Y236742D01*
X154346Y237080D01*
X153473Y237195D01*
D02*
G37*
G36*
X165047Y232285D02*
Y228760D01*
X168572D01*
X168489Y229394D01*
X168092Y230352D01*
X167461Y231174D01*
X166639Y231805D01*
X165681Y232202D01*
X165047Y232285D01*
D02*
G37*
G36*
X164260D02*
X163626Y232202D01*
X162668Y231805D01*
X161846Y231174D01*
X161214Y230352D01*
X160818Y229394D01*
X160734Y228760D01*
X164260D01*
Y232285D01*
D02*
G37*
G36*
X15945Y227264D02*
X9843D01*
Y225591D01*
X15945D01*
Y227264D01*
D02*
G37*
G36*
X9055D02*
X2953D01*
Y225591D01*
X9055D01*
Y227264D01*
D02*
G37*
G36*
X168572Y227973D02*
X165047D01*
Y224447D01*
X165681Y224531D01*
X166639Y224927D01*
X167461Y225558D01*
X168092Y226381D01*
X168489Y227339D01*
X168572Y227973D01*
D02*
G37*
G36*
X164260D02*
X160734D01*
X160818Y227339D01*
X161214Y226381D01*
X161846Y225558D01*
X162668Y224927D01*
X163626Y224531D01*
X164260Y224447D01*
Y227973D01*
D02*
G37*
G36*
X98472Y226465D02*
X94882D01*
Y222874D01*
X98472D01*
Y226465D01*
D02*
G37*
G36*
X94095D02*
X90504D01*
Y222874D01*
X94095D01*
Y226465D01*
D02*
G37*
G36*
X39370Y227605D02*
X38448Y227422D01*
X38399Y227389D01*
X35827D01*
X35289Y227282D01*
X34833Y226978D01*
X28158Y220303D01*
X15945D01*
Y221654D01*
X9449D01*
X2953D01*
Y219980D01*
X3543D01*
Y217815D01*
X2953D01*
Y216142D01*
X9449D01*
X15945D01*
Y217493D01*
X28740D01*
X29278Y217600D01*
X29734Y217904D01*
X36409Y224579D01*
X37084D01*
X37145Y224275D01*
X37667Y223494D01*
X38448Y222972D01*
X39370Y222788D01*
X40292Y222972D01*
X41073Y223494D01*
X41595Y224275D01*
X41779Y225197D01*
X41595Y226118D01*
X41073Y226900D01*
X40292Y227422D01*
X39370Y227605D01*
D02*
G37*
G36*
X15945Y224803D02*
X9449D01*
X2953D01*
Y223130D01*
Y222441D01*
X9449D01*
X15945D01*
Y223130D01*
Y224803D01*
D02*
G37*
G36*
X153473Y226289D02*
X152599Y226174D01*
X151785Y225836D01*
X151086Y225300D01*
X150549Y224601D01*
X150212Y223787D01*
X150097Y222913D01*
X150212Y222040D01*
X150549Y221226D01*
X151086Y220527D01*
X151785Y219990D01*
X152599Y219653D01*
X153473Y219538D01*
X154346Y219653D01*
X155160Y219990D01*
X155859Y220527D01*
X156396Y221226D01*
X156733Y222040D01*
X156848Y222913D01*
X156733Y223787D01*
X156396Y224601D01*
X155859Y225300D01*
X155160Y225836D01*
X154346Y226174D01*
X153473Y226289D01*
D02*
G37*
G36*
X114488Y225903D02*
X113602Y225787D01*
X112777Y225445D01*
X112068Y224901D01*
X111524Y224192D01*
X111182Y223366D01*
X111065Y222480D01*
X111182Y221594D01*
X111524Y220769D01*
X112068Y220060D01*
X112777Y219516D01*
X113602Y219174D01*
X114488Y219057D01*
X115374Y219174D01*
X116200Y219516D01*
X116909Y220060D01*
X117453Y220769D01*
X117795Y221594D01*
X117911Y222480D01*
X117795Y223366D01*
X117453Y224192D01*
X116909Y224901D01*
X116200Y225445D01*
X115374Y225787D01*
X114488Y225903D01*
D02*
G37*
G36*
X104488D02*
X103602Y225787D01*
X102777Y225445D01*
X102068Y224901D01*
X101524Y224192D01*
X101182Y223366D01*
X101065Y222480D01*
X101182Y221594D01*
X101524Y220769D01*
X102068Y220060D01*
X102777Y219516D01*
X103602Y219174D01*
X104488Y219057D01*
X105374Y219174D01*
X106200Y219516D01*
X106909Y220060D01*
X107453Y220769D01*
X107794Y221594D01*
X107911Y222480D01*
X107794Y223366D01*
X107453Y224192D01*
X106909Y224901D01*
X106200Y225445D01*
X105374Y225787D01*
X104488Y225903D01*
D02*
G37*
G36*
X98472Y222087D02*
X94882D01*
Y218496D01*
X98472D01*
Y222087D01*
D02*
G37*
G36*
X94095D02*
X90504D01*
Y218496D01*
X94095D01*
Y222087D01*
D02*
G37*
G36*
X164653Y220836D02*
X163780Y220721D01*
X162966Y220383D01*
X162267Y219847D01*
X161730Y219148D01*
X161393Y218334D01*
X161278Y217460D01*
X161393Y216587D01*
X161730Y215773D01*
X162267Y215074D01*
X162966Y214537D01*
X163780Y214200D01*
X164653Y214085D01*
X165527Y214200D01*
X166341Y214537D01*
X167040Y215074D01*
X167577Y215773D01*
X167914Y216587D01*
X168029Y217460D01*
X167914Y218334D01*
X167577Y219148D01*
X167040Y219847D01*
X166341Y220383D01*
X165527Y220721D01*
X164653Y220836D01*
D02*
G37*
G36*
X39370Y218157D02*
X38448Y217973D01*
X37667Y217451D01*
X37145Y216670D01*
X36962Y215748D01*
X37031Y215396D01*
X35638Y214003D01*
X33465D01*
X33465Y214003D01*
X15945D01*
Y215354D01*
X9449D01*
X2953D01*
Y213681D01*
X3543D01*
Y211516D01*
X2953D01*
Y209843D01*
X9449D01*
X15945D01*
Y211193D01*
X33464D01*
X33465Y211193D01*
X36220D01*
X36758Y211300D01*
X37214Y211605D01*
X39018Y213409D01*
X39370Y213340D01*
X40292Y213523D01*
X41073Y214045D01*
X41595Y214826D01*
X41779Y215748D01*
X41595Y216670D01*
X41073Y217451D01*
X40292Y217973D01*
X39370Y218157D01*
D02*
G37*
G36*
X94882Y216447D02*
Y212874D01*
X98455D01*
X98370Y213520D01*
X97968Y214490D01*
X97330Y215322D01*
X96497Y215961D01*
X95528Y216362D01*
X94882Y216447D01*
D02*
G37*
G36*
X94095D02*
X93448Y216362D01*
X92479Y215961D01*
X91647Y215322D01*
X91008Y214490D01*
X90606Y213520D01*
X90521Y212874D01*
X94095D01*
Y216447D01*
D02*
G37*
G36*
X153866Y215927D02*
Y212402D01*
X157392D01*
X157308Y213036D01*
X156912Y213994D01*
X156281Y214816D01*
X155458Y215447D01*
X154500Y215844D01*
X153866Y215927D01*
D02*
G37*
G36*
X153079D02*
X152445Y215844D01*
X151487Y215447D01*
X150665Y214816D01*
X150034Y213994D01*
X149637Y213036D01*
X149553Y212402D01*
X153079D01*
Y215927D01*
D02*
G37*
G36*
X114488Y215903D02*
X113602Y215787D01*
X112777Y215445D01*
X112068Y214901D01*
X111524Y214192D01*
X111182Y213366D01*
X111065Y212480D01*
X111182Y211594D01*
X111524Y210769D01*
X112068Y210060D01*
X112777Y209516D01*
X113602Y209174D01*
X114488Y209057D01*
X115374Y209174D01*
X116200Y209516D01*
X116909Y210060D01*
X117453Y210769D01*
X117795Y211594D01*
X117911Y212480D01*
X117795Y213366D01*
X117453Y214192D01*
X116909Y214901D01*
X116200Y215445D01*
X115374Y215787D01*
X114488Y215903D01*
D02*
G37*
G36*
X104488D02*
X103602Y215787D01*
X102777Y215445D01*
X102068Y214901D01*
X101524Y214192D01*
X101182Y213366D01*
X101065Y212480D01*
X101182Y211594D01*
X101524Y210769D01*
X102068Y210060D01*
X102777Y209516D01*
X103602Y209174D01*
X104488Y209057D01*
X105374Y209174D01*
X106200Y209516D01*
X106909Y210060D01*
X107453Y210769D01*
X107794Y211594D01*
X107911Y212480D01*
X107794Y213366D01*
X107453Y214192D01*
X106909Y214901D01*
X106200Y215445D01*
X105374Y215787D01*
X104488Y215903D01*
D02*
G37*
G36*
X98455Y212087D02*
X94882D01*
Y208513D01*
X95528Y208599D01*
X96497Y209000D01*
X97330Y209639D01*
X97968Y210471D01*
X98370Y211440D01*
X98455Y212087D01*
D02*
G37*
G36*
X94095D02*
X90521D01*
X90606Y211440D01*
X91008Y210471D01*
X91647Y209639D01*
X92479Y209000D01*
X93448Y208599D01*
X94095Y208513D01*
Y212087D01*
D02*
G37*
G36*
X157392Y211615D02*
X153866D01*
Y208089D01*
X154500Y208173D01*
X155458Y208569D01*
X156281Y209200D01*
X156912Y210023D01*
X157308Y210981D01*
X157392Y211615D01*
D02*
G37*
G36*
X153079D02*
X149553D01*
X149637Y210981D01*
X150034Y210023D01*
X150665Y209200D01*
X151487Y208569D01*
X152445Y208173D01*
X153079Y208089D01*
Y211615D01*
D02*
G37*
G36*
X164653Y209931D02*
X163780Y209816D01*
X162966Y209478D01*
X162267Y208942D01*
X161730Y208243D01*
X161393Y207429D01*
X161278Y206555D01*
X161393Y205682D01*
X161730Y204868D01*
X162267Y204169D01*
X162966Y203632D01*
X163780Y203295D01*
X164653Y203180D01*
X165527Y203295D01*
X166341Y203632D01*
X167040Y204169D01*
X167577Y204868D01*
X167914Y205682D01*
X168029Y206555D01*
X167914Y207429D01*
X167577Y208243D01*
X167040Y208942D01*
X166341Y209478D01*
X165527Y209816D01*
X164653Y209931D01*
D02*
G37*
G36*
X94882Y206447D02*
Y202874D01*
X98455D01*
X98370Y203520D01*
X97968Y204490D01*
X97330Y205322D01*
X96497Y205961D01*
X95528Y206362D01*
X94882Y206447D01*
D02*
G37*
G36*
X94095D02*
X93448Y206362D01*
X92479Y205961D01*
X91647Y205322D01*
X91008Y204490D01*
X90606Y203520D01*
X90521Y202874D01*
X94095D01*
Y206447D01*
D02*
G37*
G36*
X114488Y205903D02*
X113602Y205787D01*
X112777Y205445D01*
X112068Y204901D01*
X111524Y204192D01*
X111182Y203366D01*
X111065Y202480D01*
X111182Y201594D01*
X111524Y200769D01*
X112068Y200060D01*
X112777Y199516D01*
X113602Y199174D01*
X114488Y199057D01*
X115374Y199174D01*
X116200Y199516D01*
X116909Y200060D01*
X117453Y200769D01*
X117795Y201594D01*
X117911Y202480D01*
X117795Y203366D01*
X117453Y204192D01*
X116909Y204901D01*
X116200Y205445D01*
X115374Y205787D01*
X114488Y205903D01*
D02*
G37*
G36*
X104488D02*
X103602Y205787D01*
X102777Y205445D01*
X102068Y204901D01*
X101524Y204192D01*
X101182Y203366D01*
X101065Y202480D01*
X101182Y201594D01*
X101524Y200769D01*
X102068Y200060D01*
X102777Y199516D01*
X103602Y199174D01*
X104488Y199057D01*
X105374Y199174D01*
X106200Y199516D01*
X106909Y200060D01*
X107453Y200769D01*
X107794Y201594D01*
X107911Y202480D01*
X107794Y203366D01*
X107453Y204192D01*
X106909Y204901D01*
X106200Y205445D01*
X105374Y205787D01*
X104488Y205903D01*
D02*
G37*
G36*
X98455Y202087D02*
X94882D01*
Y198513D01*
X95528Y198599D01*
X96497Y199000D01*
X97330Y199639D01*
X97968Y200471D01*
X98370Y201440D01*
X98455Y202087D01*
D02*
G37*
G36*
X94095D02*
X90521D01*
X90606Y201440D01*
X91008Y200471D01*
X91647Y199639D01*
X92479Y199000D01*
X93448Y198599D01*
X94095Y198513D01*
Y202087D01*
D02*
G37*
G36*
X15945Y209055D02*
X9449D01*
X2953D01*
Y207382D01*
X3543D01*
Y205217D01*
X2953D01*
Y203543D01*
X9449D01*
X15945D01*
Y204894D01*
X33670D01*
X37425Y201139D01*
X37355Y200787D01*
X37539Y199866D01*
X38061Y199084D01*
X38842Y198562D01*
X39764Y198379D01*
X40685Y198562D01*
X41467Y199084D01*
X41989Y199866D01*
X42172Y200787D01*
X41989Y201709D01*
X41467Y202490D01*
X40685Y203013D01*
X39764Y203196D01*
X39412Y203126D01*
X35245Y207293D01*
X34790Y207597D01*
X34252Y207704D01*
X15945D01*
Y209055D01*
D02*
G37*
G36*
X153473Y204478D02*
X152599Y204363D01*
X151785Y204025D01*
X151086Y203489D01*
X150549Y202790D01*
X150212Y201976D01*
X150097Y201102D01*
X150212Y200229D01*
X150549Y199415D01*
X151086Y198716D01*
X151785Y198179D01*
X152599Y197842D01*
X153473Y197727D01*
X154346Y197842D01*
X155160Y198179D01*
X155859Y198716D01*
X156396Y199415D01*
X156733Y200229D01*
X156848Y201102D01*
X156733Y201976D01*
X156396Y202790D01*
X155859Y203489D01*
X155160Y204025D01*
X154346Y204363D01*
X153473Y204478D01*
D02*
G37*
G36*
X165047Y199568D02*
Y196043D01*
X168572D01*
X168489Y196677D01*
X168092Y197635D01*
X167461Y198457D01*
X166639Y199088D01*
X165681Y199485D01*
X165047Y199568D01*
D02*
G37*
G36*
X164260D02*
X163626Y199485D01*
X162668Y199088D01*
X161846Y198457D01*
X161214Y197635D01*
X160818Y196677D01*
X160734Y196043D01*
X164260D01*
Y199568D01*
D02*
G37*
G36*
X94882Y196447D02*
Y192874D01*
X98455D01*
X98370Y193520D01*
X97968Y194490D01*
X97330Y195322D01*
X96497Y195961D01*
X95528Y196362D01*
X94882Y196447D01*
D02*
G37*
G36*
X94095D02*
X93448Y196362D01*
X92479Y195961D01*
X91647Y195322D01*
X91008Y194490D01*
X90606Y193520D01*
X90521Y192874D01*
X94095D01*
Y196447D01*
D02*
G37*
G36*
X15945Y202756D02*
X9449D01*
X2953D01*
Y201083D01*
X3543D01*
Y198524D01*
X3543D01*
Y198327D01*
X3543D01*
Y195768D01*
X2953D01*
Y194095D01*
X9449D01*
X15945D01*
Y195768D01*
X15354D01*
Y196293D01*
X15609Y196398D01*
X16603Y197392D01*
X18633D01*
X22383Y193642D01*
X22835Y193455D01*
X23609D01*
X23691Y193043D01*
X23952Y192652D01*
X24342Y192391D01*
X24803Y192300D01*
X25264Y192391D01*
X25655Y192652D01*
X25916Y193043D01*
X26007Y193504D01*
X25916Y193965D01*
X25810Y194123D01*
X25696Y194488D01*
X25810Y194853D01*
X25916Y195012D01*
X26007Y195473D01*
X25916Y195933D01*
X25655Y196324D01*
X25264Y196585D01*
X24803Y196677D01*
X24342Y196585D01*
X23952Y196324D01*
X23703Y195951D01*
X23687Y195932D01*
X23153Y195794D01*
X19676Y199271D01*
X19224Y199458D01*
X16603D01*
X15609Y200452D01*
X15354Y200558D01*
Y201083D01*
X15945D01*
Y202756D01*
D02*
G37*
G36*
X168572Y195256D02*
X165047D01*
Y191730D01*
X165681Y191814D01*
X166639Y192210D01*
X167461Y192841D01*
X168092Y193664D01*
X168489Y194622D01*
X168572Y195256D01*
D02*
G37*
G36*
X164260D02*
X160734D01*
X160818Y194622D01*
X161214Y193664D01*
X161846Y192841D01*
X162668Y192210D01*
X163626Y191814D01*
X164260Y191730D01*
Y195256D01*
D02*
G37*
G36*
X114488Y195903D02*
X113602Y195787D01*
X112777Y195445D01*
X112068Y194901D01*
X111524Y194192D01*
X111182Y193366D01*
X111065Y192480D01*
X111182Y191594D01*
X111524Y190769D01*
X112068Y190060D01*
X112777Y189516D01*
X113602Y189174D01*
X114488Y189057D01*
X115374Y189174D01*
X116200Y189516D01*
X116909Y190060D01*
X117453Y190769D01*
X117795Y191594D01*
X117911Y192480D01*
X117795Y193366D01*
X117453Y194192D01*
X116909Y194901D01*
X116200Y195445D01*
X115374Y195787D01*
X114488Y195903D01*
D02*
G37*
G36*
X104488D02*
X103602Y195787D01*
X102777Y195445D01*
X102068Y194901D01*
X101524Y194192D01*
X101182Y193366D01*
X101065Y192480D01*
X101182Y191594D01*
X101524Y190769D01*
X102068Y190060D01*
X102777Y189516D01*
X103602Y189174D01*
X104488Y189057D01*
X105374Y189174D01*
X106200Y189516D01*
X106909Y190060D01*
X107453Y190769D01*
X107794Y191594D01*
X107911Y192480D01*
X107794Y193366D01*
X107453Y194192D01*
X106909Y194901D01*
X106200Y195445D01*
X105374Y195787D01*
X104488Y195903D01*
D02*
G37*
G36*
X98455Y192087D02*
X94882D01*
Y188514D01*
X95528Y188599D01*
X96497Y189000D01*
X97330Y189639D01*
X97968Y190471D01*
X98370Y191440D01*
X98455Y192087D01*
D02*
G37*
G36*
X94095D02*
X90521D01*
X90606Y191440D01*
X91008Y190471D01*
X91647Y189639D01*
X92479Y189000D01*
X93448Y188599D01*
X94095Y188514D01*
Y192087D01*
D02*
G37*
G36*
X153473Y193573D02*
X152599Y193458D01*
X151785Y193120D01*
X151086Y192584D01*
X150549Y191885D01*
X150212Y191071D01*
X150097Y190197D01*
X150212Y189324D01*
X150549Y188510D01*
X151086Y187811D01*
X151785Y187274D01*
X152599Y186937D01*
X153473Y186822D01*
X154346Y186937D01*
X155160Y187274D01*
X155859Y187811D01*
X156396Y188510D01*
X156733Y189324D01*
X156848Y190197D01*
X156733Y191071D01*
X156396Y191885D01*
X155859Y192584D01*
X155160Y193120D01*
X154346Y193458D01*
X153473Y193573D01*
D02*
G37*
G36*
X94882Y186447D02*
Y182874D01*
X98455D01*
X98370Y183520D01*
X97968Y184490D01*
X97330Y185322D01*
X96497Y185961D01*
X95528Y186362D01*
X94882Y186447D01*
D02*
G37*
G36*
X94095D02*
X93448Y186362D01*
X92479Y185961D01*
X91647Y185322D01*
X91008Y184490D01*
X90606Y183520D01*
X90521Y182874D01*
X94095D01*
Y186447D01*
D02*
G37*
G36*
X15945Y193307D02*
X9449D01*
X2953D01*
Y191634D01*
X3543D01*
Y189075D01*
X3543D01*
Y188878D01*
X3543D01*
Y186319D01*
X2953D01*
Y184646D01*
X9449D01*
X15945D01*
Y186319D01*
X15354D01*
Y186844D01*
X15609Y186950D01*
X16603Y187943D01*
X18239D01*
X22776Y183406D01*
X23228Y183219D01*
X23609D01*
X23691Y182807D01*
X23952Y182416D01*
X24342Y182155D01*
X24803Y182063D01*
X25264Y182155D01*
X25655Y182416D01*
X25916Y182807D01*
X26007Y183268D01*
X25916Y183729D01*
X25655Y184119D01*
Y184385D01*
X25916Y184775D01*
X26007Y185236D01*
X25916Y185697D01*
X25655Y186088D01*
X25264Y186349D01*
X24803Y186441D01*
X24342Y186349D01*
X23952Y186088D01*
X23860Y185951D01*
X23251Y185853D01*
X19282Y189822D01*
X18830Y190009D01*
X16603D01*
X15609Y191003D01*
X15354Y191109D01*
Y191634D01*
X15945D01*
Y193307D01*
D02*
G37*
G36*
X164653Y188120D02*
X163780Y188005D01*
X162966Y187667D01*
X162267Y187131D01*
X161730Y186432D01*
X161393Y185618D01*
X161278Y184744D01*
X161393Y183871D01*
X161730Y183057D01*
X162267Y182358D01*
X162966Y181821D01*
X163780Y181484D01*
X164653Y181369D01*
X165527Y181484D01*
X166341Y181821D01*
X167040Y182358D01*
X167577Y183057D01*
X167914Y183871D01*
X168029Y184744D01*
X167914Y185618D01*
X167577Y186432D01*
X167040Y187131D01*
X166341Y187667D01*
X165527Y188005D01*
X164653Y188120D01*
D02*
G37*
G36*
X153866Y183210D02*
Y179685D01*
X157392D01*
X157308Y180319D01*
X156912Y181277D01*
X156281Y182099D01*
X155458Y182730D01*
X154500Y183127D01*
X153866Y183210D01*
D02*
G37*
G36*
X153079D02*
X152445Y183127D01*
X151487Y182730D01*
X150665Y182099D01*
X150034Y181277D01*
X149637Y180319D01*
X149553Y179685D01*
X153079D01*
Y183210D01*
D02*
G37*
G36*
X114488Y185903D02*
X113602Y185787D01*
X112777Y185445D01*
X112068Y184901D01*
X111524Y184192D01*
X111182Y183366D01*
X111065Y182480D01*
X111182Y181594D01*
X111524Y180769D01*
X112068Y180060D01*
X112777Y179516D01*
X113602Y179174D01*
X114488Y179057D01*
X115374Y179174D01*
X116200Y179516D01*
X116909Y180060D01*
X117453Y180769D01*
X117795Y181594D01*
X117911Y182480D01*
X117795Y183366D01*
X117453Y184192D01*
X116909Y184901D01*
X116200Y185445D01*
X115374Y185787D01*
X114488Y185903D01*
D02*
G37*
G36*
X104488D02*
X103602Y185787D01*
X102777Y185445D01*
X102068Y184901D01*
X101524Y184192D01*
X101182Y183366D01*
X101065Y182480D01*
X101182Y181594D01*
X101524Y180769D01*
X102068Y180060D01*
X102777Y179516D01*
X103602Y179174D01*
X104488Y179057D01*
X105374Y179174D01*
X106200Y179516D01*
X106909Y180060D01*
X107453Y180769D01*
X107794Y181594D01*
X107911Y182480D01*
X107794Y183366D01*
X107453Y184192D01*
X106909Y184901D01*
X106200Y185445D01*
X105374Y185787D01*
X104488Y185903D01*
D02*
G37*
G36*
X98455Y182087D02*
X94882D01*
Y178514D01*
X95528Y178599D01*
X96497Y179000D01*
X97330Y179639D01*
X97968Y180471D01*
X98370Y181440D01*
X98455Y182087D01*
D02*
G37*
G36*
X94095D02*
X90521D01*
X90606Y181440D01*
X91008Y180471D01*
X91647Y179639D01*
X92479Y179000D01*
X93448Y178599D01*
X94095Y178514D01*
Y182087D01*
D02*
G37*
G36*
X157392Y178898D02*
X153866D01*
Y175372D01*
X154500Y175456D01*
X155458Y175852D01*
X156281Y176483D01*
X156912Y177306D01*
X157308Y178264D01*
X157392Y178898D01*
D02*
G37*
G36*
X153079D02*
X149553D01*
X149637Y178264D01*
X150034Y177306D01*
X150665Y176483D01*
X151487Y175852D01*
X152445Y175456D01*
X153079Y175372D01*
Y178898D01*
D02*
G37*
G36*
X94882Y176447D02*
Y172874D01*
X98455D01*
X98370Y173520D01*
X97968Y174490D01*
X97330Y175322D01*
X96497Y175961D01*
X95528Y176362D01*
X94882Y176447D01*
D02*
G37*
G36*
X94095D02*
X93448Y176362D01*
X92479Y175961D01*
X91647Y175322D01*
X91008Y174490D01*
X90606Y173520D01*
X90521Y172874D01*
X94095D01*
Y176447D01*
D02*
G37*
G36*
X15945Y183858D02*
X9449D01*
X2953D01*
Y182185D01*
X3543D01*
Y179626D01*
X3543D01*
Y179429D01*
X3543D01*
Y176870D01*
X2953D01*
Y175197D01*
X9449D01*
X15945D01*
Y176870D01*
X15354D01*
Y177395D01*
X15609Y177501D01*
X16603Y178495D01*
X17452D01*
X21989Y173958D01*
X22441Y173770D01*
X23609D01*
X23691Y173358D01*
X23952Y172967D01*
X24342Y172706D01*
X24803Y172615D01*
X25264Y172706D01*
X25655Y172967D01*
X25916Y173358D01*
X26007Y173819D01*
X25916Y174280D01*
X25810Y174438D01*
X25696Y174803D01*
X25810Y175168D01*
X25916Y175327D01*
X26007Y175787D01*
X25916Y176248D01*
X25655Y176639D01*
X25264Y176900D01*
X24803Y176992D01*
X24342Y176900D01*
X23952Y176639D01*
X23691Y176248D01*
X23609Y175836D01*
X23032D01*
X18495Y180373D01*
X18043Y180560D01*
X16603D01*
X15609Y181554D01*
X15354Y181660D01*
Y182185D01*
X15945D01*
Y183858D01*
D02*
G37*
G36*
X164653Y177214D02*
X163780Y177099D01*
X162966Y176761D01*
X162267Y176225D01*
X161730Y175526D01*
X161393Y174712D01*
X161278Y173838D01*
X161393Y172965D01*
X161730Y172151D01*
X162267Y171452D01*
X162966Y170915D01*
X163780Y170578D01*
X164653Y170463D01*
X165527Y170578D01*
X166341Y170915D01*
X167040Y171452D01*
X167577Y172151D01*
X167914Y172965D01*
X168029Y173838D01*
X167914Y174712D01*
X167577Y175526D01*
X167040Y176225D01*
X166341Y176761D01*
X165527Y177099D01*
X164653Y177214D01*
D02*
G37*
G36*
X114488Y175903D02*
X113602Y175787D01*
X112777Y175445D01*
X112068Y174901D01*
X111524Y174192D01*
X111182Y173366D01*
X111065Y172480D01*
X111182Y171594D01*
X111524Y170769D01*
X112068Y170060D01*
X112777Y169516D01*
X113602Y169174D01*
X114488Y169057D01*
X115374Y169174D01*
X116200Y169516D01*
X116909Y170060D01*
X117453Y170769D01*
X117795Y171594D01*
X117911Y172480D01*
X117795Y173366D01*
X117453Y174192D01*
X116909Y174901D01*
X116200Y175445D01*
X115374Y175787D01*
X114488Y175903D01*
D02*
G37*
G36*
X104488D02*
X103602Y175787D01*
X102777Y175445D01*
X102068Y174901D01*
X101524Y174192D01*
X101182Y173366D01*
X101065Y172480D01*
X101182Y171594D01*
X101524Y170769D01*
X102068Y170060D01*
X102777Y169516D01*
X103602Y169174D01*
X104488Y169057D01*
X105374Y169174D01*
X106200Y169516D01*
X106909Y170060D01*
X107453Y170769D01*
X107794Y171594D01*
X107911Y172480D01*
X107794Y173366D01*
X107453Y174192D01*
X106909Y174901D01*
X106200Y175445D01*
X105374Y175787D01*
X104488Y175903D01*
D02*
G37*
G36*
X98455Y172087D02*
X94882D01*
Y168514D01*
X95528Y168599D01*
X96497Y169000D01*
X97330Y169639D01*
X97968Y170471D01*
X98370Y171440D01*
X98455Y172087D01*
D02*
G37*
G36*
X94095D02*
X90521D01*
X90606Y171440D01*
X91008Y170471D01*
X91647Y169639D01*
X92479Y169000D01*
X93448Y168599D01*
X94095Y168514D01*
Y172087D01*
D02*
G37*
G36*
X153473Y171762D02*
X152599Y171647D01*
X151785Y171309D01*
X151086Y170773D01*
X150549Y170074D01*
X150212Y169260D01*
X150097Y168386D01*
X150212Y167513D01*
X150549Y166699D01*
X151086Y166000D01*
X151785Y165463D01*
X152599Y165126D01*
X153473Y165011D01*
X154346Y165126D01*
X155160Y165463D01*
X155859Y166000D01*
X156396Y166699D01*
X156733Y167513D01*
X156848Y168386D01*
X156733Y169260D01*
X156396Y170074D01*
X155859Y170773D01*
X155160Y171309D01*
X154346Y171647D01*
X153473Y171762D01*
D02*
G37*
G36*
X165047Y166852D02*
Y163327D01*
X168572D01*
X168489Y163961D01*
X168092Y164919D01*
X167461Y165741D01*
X166639Y166372D01*
X165681Y166769D01*
X165047Y166852D01*
D02*
G37*
G36*
X164260D02*
X163626Y166769D01*
X162668Y166372D01*
X161846Y165741D01*
X161214Y164919D01*
X160818Y163961D01*
X160734Y163327D01*
X164260D01*
Y166852D01*
D02*
G37*
G36*
X15945Y174409D02*
X9449D01*
X2953D01*
Y172736D01*
X3543D01*
Y170177D01*
X3543D01*
Y169980D01*
X3543D01*
Y167421D01*
X2953D01*
Y165748D01*
X9449D01*
X15945D01*
Y167421D01*
X15354D01*
Y167946D01*
X15609Y168052D01*
X16603Y169046D01*
X17452D01*
X21989Y164509D01*
X22441Y164321D01*
X23609D01*
X23691Y163909D01*
X23952Y163519D01*
X24342Y163258D01*
X24803Y163166D01*
X25264Y163258D01*
X25655Y163519D01*
X25916Y163909D01*
X26007Y164370D01*
X25916Y164831D01*
X25655Y165222D01*
Y165487D01*
X25916Y165878D01*
X26007Y166339D01*
X25916Y166799D01*
X25655Y167190D01*
X25264Y167451D01*
X24803Y167543D01*
X24342Y167451D01*
X23952Y167190D01*
X23691Y166799D01*
X23609Y166387D01*
X23032D01*
X18495Y170924D01*
X18043Y171112D01*
X16603D01*
X15609Y172106D01*
X15354Y172211D01*
Y172736D01*
X15945D01*
Y174409D01*
D02*
G37*
G36*
X94882Y166447D02*
Y162874D01*
X98455D01*
X98370Y163520D01*
X97968Y164490D01*
X97330Y165322D01*
X96497Y165961D01*
X95528Y166362D01*
X94882Y166447D01*
D02*
G37*
G36*
X94095D02*
X93448Y166362D01*
X92479Y165961D01*
X91647Y165322D01*
X91008Y164490D01*
X90606Y163520D01*
X90521Y162874D01*
X94095D01*
Y166447D01*
D02*
G37*
G36*
X114488Y165903D02*
X113602Y165787D01*
X112777Y165445D01*
X112068Y164901D01*
X111524Y164192D01*
X111182Y163366D01*
X111065Y162480D01*
X111182Y161594D01*
X111524Y160769D01*
X112068Y160060D01*
X112777Y159516D01*
X113602Y159174D01*
X114488Y159057D01*
X115374Y159174D01*
X116200Y159516D01*
X116909Y160060D01*
X117453Y160769D01*
X117795Y161594D01*
X117911Y162480D01*
X117795Y163366D01*
X117453Y164192D01*
X116909Y164901D01*
X116200Y165445D01*
X115374Y165787D01*
X114488Y165903D01*
D02*
G37*
G36*
X104488D02*
X103602Y165787D01*
X102777Y165445D01*
X102068Y164901D01*
X101524Y164192D01*
X101182Y163366D01*
X101065Y162480D01*
X101182Y161594D01*
X101524Y160769D01*
X102068Y160060D01*
X102777Y159516D01*
X103602Y159174D01*
X104488Y159057D01*
X105374Y159174D01*
X106200Y159516D01*
X106909Y160060D01*
X107453Y160769D01*
X107794Y161594D01*
X107911Y162480D01*
X107794Y163366D01*
X107453Y164192D01*
X106909Y164901D01*
X106200Y165445D01*
X105374Y165787D01*
X104488Y165903D01*
D02*
G37*
G36*
X168572Y162540D02*
X165047D01*
Y159014D01*
X165681Y159098D01*
X166639Y159494D01*
X167461Y160125D01*
X168092Y160948D01*
X168489Y161906D01*
X168572Y162540D01*
D02*
G37*
G36*
X164260D02*
X160734D01*
X160818Y161906D01*
X161214Y160948D01*
X161846Y160125D01*
X162668Y159494D01*
X163626Y159098D01*
X164260Y159014D01*
Y162540D01*
D02*
G37*
G36*
X98455Y162087D02*
X94882D01*
Y158513D01*
X95528Y158599D01*
X96497Y159000D01*
X97330Y159639D01*
X97968Y160471D01*
X98370Y161440D01*
X98455Y162087D01*
D02*
G37*
G36*
X94095D02*
X90521D01*
X90606Y161440D01*
X91008Y160471D01*
X91647Y159639D01*
X92479Y159000D01*
X93448Y158599D01*
X94095Y158513D01*
Y162087D01*
D02*
G37*
G36*
X15945Y164961D02*
X9449D01*
X2953D01*
Y163287D01*
X3543D01*
Y160728D01*
X3543D01*
Y160531D01*
X3543D01*
Y157579D01*
X15354D01*
Y158497D01*
X15609Y158603D01*
X16603Y159597D01*
X24538D01*
X28288Y155847D01*
X28740Y155660D01*
X29120D01*
X29202Y155248D01*
X29463Y154857D01*
X29854Y154596D01*
X30315Y154504D01*
X30776Y154596D01*
X31166Y154857D01*
X31427Y155248D01*
X31519Y155709D01*
X31427Y156169D01*
X31322Y156328D01*
X31208Y156693D01*
X31322Y157058D01*
X31427Y157216D01*
X31519Y157677D01*
X31427Y158138D01*
X31166Y158529D01*
X30776Y158790D01*
X30315Y158881D01*
X29854Y158790D01*
X29463Y158529D01*
X29372Y158392D01*
X28763Y158294D01*
X25581Y161476D01*
X25129Y161663D01*
X16603D01*
X15609Y162657D01*
X15354Y162762D01*
Y163287D01*
X15945D01*
Y164961D01*
D02*
G37*
G36*
X153473Y160856D02*
X152599Y160741D01*
X151785Y160403D01*
X151086Y159867D01*
X150549Y159168D01*
X150212Y158354D01*
X150097Y157480D01*
X150212Y156607D01*
X150549Y155793D01*
X151086Y155094D01*
X151785Y154557D01*
X152599Y154220D01*
X153473Y154105D01*
X154346Y154220D01*
X155160Y154557D01*
X155859Y155094D01*
X156396Y155793D01*
X156733Y156607D01*
X156848Y157480D01*
X156733Y158354D01*
X156396Y159168D01*
X155859Y159867D01*
X155160Y160403D01*
X154346Y160741D01*
X153473Y160856D01*
D02*
G37*
G36*
X94882Y156447D02*
Y152874D01*
X98455D01*
X98370Y153520D01*
X97968Y154490D01*
X97330Y155322D01*
X96497Y155961D01*
X95528Y156362D01*
X94882Y156447D01*
D02*
G37*
G36*
X94095D02*
X93448Y156362D01*
X92479Y155961D01*
X91647Y155322D01*
X91008Y154490D01*
X90606Y153520D01*
X90521Y152874D01*
X94095D01*
Y156447D01*
D02*
G37*
G36*
X114488Y155903D02*
X113602Y155787D01*
X112777Y155445D01*
X112068Y154901D01*
X111524Y154192D01*
X111182Y153366D01*
X111065Y152480D01*
X111182Y151594D01*
X111524Y150769D01*
X112068Y150060D01*
X112777Y149516D01*
X113602Y149174D01*
X114488Y149057D01*
X115374Y149174D01*
X116200Y149516D01*
X116909Y150060D01*
X117453Y150769D01*
X117795Y151594D01*
X117911Y152480D01*
X117795Y153366D01*
X117453Y154192D01*
X116909Y154901D01*
X116200Y155445D01*
X115374Y155787D01*
X114488Y155903D01*
D02*
G37*
G36*
X104488D02*
X103602Y155787D01*
X102777Y155445D01*
X102068Y154901D01*
X101524Y154192D01*
X101182Y153366D01*
X101065Y152480D01*
X101182Y151594D01*
X101524Y150769D01*
X102068Y150060D01*
X102777Y149516D01*
X103602Y149174D01*
X104488Y149057D01*
X105374Y149174D01*
X106200Y149516D01*
X106909Y150060D01*
X107453Y150769D01*
X107794Y151594D01*
X107911Y152480D01*
X107794Y153366D01*
X107453Y154192D01*
X106909Y154901D01*
X106200Y155445D01*
X105374Y155787D01*
X104488Y155903D01*
D02*
G37*
G36*
X164653Y155403D02*
X163780Y155288D01*
X162966Y154950D01*
X162267Y154414D01*
X161730Y153715D01*
X161393Y152901D01*
X161278Y152027D01*
X161393Y151154D01*
X161730Y150340D01*
X162267Y149641D01*
X162966Y149104D01*
X163780Y148767D01*
X164653Y148652D01*
X165527Y148767D01*
X166341Y149104D01*
X167040Y149641D01*
X167577Y150340D01*
X167914Y151154D01*
X168029Y152027D01*
X167914Y152901D01*
X167577Y153715D01*
X167040Y154414D01*
X166341Y154950D01*
X165527Y155288D01*
X164653Y155403D01*
D02*
G37*
G36*
X98455Y152087D02*
X94882D01*
Y148513D01*
X95528Y148599D01*
X96497Y149000D01*
X97330Y149639D01*
X97968Y150471D01*
X98370Y151440D01*
X98455Y152087D01*
D02*
G37*
G36*
X94095D02*
X90521D01*
X90606Y151440D01*
X91008Y150471D01*
X91647Y149639D01*
X92479Y149000D01*
X93448Y148599D01*
X94095Y148513D01*
Y152087D01*
D02*
G37*
G36*
X153866Y150495D02*
Y146969D01*
X157392D01*
X157308Y147603D01*
X156912Y148561D01*
X156281Y149383D01*
X155458Y150014D01*
X154500Y150411D01*
X153866Y150495D01*
D02*
G37*
G36*
X153079D02*
X152445Y150411D01*
X151487Y150014D01*
X150665Y149383D01*
X150034Y148561D01*
X149637Y147603D01*
X149553Y146969D01*
X153079D01*
Y150495D01*
D02*
G37*
G36*
X15945Y145374D02*
X9843D01*
Y143701D01*
X15945D01*
Y145374D01*
D02*
G37*
G36*
X9055D02*
X2953D01*
Y143701D01*
X9055D01*
Y145374D01*
D02*
G37*
G36*
X94882Y146447D02*
Y142874D01*
X98455D01*
X98370Y143520D01*
X97968Y144490D01*
X97330Y145322D01*
X96497Y145961D01*
X95528Y146362D01*
X94882Y146447D01*
D02*
G37*
G36*
X94095D02*
X93448Y146362D01*
X92479Y145961D01*
X91647Y145322D01*
X91008Y144490D01*
X90606Y143520D01*
X90521Y142874D01*
X94095D01*
Y146447D01*
D02*
G37*
G36*
X157392Y146182D02*
X153866D01*
Y142656D01*
X154500Y142740D01*
X155458Y143136D01*
X156281Y143767D01*
X156912Y144590D01*
X157308Y145548D01*
X157392Y146182D01*
D02*
G37*
G36*
X153079D02*
X149553D01*
X149637Y145548D01*
X150034Y144590D01*
X150665Y143767D01*
X151487Y143136D01*
X152445Y142740D01*
X153079Y142656D01*
Y146182D01*
D02*
G37*
G36*
X114488Y145903D02*
X113602Y145787D01*
X112777Y145445D01*
X112068Y144901D01*
X111524Y144192D01*
X111182Y143366D01*
X111065Y142480D01*
X111182Y141594D01*
X111524Y140769D01*
X112068Y140060D01*
X112777Y139516D01*
X113602Y139174D01*
X114488Y139057D01*
X115374Y139174D01*
X116200Y139516D01*
X116909Y140060D01*
X117453Y140769D01*
X117795Y141594D01*
X117911Y142480D01*
X117795Y143366D01*
X117453Y144192D01*
X116909Y144901D01*
X116200Y145445D01*
X115374Y145787D01*
X114488Y145903D01*
D02*
G37*
G36*
X104488D02*
X103602Y145787D01*
X102777Y145445D01*
X102068Y144901D01*
X101524Y144192D01*
X101182Y143366D01*
X101065Y142480D01*
X101182Y141594D01*
X101524Y140769D01*
X102068Y140060D01*
X102777Y139516D01*
X103602Y139174D01*
X104488Y139057D01*
X105374Y139174D01*
X106200Y139516D01*
X106909Y140060D01*
X107453Y140769D01*
X107794Y141594D01*
X107911Y142480D01*
X107794Y143366D01*
X107453Y144192D01*
X106909Y144901D01*
X106200Y145445D01*
X105374Y145787D01*
X104488Y145903D01*
D02*
G37*
G36*
X98455Y142087D02*
X94882D01*
Y138514D01*
X95528Y138599D01*
X96497Y139000D01*
X97330Y139639D01*
X97968Y140471D01*
X98370Y141440D01*
X98455Y142087D01*
D02*
G37*
G36*
X94095D02*
X90521D01*
X90606Y141440D01*
X91008Y140471D01*
X91647Y139639D01*
X92479Y139000D01*
X93448Y138599D01*
X94095Y138514D01*
Y142087D01*
D02*
G37*
G36*
X164653Y144498D02*
X163780Y144383D01*
X162966Y144045D01*
X162267Y143509D01*
X161730Y142810D01*
X161393Y141996D01*
X161278Y141122D01*
X161393Y140249D01*
X161730Y139435D01*
X162267Y138736D01*
X162966Y138199D01*
X163780Y137862D01*
X164653Y137747D01*
X165527Y137862D01*
X166341Y138199D01*
X167040Y138736D01*
X167577Y139435D01*
X167914Y140249D01*
X168029Y141122D01*
X167914Y141996D01*
X167577Y142810D01*
X167040Y143509D01*
X166341Y144045D01*
X165527Y144383D01*
X164653Y144498D01*
D02*
G37*
G36*
X94882Y136447D02*
Y132874D01*
X98455D01*
X98370Y133520D01*
X97968Y134490D01*
X97330Y135322D01*
X96497Y135961D01*
X95528Y136362D01*
X94882Y136447D01*
D02*
G37*
G36*
X94095D02*
X93448Y136362D01*
X92479Y135961D01*
X91647Y135322D01*
X91008Y134490D01*
X90606Y133520D01*
X90521Y132874D01*
X94095D01*
Y136447D01*
D02*
G37*
G36*
X153473Y139045D02*
X152599Y138930D01*
X151785Y138592D01*
X151086Y138056D01*
X150549Y137357D01*
X150212Y136543D01*
X150097Y135669D01*
X150212Y134796D01*
X150549Y133982D01*
X151086Y133283D01*
X151785Y132746D01*
X152599Y132409D01*
X153473Y132294D01*
X154346Y132409D01*
X155160Y132746D01*
X155859Y133283D01*
X156396Y133982D01*
X156733Y134796D01*
X156848Y135669D01*
X156733Y136543D01*
X156396Y137357D01*
X155859Y138056D01*
X155160Y138592D01*
X154346Y138930D01*
X153473Y139045D01*
D02*
G37*
G36*
X165047Y134135D02*
Y130610D01*
X168572D01*
X168489Y131244D01*
X168092Y132202D01*
X167461Y133024D01*
X166639Y133655D01*
X165681Y134052D01*
X165047Y134135D01*
D02*
G37*
G36*
X164260D02*
X163626Y134052D01*
X162668Y133655D01*
X161846Y133024D01*
X161214Y132202D01*
X160818Y131244D01*
X160734Y130610D01*
X164260D01*
Y134135D01*
D02*
G37*
G36*
X114488Y135903D02*
X113602Y135787D01*
X112777Y135445D01*
X112068Y134901D01*
X111524Y134192D01*
X111182Y133366D01*
X111065Y132480D01*
X111182Y131594D01*
X111524Y130769D01*
X112068Y130060D01*
X112777Y129516D01*
X113602Y129174D01*
X114488Y129057D01*
X115374Y129174D01*
X116200Y129516D01*
X116909Y130060D01*
X117453Y130769D01*
X117795Y131594D01*
X117911Y132480D01*
X117795Y133366D01*
X117453Y134192D01*
X116909Y134901D01*
X116200Y135445D01*
X115374Y135787D01*
X114488Y135903D01*
D02*
G37*
G36*
X104488D02*
X103602Y135787D01*
X102777Y135445D01*
X102068Y134901D01*
X101524Y134192D01*
X101182Y133366D01*
X101065Y132480D01*
X101182Y131594D01*
X101524Y130769D01*
X102068Y130060D01*
X102777Y129516D01*
X103602Y129174D01*
X104488Y129057D01*
X105374Y129174D01*
X106200Y129516D01*
X106909Y130060D01*
X107453Y130769D01*
X107794Y131594D01*
X107911Y132480D01*
X107794Y133366D01*
X107453Y134192D01*
X106909Y134901D01*
X106200Y135445D01*
X105374Y135787D01*
X104488Y135903D01*
D02*
G37*
G36*
X98455Y132087D02*
X94882D01*
Y128514D01*
X95528Y128599D01*
X96497Y129000D01*
X97330Y129639D01*
X97968Y130471D01*
X98370Y131440D01*
X98455Y132087D01*
D02*
G37*
G36*
X94095D02*
X90521D01*
X90606Y131440D01*
X91008Y130471D01*
X91647Y129639D01*
X92479Y129000D01*
X93448Y128599D01*
X94095Y128514D01*
Y132087D01*
D02*
G37*
G36*
X168572Y129823D02*
X165047D01*
Y126297D01*
X165681Y126381D01*
X166639Y126777D01*
X167461Y127408D01*
X168092Y128231D01*
X168489Y129189D01*
X168572Y129823D01*
D02*
G37*
G36*
X164260D02*
X160734D01*
X160818Y129189D01*
X161214Y128231D01*
X161846Y127408D01*
X162668Y126777D01*
X163626Y126381D01*
X164260Y126297D01*
Y129823D01*
D02*
G37*
G36*
X153473Y128140D02*
X152599Y128025D01*
X151785Y127687D01*
X151086Y127151D01*
X150549Y126452D01*
X150212Y125638D01*
X150097Y124764D01*
X150212Y123891D01*
X150549Y123077D01*
X151086Y122378D01*
X151785Y121841D01*
X152599Y121504D01*
X153473Y121389D01*
X154346Y121504D01*
X155160Y121841D01*
X155859Y122378D01*
X156396Y123077D01*
X156733Y123891D01*
X156848Y124764D01*
X156733Y125638D01*
X156396Y126452D01*
X155859Y127151D01*
X155160Y127687D01*
X154346Y128025D01*
X153473Y128140D01*
D02*
G37*
G36*
X164653Y122687D02*
X163780Y122572D01*
X162966Y122234D01*
X162267Y121698D01*
X161730Y120999D01*
X161393Y120185D01*
X161278Y119311D01*
X161393Y118438D01*
X161730Y117624D01*
X162267Y116925D01*
X162966Y116388D01*
X163780Y116051D01*
X164653Y115936D01*
X165527Y116051D01*
X166341Y116388D01*
X167040Y116925D01*
X167577Y117624D01*
X167914Y118438D01*
X168029Y119311D01*
X167914Y120185D01*
X167577Y120999D01*
X167040Y121698D01*
X166341Y122234D01*
X165527Y122572D01*
X164653Y122687D01*
D02*
G37*
G36*
X153866Y117777D02*
Y114252D01*
X157392D01*
X157308Y114886D01*
X156912Y115844D01*
X156281Y116666D01*
X155458Y117297D01*
X154500Y117694D01*
X153866Y117777D01*
D02*
G37*
G36*
X153079D02*
X152445Y117694D01*
X151487Y117297D01*
X150665Y116666D01*
X150034Y115844D01*
X149637Y114886D01*
X149553Y114252D01*
X153079D01*
Y117777D01*
D02*
G37*
G36*
X114882Y115947D02*
Y112374D01*
X118455D01*
X118370Y113020D01*
X117968Y113990D01*
X117330Y114822D01*
X116498Y115461D01*
X115528Y115862D01*
X114882Y115947D01*
D02*
G37*
G36*
X114094D02*
X113448Y115862D01*
X112479Y115461D01*
X111647Y114822D01*
X111008Y113990D01*
X110607Y113020D01*
X110521Y112374D01*
X114094D01*
Y115947D01*
D02*
G37*
G36*
X157392Y113465D02*
X153866D01*
Y109939D01*
X154500Y110023D01*
X155458Y110419D01*
X156281Y111050D01*
X156912Y111873D01*
X157308Y112830D01*
X157392Y113465D01*
D02*
G37*
G36*
X153079D02*
X149553D01*
X149637Y112830D01*
X150034Y111873D01*
X150665Y111050D01*
X151487Y110419D01*
X152445Y110023D01*
X153079Y109939D01*
Y113465D01*
D02*
G37*
G36*
X97882Y115374D02*
X91094D01*
Y108587D01*
X97882D01*
Y115374D01*
D02*
G37*
G36*
X15945Y142913D02*
X9449D01*
X2953D01*
Y141240D01*
X3543D01*
Y138984D01*
X3543Y138681D01*
X3543Y138181D01*
Y135925D01*
X2953D01*
Y134252D01*
X9449D01*
X15945D01*
Y135925D01*
X16329Y136205D01*
X65416D01*
X87386Y114234D01*
Y109492D01*
X87447Y109185D01*
X87621Y108924D01*
X90290Y106256D01*
X90377Y106125D01*
X90638Y105951D01*
X90945Y105890D01*
X94355D01*
X94388Y105390D01*
X94113Y105354D01*
X93602Y105287D01*
X92777Y104945D01*
X92068Y104401D01*
X91524Y103692D01*
X91182Y102866D01*
X91065Y101980D01*
X91182Y101094D01*
X91524Y100269D01*
X92068Y99560D01*
X92777Y99016D01*
X93602Y98674D01*
X94488Y98557D01*
X95374Y98674D01*
X96200Y99016D01*
X96909Y99560D01*
X97453Y100269D01*
X97795Y101094D01*
X97911Y101980D01*
X97795Y102866D01*
X97453Y103692D01*
X96909Y104401D01*
X96200Y104945D01*
X95374Y105287D01*
X94863Y105354D01*
X94589Y105390D01*
X94621Y105890D01*
X99443D01*
X101575Y103758D01*
X101524Y103692D01*
X101182Y102866D01*
X101065Y101980D01*
X101182Y101094D01*
X101524Y100269D01*
X102068Y99560D01*
X102777Y99016D01*
X103602Y98674D01*
X104488Y98557D01*
X105374Y98674D01*
X106200Y99016D01*
X106909Y99560D01*
X107453Y100269D01*
X107794Y101094D01*
X107911Y101980D01*
X107794Y102866D01*
X107453Y103692D01*
X106909Y104401D01*
X106200Y104945D01*
X105374Y105287D01*
X104488Y105403D01*
X103602Y105287D01*
X102777Y104945D01*
X102710Y104894D01*
X100343Y107261D01*
X100083Y107435D01*
X99776Y107496D01*
X91321D01*
X88992Y109825D01*
Y114567D01*
X88992Y114567D01*
X88931Y114874D01*
X88757Y115135D01*
X88757Y115135D01*
X66316Y137576D01*
X66055Y137750D01*
X65748Y137811D01*
X15708D01*
X15354Y138164D01*
Y138484D01*
X15354Y139001D01*
X15708Y139355D01*
X65809D01*
X88409Y116755D01*
X88409Y116755D01*
X88669Y116581D01*
X88976Y116520D01*
X88976Y116520D01*
X98813D01*
X101575Y113758D01*
X101524Y113692D01*
X101182Y112866D01*
X101065Y111980D01*
X101182Y111094D01*
X101524Y110269D01*
X102068Y109560D01*
X102777Y109016D01*
X103602Y108674D01*
X104488Y108557D01*
X105374Y108674D01*
X106200Y109016D01*
X106909Y109560D01*
X107453Y110269D01*
X107794Y111094D01*
X107911Y111980D01*
X107794Y112866D01*
X107453Y113692D01*
X106909Y114401D01*
X106200Y114945D01*
X105374Y115287D01*
X104488Y115403D01*
X103602Y115287D01*
X102777Y114945D01*
X102710Y114894D01*
X99713Y117891D01*
X99453Y118065D01*
X99146Y118126D01*
X89309D01*
X66709Y140725D01*
X66449Y140899D01*
X66142Y140960D01*
X16329D01*
X15945Y141240D01*
Y142913D01*
D02*
G37*
G36*
X118455Y111587D02*
X114882D01*
Y108013D01*
X115528Y108099D01*
X116498Y108500D01*
X117330Y109139D01*
X117968Y109971D01*
X118370Y110940D01*
X118455Y111587D01*
D02*
G37*
G36*
X114094D02*
X110521D01*
X110607Y110940D01*
X111008Y109971D01*
X111647Y109139D01*
X112479Y108500D01*
X113448Y108099D01*
X114094Y108013D01*
Y111587D01*
D02*
G37*
G36*
X164653Y111781D02*
X163780Y111666D01*
X162966Y111328D01*
X162267Y110792D01*
X161730Y110093D01*
X161393Y109279D01*
X161278Y108405D01*
X161393Y107532D01*
X161730Y106718D01*
X162267Y106019D01*
X162966Y105482D01*
X163780Y105145D01*
X164653Y105030D01*
X165527Y105145D01*
X166341Y105482D01*
X167040Y106019D01*
X167577Y106718D01*
X167914Y107532D01*
X168029Y108405D01*
X167914Y109279D01*
X167577Y110093D01*
X167040Y110792D01*
X166341Y111328D01*
X165527Y111666D01*
X164653Y111781D01*
D02*
G37*
G36*
X114882Y105947D02*
Y102374D01*
X118455D01*
X118370Y103020D01*
X117968Y103990D01*
X117330Y104822D01*
X116498Y105461D01*
X115528Y105862D01*
X114882Y105947D01*
D02*
G37*
G36*
X114094D02*
X113448Y105862D01*
X112479Y105461D01*
X111647Y104822D01*
X111008Y103990D01*
X110607Y103020D01*
X110521Y102374D01*
X114094D01*
Y105947D01*
D02*
G37*
G36*
X153473Y106329D02*
X152599Y106214D01*
X151785Y105876D01*
X151086Y105340D01*
X150549Y104641D01*
X150212Y103827D01*
X150097Y102953D01*
X150212Y102080D01*
X150549Y101266D01*
X151086Y100567D01*
X151785Y100030D01*
X152599Y99693D01*
X153473Y99578D01*
X154346Y99693D01*
X155160Y100030D01*
X155859Y100567D01*
X156396Y101266D01*
X156733Y102080D01*
X156848Y102953D01*
X156733Y103827D01*
X156396Y104641D01*
X155859Y105340D01*
X155160Y105876D01*
X154346Y106214D01*
X153473Y106329D01*
D02*
G37*
G36*
X118455Y101587D02*
X114882D01*
Y98014D01*
X115528Y98099D01*
X116498Y98500D01*
X117330Y99139D01*
X117968Y99971D01*
X118370Y100940D01*
X118455Y101587D01*
D02*
G37*
G36*
X114094D02*
X110521D01*
X110607Y100940D01*
X111008Y99971D01*
X111647Y99139D01*
X112479Y98500D01*
X113448Y98099D01*
X114094Y98014D01*
Y101587D01*
D02*
G37*
G36*
X165047Y101419D02*
Y97894D01*
X168572D01*
X168489Y98528D01*
X168092Y99486D01*
X167461Y100308D01*
X166639Y100939D01*
X165681Y101336D01*
X165047Y101419D01*
D02*
G37*
G36*
X164260D02*
X163626Y101336D01*
X162668Y100939D01*
X161846Y100308D01*
X161214Y99486D01*
X160818Y98528D01*
X160734Y97894D01*
X164260D01*
Y101419D01*
D02*
G37*
G36*
X168572Y97107D02*
X165047D01*
Y93581D01*
X165681Y93665D01*
X166639Y94061D01*
X167461Y94692D01*
X168092Y95515D01*
X168489Y96473D01*
X168572Y97107D01*
D02*
G37*
G36*
X164260D02*
X160734D01*
X160818Y96473D01*
X161214Y95515D01*
X161846Y94692D01*
X162668Y94061D01*
X163626Y93665D01*
X164260Y93581D01*
Y97107D01*
D02*
G37*
G36*
X153866Y95966D02*
Y92441D01*
X157392D01*
X157308Y93075D01*
X156912Y94033D01*
X156281Y94855D01*
X155458Y95486D01*
X154500Y95883D01*
X153866Y95966D01*
D02*
G37*
G36*
X153079D02*
X152445Y95883D01*
X151487Y95486D01*
X150665Y94855D01*
X150034Y94033D01*
X149637Y93075D01*
X149553Y92441D01*
X153079D01*
Y95966D01*
D02*
G37*
G36*
X114882Y95947D02*
Y92374D01*
X118455D01*
X118370Y93020D01*
X117968Y93990D01*
X117330Y94822D01*
X116498Y95461D01*
X115528Y95862D01*
X114882Y95947D01*
D02*
G37*
G36*
X114094D02*
X113448Y95862D01*
X112479Y95461D01*
X111647Y94822D01*
X111008Y93990D01*
X110607Y93020D01*
X110521Y92374D01*
X114094D01*
Y95947D01*
D02*
G37*
G36*
X15945Y133465D02*
X9449D01*
X2953D01*
Y131791D01*
X3543D01*
Y129535D01*
X3543Y129232D01*
X3543Y128732D01*
Y126476D01*
X2953D01*
Y124803D01*
X9449D01*
X15945D01*
Y126476D01*
X16329Y126756D01*
X60691D01*
X85024Y102423D01*
Y92913D01*
X85085Y92606D01*
X85259Y92346D01*
X91165Y86440D01*
X91165Y86440D01*
X91425Y86266D01*
X91732Y86205D01*
X91732Y86205D01*
X99128D01*
X101575Y83758D01*
X101524Y83692D01*
X101182Y82866D01*
X101065Y81980D01*
X101182Y81094D01*
X101524Y80269D01*
X102068Y79560D01*
X102777Y79016D01*
X103602Y78674D01*
X104488Y78557D01*
X105374Y78674D01*
X106200Y79016D01*
X106909Y79560D01*
X107453Y80269D01*
X107794Y81094D01*
X107911Y81980D01*
X107794Y82866D01*
X107453Y83692D01*
X106909Y84401D01*
X106200Y84945D01*
X105374Y85287D01*
X104488Y85403D01*
X103602Y85287D01*
X102777Y84945D01*
X102710Y84894D01*
X100028Y87576D01*
X99768Y87750D01*
X99461Y87811D01*
X92065D01*
X86630Y93246D01*
Y102756D01*
X86630Y102756D01*
X86568Y103063D01*
X86395Y103324D01*
X86394Y103324D01*
X61591Y128127D01*
X61331Y128301D01*
X61024Y128362D01*
X15708D01*
X15354Y128716D01*
Y129035D01*
X15354Y129552D01*
X15708Y129906D01*
X61872D01*
X87780Y103998D01*
Y99213D01*
X87841Y98905D01*
X88015Y98645D01*
X90377Y96283D01*
X90638Y96109D01*
X90945Y96048D01*
X90945Y96048D01*
X99286D01*
X101575Y93758D01*
X101524Y93692D01*
X101182Y92866D01*
X101065Y91980D01*
X101182Y91094D01*
X101524Y90269D01*
X102068Y89560D01*
X102777Y89016D01*
X103602Y88674D01*
X104488Y88557D01*
X105374Y88674D01*
X106200Y89016D01*
X106909Y89560D01*
X107453Y90269D01*
X107794Y91094D01*
X107911Y91980D01*
X107794Y92866D01*
X107453Y93692D01*
X106909Y94401D01*
X106200Y94945D01*
X105374Y95287D01*
X104488Y95403D01*
X103602Y95287D01*
X102777Y94945D01*
X102710Y94894D01*
X100186Y97418D01*
X99925Y97592D01*
X99618Y97653D01*
X91277D01*
X89385Y99545D01*
Y104331D01*
X89385Y104331D01*
X89324Y104638D01*
X89150Y104898D01*
X62772Y131276D01*
X62512Y131450D01*
X62205Y131511D01*
X16329D01*
X15945Y131791D01*
Y133465D01*
D02*
G37*
G36*
X94488Y95403D02*
X93602Y95287D01*
X92777Y94945D01*
X92068Y94401D01*
X91524Y93692D01*
X91182Y92866D01*
X91065Y91980D01*
X91182Y91094D01*
X91524Y90269D01*
X92068Y89560D01*
X92777Y89016D01*
X93602Y88674D01*
X94488Y88557D01*
X95374Y88674D01*
X96200Y89016D01*
X96909Y89560D01*
X97453Y90269D01*
X97795Y91094D01*
X97911Y91980D01*
X97795Y92866D01*
X97453Y93692D01*
X96909Y94401D01*
X96200Y94945D01*
X95374Y95287D01*
X94488Y95403D01*
D02*
G37*
G36*
X157392Y91654D02*
X153866D01*
Y88128D01*
X154500Y88212D01*
X155458Y88608D01*
X156281Y89239D01*
X156912Y90062D01*
X157308Y91020D01*
X157392Y91654D01*
D02*
G37*
G36*
X153079D02*
X149553D01*
X149637Y91020D01*
X150034Y90062D01*
X150665Y89239D01*
X151487Y88608D01*
X152445Y88212D01*
X153079Y88128D01*
Y91654D01*
D02*
G37*
G36*
X118455Y91587D02*
X114882D01*
Y88013D01*
X115528Y88099D01*
X116498Y88500D01*
X117330Y89139D01*
X117968Y89971D01*
X118370Y90940D01*
X118455Y91587D01*
D02*
G37*
G36*
X114094D02*
X110521D01*
X110607Y90940D01*
X111008Y89971D01*
X111647Y89139D01*
X112479Y88500D01*
X113448Y88099D01*
X114094Y88013D01*
Y91587D01*
D02*
G37*
G36*
X164653Y89970D02*
X163780Y89855D01*
X162966Y89517D01*
X162267Y88981D01*
X161730Y88282D01*
X161393Y87468D01*
X161278Y86594D01*
X161393Y85721D01*
X161730Y84907D01*
X162267Y84208D01*
X162966Y83671D01*
X163780Y83334D01*
X164653Y83219D01*
X165527Y83334D01*
X166341Y83671D01*
X167040Y84208D01*
X167577Y84907D01*
X167914Y85721D01*
X168029Y86594D01*
X167914Y87468D01*
X167577Y88282D01*
X167040Y88981D01*
X166341Y89517D01*
X165527Y89855D01*
X164653Y89970D01*
D02*
G37*
G36*
X114882Y85947D02*
Y82374D01*
X118455D01*
X118370Y83020D01*
X117968Y83990D01*
X117330Y84822D01*
X116498Y85461D01*
X115528Y85862D01*
X114882Y85947D01*
D02*
G37*
G36*
X114094D02*
X113448Y85862D01*
X112479Y85461D01*
X111647Y84822D01*
X111008Y83990D01*
X110607Y83020D01*
X110521Y82374D01*
X114094D01*
Y85947D01*
D02*
G37*
G36*
X153866Y85062D02*
Y81536D01*
X157392D01*
X157308Y82170D01*
X156912Y83128D01*
X156281Y83950D01*
X155458Y84581D01*
X154500Y84978D01*
X153866Y85062D01*
D02*
G37*
G36*
X153079D02*
X152445Y84978D01*
X151487Y84581D01*
X150665Y83950D01*
X150034Y83128D01*
X149637Y82170D01*
X149553Y81536D01*
X153079D01*
Y85062D01*
D02*
G37*
G36*
X94488Y85403D02*
X93602Y85287D01*
X92777Y84945D01*
X92068Y84401D01*
X91524Y83692D01*
X91182Y82866D01*
X91065Y81980D01*
X91182Y81094D01*
X91524Y80269D01*
X92068Y79560D01*
X92777Y79016D01*
X93602Y78674D01*
X94488Y78557D01*
X95374Y78674D01*
X96200Y79016D01*
X96909Y79560D01*
X97453Y80269D01*
X97795Y81094D01*
X97911Y81980D01*
X97795Y82866D01*
X97453Y83692D01*
X96909Y84401D01*
X96200Y84945D01*
X95374Y85287D01*
X94488Y85403D01*
D02*
G37*
G36*
X118455Y81587D02*
X114882D01*
Y78013D01*
X115528Y78099D01*
X116498Y78500D01*
X117330Y79139D01*
X117968Y79971D01*
X118370Y80940D01*
X118455Y81587D01*
D02*
G37*
G36*
X114094D02*
X110521D01*
X110607Y80940D01*
X111008Y79971D01*
X111647Y79139D01*
X112479Y78500D01*
X113448Y78099D01*
X114094Y78013D01*
Y81587D01*
D02*
G37*
G36*
X157392Y80749D02*
X153866D01*
Y77223D01*
X154500Y77307D01*
X155458Y77703D01*
X156281Y78334D01*
X156912Y79157D01*
X157308Y80115D01*
X157392Y80749D01*
D02*
G37*
G36*
X153079D02*
X149553D01*
X149637Y80115D01*
X150034Y79157D01*
X150665Y78334D01*
X151487Y77703D01*
X152445Y77307D01*
X153079Y77223D01*
Y80749D01*
D02*
G37*
G36*
X114882Y75947D02*
Y72374D01*
X118455D01*
X118370Y73020D01*
X117968Y73990D01*
X117330Y74822D01*
X116498Y75461D01*
X115528Y75862D01*
X114882Y75947D01*
D02*
G37*
G36*
X114094D02*
X113448Y75862D01*
X112479Y75461D01*
X111647Y74822D01*
X111008Y73990D01*
X110607Y73020D01*
X110521Y72374D01*
X114094D01*
Y75947D01*
D02*
G37*
G36*
X164653Y79065D02*
X163780Y78950D01*
X162966Y78612D01*
X162267Y78076D01*
X161730Y77377D01*
X161393Y76563D01*
X161278Y75689D01*
X161393Y74816D01*
X161730Y74002D01*
X162267Y73303D01*
X162966Y72766D01*
X163780Y72429D01*
X164653Y72314D01*
X165527Y72429D01*
X166341Y72766D01*
X167040Y73303D01*
X167577Y74002D01*
X167914Y74816D01*
X168029Y75689D01*
X167914Y76563D01*
X167577Y77377D01*
X167040Y78076D01*
X166341Y78612D01*
X165527Y78950D01*
X164653Y79065D01*
D02*
G37*
G36*
X153866Y74155D02*
Y70630D01*
X157392D01*
X157308Y71264D01*
X156912Y72222D01*
X156281Y73044D01*
X155458Y73675D01*
X154500Y74072D01*
X153866Y74155D01*
D02*
G37*
G36*
X153079D02*
X152445Y74072D01*
X151487Y73675D01*
X150665Y73044D01*
X150034Y72222D01*
X149637Y71264D01*
X149553Y70630D01*
X153079D01*
Y74155D01*
D02*
G37*
G36*
X15945Y124016D02*
X9449D01*
X2953D01*
Y122343D01*
X3543D01*
Y120087D01*
X3543Y119783D01*
X3543Y119283D01*
Y117028D01*
X2953D01*
Y115354D01*
X9449D01*
X15945D01*
Y117028D01*
X16329Y117307D01*
X61478D01*
X77937Y100849D01*
Y81515D01*
X77998Y81208D01*
X78172Y80947D01*
X92758Y66361D01*
X93019Y66187D01*
X93326Y66126D01*
X93326Y66126D01*
X99207D01*
X101575Y63758D01*
X101524Y63692D01*
X101182Y62866D01*
X101065Y61980D01*
X101182Y61094D01*
X101524Y60269D01*
X102068Y59560D01*
X102777Y59016D01*
X103602Y58674D01*
X104488Y58557D01*
X105374Y58674D01*
X106200Y59016D01*
X106909Y59560D01*
X107453Y60269D01*
X107794Y61094D01*
X107911Y61980D01*
X107794Y62866D01*
X107453Y63692D01*
X106909Y64401D01*
X106200Y64945D01*
X105374Y65287D01*
X104488Y65403D01*
X103602Y65287D01*
X102777Y64945D01*
X102710Y64894D01*
X100107Y67497D01*
X99847Y67671D01*
X99539Y67732D01*
X93658D01*
X93014Y68377D01*
X93297Y68800D01*
X93602Y68674D01*
X94488Y68557D01*
X95374Y68674D01*
X96200Y69016D01*
X96909Y69560D01*
X97453Y70269D01*
X97795Y71094D01*
X97911Y71980D01*
X97795Y72866D01*
X97453Y73692D01*
X96909Y74401D01*
X96200Y74945D01*
X95374Y75287D01*
X94488Y75403D01*
X93602Y75287D01*
X92777Y74945D01*
X92068Y74401D01*
X91524Y73692D01*
X91182Y72866D01*
X91065Y71980D01*
X91182Y71094D01*
X91308Y70789D01*
X90884Y70506D01*
X79543Y81847D01*
Y101181D01*
X79482Y101488D01*
X79308Y101749D01*
X62379Y118678D01*
X62118Y118852D01*
X61811Y118913D01*
X15708D01*
X15354Y119267D01*
Y119587D01*
X15354Y120104D01*
X15708Y120457D01*
X62266D01*
X81481Y101242D01*
Y87008D01*
X81542Y86701D01*
X81716Y86440D01*
X91952Y76204D01*
X91952Y76204D01*
X92212Y76030D01*
X92520Y75969D01*
X92520Y75969D01*
X99364D01*
X101575Y73758D01*
X101524Y73692D01*
X101182Y72866D01*
X101065Y71980D01*
X101182Y71094D01*
X101524Y70269D01*
X102068Y69560D01*
X102777Y69016D01*
X103602Y68674D01*
X104488Y68557D01*
X105374Y68674D01*
X106200Y69016D01*
X106909Y69560D01*
X107453Y70269D01*
X107794Y71094D01*
X107911Y71980D01*
X107794Y72866D01*
X107453Y73692D01*
X106909Y74401D01*
X106200Y74945D01*
X105374Y75287D01*
X104488Y75403D01*
X103602Y75287D01*
X102777Y74945D01*
X102710Y74894D01*
X100265Y77339D01*
X100004Y77513D01*
X99697Y77574D01*
X92852D01*
X83086Y87340D01*
Y101575D01*
X83086Y101575D01*
X83025Y101882D01*
X82851Y102143D01*
X63166Y121828D01*
X62906Y122002D01*
X62598Y122063D01*
X16329D01*
X15945Y122343D01*
Y124016D01*
D02*
G37*
G36*
X118455Y71587D02*
X114882D01*
Y68014D01*
X115528Y68099D01*
X116498Y68500D01*
X117330Y69139D01*
X117968Y69971D01*
X118370Y70940D01*
X118455Y71587D01*
D02*
G37*
G36*
X114094D02*
X110521D01*
X110607Y70940D01*
X111008Y69971D01*
X111647Y69139D01*
X112479Y68500D01*
X113448Y68099D01*
X114094Y68014D01*
Y71587D01*
D02*
G37*
G36*
X157392Y69843D02*
X153866D01*
Y66317D01*
X154500Y66401D01*
X155458Y66797D01*
X156281Y67428D01*
X156912Y68251D01*
X157308Y69209D01*
X157392Y69843D01*
D02*
G37*
G36*
X153079D02*
X149553D01*
X149637Y69209D01*
X150034Y68251D01*
X150665Y67428D01*
X151487Y66797D01*
X152445Y66401D01*
X153079Y66317D01*
Y69843D01*
D02*
G37*
G36*
X165047Y68702D02*
Y65177D01*
X168572D01*
X168489Y65811D01*
X168092Y66769D01*
X167461Y67591D01*
X166639Y68222D01*
X165681Y68619D01*
X165047Y68702D01*
D02*
G37*
G36*
X164260D02*
X163626Y68619D01*
X162668Y68222D01*
X161846Y67591D01*
X161214Y66769D01*
X160818Y65811D01*
X160734Y65177D01*
X164260D01*
Y68702D01*
D02*
G37*
G36*
X114882Y65947D02*
Y62374D01*
X118455D01*
X118370Y63020D01*
X117968Y63990D01*
X117330Y64822D01*
X116498Y65461D01*
X115528Y65862D01*
X114882Y65947D01*
D02*
G37*
G36*
X114094D02*
X113448Y65862D01*
X112479Y65461D01*
X111647Y64822D01*
X111008Y63990D01*
X110607Y63020D01*
X110521Y62374D01*
X114094D01*
Y65947D01*
D02*
G37*
G36*
X168572Y64390D02*
X165047D01*
Y60864D01*
X165681Y60948D01*
X166639Y61344D01*
X167461Y61975D01*
X168092Y62798D01*
X168489Y63756D01*
X168572Y64390D01*
D02*
G37*
G36*
X164260D02*
X160734D01*
X160818Y63756D01*
X161214Y62798D01*
X161846Y61975D01*
X162668Y61344D01*
X163626Y60948D01*
X164260Y60864D01*
Y64390D01*
D02*
G37*
G36*
X94488Y65403D02*
X93602Y65287D01*
X92777Y64945D01*
X92068Y64401D01*
X91524Y63692D01*
X91182Y62866D01*
X91065Y61980D01*
X91182Y61094D01*
X91524Y60269D01*
X92068Y59560D01*
X92777Y59016D01*
X93602Y58674D01*
X94488Y58557D01*
X95374Y58674D01*
X96200Y59016D01*
X96909Y59560D01*
X97453Y60269D01*
X97795Y61094D01*
X97911Y61980D01*
X97795Y62866D01*
X97453Y63692D01*
X96909Y64401D01*
X96200Y64945D01*
X95374Y65287D01*
X94488Y65403D01*
D02*
G37*
G36*
X118455Y61587D02*
X114882D01*
Y58013D01*
X115528Y58099D01*
X116498Y58500D01*
X117330Y59139D01*
X117968Y59971D01*
X118370Y60940D01*
X118455Y61587D01*
D02*
G37*
G36*
X114094D02*
X110521D01*
X110607Y60940D01*
X111008Y59971D01*
X111647Y59139D01*
X112479Y58500D01*
X113448Y58099D01*
X114094Y58013D01*
Y61587D01*
D02*
G37*
G36*
X153473Y62707D02*
X152599Y62592D01*
X151785Y62254D01*
X151086Y61718D01*
X150549Y61019D01*
X150212Y60205D01*
X150097Y59331D01*
X150212Y58458D01*
X150549Y57644D01*
X151086Y56945D01*
X151785Y56408D01*
X152599Y56071D01*
X153473Y55956D01*
X154346Y56071D01*
X155160Y56408D01*
X155859Y56945D01*
X156396Y57644D01*
X156733Y58458D01*
X156848Y59331D01*
X156733Y60205D01*
X156396Y61019D01*
X155859Y61718D01*
X155160Y62254D01*
X154346Y62592D01*
X153473Y62707D01*
D02*
G37*
G36*
X114488Y55403D02*
X113602Y55287D01*
X112777Y54945D01*
X112068Y54401D01*
X111524Y53692D01*
X111182Y52866D01*
X111065Y51980D01*
X111182Y51094D01*
X111524Y50269D01*
X112068Y49560D01*
X112777Y49016D01*
X113602Y48674D01*
X114488Y48557D01*
X115374Y48674D01*
X116200Y49016D01*
X116909Y49560D01*
X117453Y50269D01*
X117795Y51094D01*
X117911Y51980D01*
X117795Y52866D01*
X117453Y53692D01*
X116909Y54401D01*
X116200Y54945D01*
X115374Y55287D01*
X114488Y55403D01*
D02*
G37*
G36*
X15945Y114567D02*
X9449D01*
X2953D01*
Y112894D01*
X3543D01*
Y110638D01*
X3543Y110335D01*
X3543Y109835D01*
Y107579D01*
X2953D01*
Y105906D01*
X9449D01*
X15945D01*
Y107579D01*
X16329Y107859D01*
X62660D01*
X70851Y99667D01*
Y81496D01*
X70912Y81189D01*
X71086Y80928D01*
X85418Y66597D01*
Y53150D01*
X85479Y52842D01*
X85653Y52582D01*
X91952Y46283D01*
X91952Y46283D01*
X92212Y46109D01*
X92520Y46048D01*
X99286D01*
X101575Y43758D01*
X101524Y43692D01*
X101182Y42866D01*
X101065Y41980D01*
X101182Y41094D01*
X101524Y40269D01*
X102068Y39560D01*
X102777Y39016D01*
X103602Y38674D01*
X104488Y38557D01*
X105374Y38674D01*
X106200Y39016D01*
X106909Y39560D01*
X107453Y40269D01*
X107794Y41094D01*
X107911Y41980D01*
X107794Y42866D01*
X107453Y43692D01*
X106909Y44401D01*
X106200Y44945D01*
X105374Y45287D01*
X104488Y45403D01*
X103602Y45287D01*
X102777Y44945D01*
X102710Y44894D01*
X100186Y47418D01*
X99925Y47592D01*
X99618Y47653D01*
X92852D01*
X87023Y53482D01*
Y66929D01*
X86962Y67236D01*
X86788Y67497D01*
X72456Y81829D01*
Y100000D01*
X72456Y100000D01*
X72395Y100307D01*
X72221Y100568D01*
X63560Y109229D01*
X63299Y109403D01*
X62992Y109464D01*
X15708D01*
X15354Y109818D01*
Y110138D01*
X15354Y110655D01*
X15708Y111008D01*
X63841D01*
X74394Y100455D01*
Y81102D01*
X74455Y80795D01*
X74629Y80535D01*
X88567Y66597D01*
Y59449D01*
X88628Y59142D01*
X88802Y58881D01*
X91558Y56125D01*
X91558Y56125D01*
X91819Y55951D01*
X92126Y55890D01*
X92126Y55890D01*
X94355D01*
X94388Y55390D01*
X94113Y55354D01*
X93602Y55287D01*
X92777Y54945D01*
X92068Y54401D01*
X91524Y53692D01*
X91182Y52866D01*
X91065Y51980D01*
X91182Y51094D01*
X91524Y50269D01*
X92068Y49560D01*
X92777Y49016D01*
X93602Y48674D01*
X94488Y48557D01*
X95374Y48674D01*
X96200Y49016D01*
X96909Y49560D01*
X97453Y50269D01*
X97795Y51094D01*
X97911Y51980D01*
X97795Y52866D01*
X97453Y53692D01*
X96909Y54401D01*
X96200Y54945D01*
X95374Y55287D01*
X94863Y55354D01*
X94589Y55390D01*
X94621Y55890D01*
X99443D01*
X101575Y53758D01*
X101524Y53692D01*
X101182Y52866D01*
X101065Y51980D01*
X101182Y51094D01*
X101524Y50269D01*
X102068Y49560D01*
X102777Y49016D01*
X103602Y48674D01*
X104488Y48557D01*
X105374Y48674D01*
X106200Y49016D01*
X106909Y49560D01*
X107453Y50269D01*
X107794Y51094D01*
X107911Y51980D01*
X107794Y52866D01*
X107453Y53692D01*
X106909Y54401D01*
X106200Y54945D01*
X105374Y55287D01*
X104488Y55403D01*
X103602Y55287D01*
X102777Y54945D01*
X102710Y54894D01*
X100343Y57261D01*
X100083Y57435D01*
X99776Y57496D01*
X92458D01*
X90173Y59781D01*
Y66929D01*
X90112Y67236D01*
X89938Y67497D01*
X89938Y67497D01*
X76000Y81435D01*
Y100787D01*
X76000Y100787D01*
X75939Y101095D01*
X75765Y101355D01*
X64741Y112379D01*
X64480Y112553D01*
X64173Y112614D01*
X16329D01*
X15945Y112894D01*
Y114567D01*
D02*
G37*
G36*
Y95669D02*
X9449D01*
X2953D01*
Y93996D01*
X3543D01*
Y91740D01*
X3543Y91437D01*
X3543Y90937D01*
Y88287D01*
X15354D01*
Y88961D01*
X55573D01*
X57855Y86679D01*
X57609Y86218D01*
X57480Y86244D01*
X57020Y86152D01*
X56629Y85891D01*
X56368Y85500D01*
X56276Y85039D01*
X56368Y84579D01*
X56629Y84188D01*
X57020Y83927D01*
X57480Y83835D01*
X57941Y83927D01*
X58332Y84188D01*
X58364Y84237D01*
X60221D01*
Y78347D01*
X60282Y78039D01*
X60456Y77779D01*
X72426Y65809D01*
Y47244D01*
X72487Y46937D01*
X72661Y46676D01*
X79906Y39431D01*
Y22835D01*
X79967Y22527D01*
X80141Y22267D01*
X90377Y12031D01*
X90638Y11857D01*
X90945Y11796D01*
X108268D01*
X108575Y11857D01*
X108835Y12031D01*
X115056Y18251D01*
X115230Y18512D01*
X115259Y18659D01*
X115374Y18674D01*
X116200Y19016D01*
X116909Y19560D01*
X117453Y20269D01*
X117795Y21094D01*
X117911Y21980D01*
X117795Y22866D01*
X117453Y23692D01*
X116909Y24401D01*
X116200Y24945D01*
X115374Y25287D01*
X114488Y25403D01*
X113602Y25287D01*
X112777Y24945D01*
X112068Y24401D01*
X111524Y23692D01*
X111182Y22866D01*
X111065Y21980D01*
X111182Y21094D01*
X111524Y20269D01*
X112068Y19560D01*
X112777Y19016D01*
X112908Y18962D01*
X113005Y18471D01*
X107935Y13401D01*
X91277D01*
X81511Y23167D01*
Y39764D01*
X81511Y39764D01*
X81450Y40071D01*
X81276Y40332D01*
X81276Y40332D01*
X74031Y47577D01*
Y66142D01*
X73970Y66449D01*
X73796Y66709D01*
X73796Y66709D01*
X61826Y78679D01*
Y84646D01*
X61765Y84953D01*
X61591Y85213D01*
X56473Y90331D01*
X56213Y90505D01*
X55906Y90566D01*
X15708D01*
X15354Y90920D01*
Y91240D01*
X15354Y91757D01*
X15708Y92111D01*
X58329D01*
X62583Y87856D01*
Y79134D01*
X62644Y78827D01*
X62818Y78566D01*
X75969Y65416D01*
Y48425D01*
X76030Y48118D01*
X76204Y47857D01*
X82662Y41400D01*
Y24016D01*
X82723Y23708D01*
X82897Y23448D01*
X91558Y14787D01*
X91558Y14787D01*
X91819Y14613D01*
X92126Y14551D01*
X106693D01*
X107000Y14613D01*
X107261Y14787D01*
X110017Y17542D01*
X110017Y17542D01*
X110190Y17803D01*
X110252Y18110D01*
X110252Y18110D01*
Y36608D01*
X112710Y39067D01*
X112777Y39016D01*
X113602Y38674D01*
X114488Y38557D01*
X115374Y38674D01*
X116200Y39016D01*
X116909Y39560D01*
X117453Y40269D01*
X117795Y41094D01*
X117911Y41980D01*
X117795Y42866D01*
X117453Y43692D01*
X116909Y44401D01*
X116200Y44945D01*
X115374Y45287D01*
X114488Y45403D01*
X113602Y45287D01*
X112777Y44945D01*
X112068Y44401D01*
X111524Y43692D01*
X111182Y42866D01*
X111065Y41980D01*
X111182Y41094D01*
X111524Y40269D01*
X111575Y40202D01*
X108881Y37509D01*
X108707Y37248D01*
X108646Y36941D01*
Y18443D01*
X106360Y16157D01*
X92458D01*
X84267Y24348D01*
Y41732D01*
X84267Y41732D01*
X84206Y42039D01*
X84032Y42300D01*
X77574Y48758D01*
Y65748D01*
X77574Y65748D01*
X77513Y66055D01*
X77339Y66316D01*
X64189Y79466D01*
Y88189D01*
X64127Y88496D01*
X63954Y88757D01*
X59229Y93481D01*
X58969Y93655D01*
X58661Y93716D01*
X16329D01*
X15945Y93996D01*
Y95669D01*
D02*
G37*
G36*
X94488Y45403D02*
X93602Y45287D01*
X92777Y44945D01*
X92068Y44401D01*
X91524Y43692D01*
X91182Y42866D01*
X91065Y41980D01*
X91182Y41094D01*
X91524Y40269D01*
X92068Y39560D01*
X92777Y39016D01*
X93602Y38674D01*
X94488Y38557D01*
X95374Y38674D01*
X96200Y39016D01*
X96909Y39560D01*
X97453Y40269D01*
X97795Y41094D01*
X97911Y41980D01*
X97795Y42866D01*
X97453Y43692D01*
X96909Y44401D01*
X96200Y44945D01*
X95374Y45287D01*
X94488Y45403D01*
D02*
G37*
G36*
X114488Y35403D02*
X113602Y35287D01*
X112777Y34945D01*
X112068Y34401D01*
X111524Y33692D01*
X111182Y32866D01*
X111065Y31980D01*
X111182Y31094D01*
X111524Y30269D01*
X112068Y29560D01*
X112777Y29016D01*
X113602Y28674D01*
X114488Y28557D01*
X115374Y28674D01*
X116200Y29016D01*
X116909Y29560D01*
X117453Y30269D01*
X117795Y31094D01*
X117911Y31980D01*
X117795Y32866D01*
X117453Y33692D01*
X116909Y34401D01*
X116200Y34945D01*
X115374Y35287D01*
X114488Y35403D01*
D02*
G37*
G36*
X15945Y105118D02*
X9449D01*
X2953D01*
Y103445D01*
X3543D01*
Y101189D01*
X3543Y100886D01*
X3543Y100386D01*
Y98130D01*
X2953D01*
Y96457D01*
X9449D01*
X15945D01*
Y98130D01*
X16329Y98410D01*
X61872D01*
X64945Y95337D01*
Y79921D01*
X65006Y79614D01*
X65180Y79354D01*
X79118Y65416D01*
Y49606D01*
X79180Y49299D01*
X79354Y49039D01*
X85418Y42974D01*
Y30315D01*
X85479Y30008D01*
X85653Y29747D01*
X89196Y26204D01*
X89196Y26204D01*
X89457Y26030D01*
X89764Y25969D01*
X89764Y25969D01*
X99364D01*
X101575Y23758D01*
X101524Y23692D01*
X101182Y22866D01*
X101065Y21980D01*
X101182Y21094D01*
X101524Y20269D01*
X102068Y19560D01*
X102777Y19016D01*
X103602Y18674D01*
X104488Y18557D01*
X105374Y18674D01*
X106200Y19016D01*
X106909Y19560D01*
X107453Y20269D01*
X107794Y21094D01*
X107911Y21980D01*
X107794Y22866D01*
X107453Y23692D01*
X106909Y24401D01*
X106200Y24945D01*
X105374Y25287D01*
X104488Y25403D01*
X103602Y25287D01*
X102777Y24945D01*
X102710Y24894D01*
X100265Y27339D01*
X100004Y27513D01*
X99697Y27575D01*
X90096D01*
X87023Y30648D01*
Y43307D01*
X87023Y43307D01*
X86962Y43614D01*
X86788Y43875D01*
X80724Y49939D01*
Y65748D01*
X80663Y66055D01*
X80489Y66316D01*
X80489Y66316D01*
X66551Y80254D01*
Y95669D01*
X66551Y95669D01*
X66490Y95977D01*
X66316Y96237D01*
X66316Y96237D01*
X62772Y99780D01*
X62512Y99954D01*
X62205Y100015D01*
X15708D01*
X15354Y100369D01*
Y100689D01*
X15354Y101206D01*
X15708Y101559D01*
X64234D01*
X67701Y98093D01*
Y81102D01*
X67762Y80795D01*
X67936Y80535D01*
X82268Y66203D01*
Y51181D01*
X82329Y50874D01*
X82503Y50613D01*
X88174Y44943D01*
Y39764D01*
X88235Y39456D01*
X88409Y39196D01*
X91165Y36440D01*
X91165Y36440D01*
X91425Y36266D01*
X91732Y36205D01*
X91732Y36205D01*
X99128D01*
X101575Y33758D01*
X101524Y33692D01*
X101182Y32866D01*
X101065Y31980D01*
X101182Y31094D01*
X101524Y30269D01*
X102068Y29560D01*
X102777Y29016D01*
X103602Y28674D01*
X104488Y28557D01*
X105374Y28674D01*
X106200Y29016D01*
X106909Y29560D01*
X107453Y30269D01*
X107794Y31094D01*
X107911Y31980D01*
X107794Y32866D01*
X107453Y33692D01*
X106909Y34401D01*
X106200Y34945D01*
X105374Y35287D01*
X104488Y35403D01*
X103602Y35287D01*
X102777Y34945D01*
X102710Y34894D01*
X100028Y37576D01*
X99768Y37750D01*
X99461Y37811D01*
X92065D01*
X89779Y40096D01*
Y45276D01*
X89718Y45583D01*
X89544Y45843D01*
X89544Y45843D01*
X83874Y51514D01*
Y66535D01*
X83813Y66843D01*
X83639Y67103D01*
X69307Y81435D01*
Y98425D01*
X69307Y98425D01*
X69246Y98732D01*
X69072Y98993D01*
X69072Y98993D01*
X65135Y102930D01*
X64874Y103104D01*
X64567Y103165D01*
X16329D01*
X15945Y103445D01*
Y105118D01*
D02*
G37*
G36*
X94488Y35403D02*
X93602Y35287D01*
X92777Y34945D01*
X92068Y34401D01*
X91524Y33692D01*
X91182Y32866D01*
X91065Y31980D01*
X91182Y31094D01*
X91524Y30269D01*
X92068Y29560D01*
X92777Y29016D01*
X93602Y28674D01*
X94488Y28557D01*
X95374Y28674D01*
X96200Y29016D01*
X96909Y29560D01*
X97453Y30269D01*
X97795Y31094D01*
X97911Y31980D01*
X97795Y32866D01*
X97453Y33692D01*
X96909Y34401D01*
X96200Y34945D01*
X95374Y35287D01*
X94488Y35403D01*
D02*
G37*
G36*
Y25403D02*
X93602Y25287D01*
X92777Y24945D01*
X92068Y24401D01*
X91524Y23692D01*
X91182Y22866D01*
X91065Y21980D01*
X91182Y21094D01*
X91524Y20269D01*
X92068Y19560D01*
X92777Y19016D01*
X93602Y18674D01*
X94488Y18557D01*
X95374Y18674D01*
X96200Y19016D01*
X96909Y19560D01*
X97453Y20269D01*
X97795Y21094D01*
X97911Y21980D01*
X97795Y22866D01*
X97453Y23692D01*
X96909Y24401D01*
X96200Y24945D01*
X95374Y25287D01*
X94488Y25403D01*
D02*
G37*
G36*
X192801Y10917D02*
X175985D01*
Y3802D01*
X192801D01*
Y10917D01*
D02*
G37*
%LPD*%
G36*
X192152Y10395D02*
X192231Y10366D01*
X192290Y10336D01*
X192299Y10317D01*
X192309D01*
X192339Y10277D01*
X192368Y10238D01*
X192398Y10140D01*
Y10090D01*
X192408Y10051D01*
Y10031D01*
Y10022D01*
Y4688D01*
Y4619D01*
X192388Y4550D01*
X192378Y4501D01*
X192359Y4462D01*
X192329Y4413D01*
X192309Y4393D01*
X192221Y4344D01*
X192132Y4314D01*
X192103D01*
X192073Y4304D01*
X190282D01*
X190164Y4314D01*
X190056D01*
X189958Y4324D01*
X189869Y4334D01*
X189810D01*
X189771Y4344D01*
X189761D01*
X189544Y4383D01*
X189446Y4413D01*
X189357Y4432D01*
X189288Y4452D01*
X189239Y4472D01*
X189200Y4482D01*
X189190D01*
X189003Y4560D01*
X188924Y4600D01*
X188846Y4639D01*
X188787Y4678D01*
X188747Y4708D01*
X188718Y4718D01*
X188708Y4728D01*
X188560Y4846D01*
X188491Y4905D01*
X188442Y4954D01*
X188393Y5003D01*
X188364Y5042D01*
X188344Y5062D01*
X188334Y5072D01*
X188226Y5229D01*
X188147Y5387D01*
X188127Y5446D01*
X188108Y5495D01*
X188088Y5534D01*
Y5544D01*
X188029Y5751D01*
X188009Y5849D01*
X187999Y5938D01*
X187990Y6017D01*
Y6076D01*
Y6125D01*
Y6135D01*
Y6243D01*
X188009Y6351D01*
X188019Y6440D01*
X188039Y6528D01*
X188058Y6587D01*
X188068Y6646D01*
X188088Y6676D01*
Y6686D01*
X188167Y6863D01*
X188216Y6942D01*
X188255Y7001D01*
X188295Y7060D01*
X188324Y7099D01*
X188344Y7119D01*
X188354Y7129D01*
X188482Y7256D01*
X188600Y7355D01*
X188649Y7384D01*
X188688Y7414D01*
X188718Y7424D01*
X188728Y7434D01*
X188895Y7512D01*
X188974Y7542D01*
X189052Y7562D01*
X189111Y7581D01*
X189161Y7591D01*
X189200Y7601D01*
X189210D01*
X189062Y7660D01*
X188954Y7719D01*
X188905Y7748D01*
X188875Y7768D01*
X188856Y7788D01*
X188846D01*
X188737Y7886D01*
X188649Y7975D01*
X188619Y8014D01*
X188600Y8044D01*
X188580Y8063D01*
Y8073D01*
X188511Y8201D01*
X188452Y8319D01*
X188432Y8368D01*
X188423Y8408D01*
X188413Y8427D01*
Y8437D01*
X188373Y8585D01*
X188364Y8723D01*
X188354Y8782D01*
Y8821D01*
Y8850D01*
Y8860D01*
X188364Y8998D01*
X188373Y9136D01*
X188403Y9244D01*
X188423Y9352D01*
X188452Y9431D01*
X188482Y9490D01*
X188491Y9529D01*
X188501Y9539D01*
X188560Y9648D01*
X188619Y9736D01*
X188688Y9825D01*
X188757Y9894D01*
X188816Y9943D01*
X188865Y9992D01*
X188895Y10012D01*
X188905Y10022D01*
X189013Y10090D01*
X189121Y10149D01*
X189229Y10199D01*
X189338Y10248D01*
X189426Y10277D01*
X189495Y10297D01*
X189544Y10317D01*
X189564D01*
X189712Y10346D01*
X189869Y10376D01*
X190026Y10395D01*
X190184Y10405D01*
X190312Y10415D01*
X192044D01*
X192152Y10395D01*
D02*
G37*
G36*
X180934Y10405D02*
X180944Y10395D01*
X180954Y10386D01*
X180974Y10356D01*
X180993Y10327D01*
X181003Y10307D01*
X181013Y10297D01*
X181023Y10248D01*
X181033Y10199D01*
X181043Y10159D01*
Y10140D01*
X181052Y10061D01*
Y9982D01*
Y9923D01*
Y9913D01*
Y9903D01*
Y9805D01*
X181043Y9736D01*
Y9687D01*
Y9667D01*
X181033Y9598D01*
X181023Y9549D01*
X181013Y9520D01*
Y9510D01*
X180993Y9470D01*
X180974Y9441D01*
X180954Y9431D01*
Y9421D01*
X180905Y9402D01*
X179340D01*
Y4472D01*
X179330Y4442D01*
X179321Y4413D01*
X179311Y4393D01*
Y4383D01*
X179281Y4354D01*
X179252Y4344D01*
X179222Y4324D01*
X179212D01*
X179153Y4314D01*
X179094Y4304D01*
X179045Y4295D01*
X179025D01*
X178927Y4285D01*
X178829Y4275D01*
X178602D01*
X178504Y4285D01*
X178445Y4295D01*
X178425D01*
X178337Y4304D01*
X178278Y4314D01*
X178238Y4324D01*
X178228D01*
X178179Y4344D01*
X178150Y4363D01*
X178140Y4373D01*
X178130Y4383D01*
X178110Y4413D01*
X178091Y4442D01*
Y4462D01*
Y4472D01*
Y9402D01*
X176565D01*
X176516Y9411D01*
X176497Y9421D01*
X176467Y9451D01*
X176447Y9480D01*
X176437Y9500D01*
Y9510D01*
X176418Y9559D01*
X176408Y9608D01*
X176398Y9648D01*
Y9667D01*
X176388Y9746D01*
X176378Y9825D01*
Y9884D01*
Y9894D01*
Y9903D01*
Y10002D01*
X176388Y10071D01*
X176398Y10120D01*
Y10140D01*
X176408Y10208D01*
X176418Y10258D01*
X176428Y10287D01*
X176437Y10297D01*
X176457Y10336D01*
X176477Y10366D01*
X176487Y10376D01*
X176497Y10386D01*
X176516Y10405D01*
X176546Y10415D01*
X180905D01*
X180934Y10405D01*
D02*
G37*
G36*
X184595Y10514D02*
X184831Y10484D01*
X185057Y10454D01*
X185244Y10415D01*
X185392Y10366D01*
X185461Y10346D01*
X185510Y10336D01*
X185549Y10317D01*
X185579Y10307D01*
X185599Y10297D01*
X185608D01*
X185805Y10208D01*
X185982Y10100D01*
X186140Y9992D01*
X186277Y9894D01*
X186386Y9805D01*
X186464Y9726D01*
X186514Y9677D01*
X186533Y9657D01*
X186661Y9500D01*
X186779Y9323D01*
X186878Y9156D01*
X186956Y8998D01*
X187015Y8860D01*
X187055Y8752D01*
X187074Y8713D01*
X187084Y8683D01*
X187094Y8664D01*
Y8654D01*
X187153Y8427D01*
X187202Y8191D01*
X187232Y7975D01*
X187261Y7768D01*
X187271Y7581D01*
Y7502D01*
X187281Y7443D01*
Y7384D01*
Y7345D01*
Y7325D01*
Y7316D01*
X187271Y7020D01*
X187252Y6755D01*
X187222Y6518D01*
X187192Y6312D01*
X187173Y6223D01*
X187163Y6145D01*
X187143Y6076D01*
X187134Y6026D01*
X187124Y5977D01*
X187114Y5948D01*
X187104Y5928D01*
Y5918D01*
X187025Y5712D01*
X186946Y5515D01*
X186858Y5347D01*
X186769Y5210D01*
X186691Y5102D01*
X186632Y5013D01*
X186592Y4964D01*
X186573Y4944D01*
X186435Y4806D01*
X186287Y4698D01*
X186140Y4600D01*
X185992Y4511D01*
X185874Y4452D01*
X185776Y4413D01*
X185736Y4393D01*
X185707Y4383D01*
X185697Y4373D01*
X185687D01*
X185480Y4314D01*
X185264Y4275D01*
X185057Y4236D01*
X184870Y4216D01*
X184703Y4206D01*
X184624D01*
X184565Y4196D01*
X184447D01*
X184181Y4206D01*
X183945Y4226D01*
X183729Y4265D01*
X183542Y4304D01*
X183394Y4344D01*
X183325Y4363D01*
X183276Y4383D01*
X183237Y4393D01*
X183207Y4403D01*
X183188Y4413D01*
X183178D01*
X182981Y4501D01*
X182804Y4600D01*
X182647Y4708D01*
X182509Y4806D01*
X182401Y4905D01*
X182322Y4974D01*
X182273Y5023D01*
X182253Y5042D01*
X182125Y5210D01*
X182007Y5377D01*
X181908Y5554D01*
X181830Y5712D01*
X181771Y5849D01*
X181731Y5967D01*
X181712Y6007D01*
X181702Y6036D01*
X181692Y6056D01*
Y6066D01*
X181623Y6292D01*
X181574Y6528D01*
X181544Y6764D01*
X181515Y6971D01*
X181505Y7148D01*
Y7227D01*
X181495Y7296D01*
Y7355D01*
Y7394D01*
Y7414D01*
Y7424D01*
X181505Y7709D01*
X181525Y7975D01*
X181554Y8211D01*
X181584Y8408D01*
X181603Y8496D01*
X181623Y8575D01*
X181643Y8644D01*
X181653Y8703D01*
X181662Y8742D01*
X181672Y8772D01*
X181682Y8792D01*
Y8801D01*
X181751Y9008D01*
X181840Y9195D01*
X181928Y9362D01*
X182017Y9500D01*
X182095Y9618D01*
X182164Y9697D01*
X182204Y9746D01*
X182223Y9766D01*
X182361Y9903D01*
X182509Y10022D01*
X182656Y10120D01*
X182794Y10199D01*
X182922Y10258D01*
X183020Y10297D01*
X183060Y10317D01*
X183089Y10327D01*
X183099Y10336D01*
X183109D01*
X183316Y10395D01*
X183522Y10445D01*
X183729Y10474D01*
X183916Y10504D01*
X184083Y10514D01*
X184152D01*
X184211Y10523D01*
X184329D01*
X184595Y10514D01*
D02*
G37*
%LPC*%
G36*
X191188Y9480D02*
X190469D01*
X190381Y9470D01*
X190302Y9461D01*
X190233Y9451D01*
X190184Y9441D01*
X190145Y9431D01*
X190125Y9421D01*
X190115D01*
X189997Y9382D01*
X189908Y9333D01*
X189849Y9293D01*
X189830Y9274D01*
X189751Y9195D01*
X189692Y9116D01*
X189662Y9057D01*
X189653Y9037D01*
Y9028D01*
X189613Y8919D01*
X189603Y8811D01*
X189594Y8772D01*
Y8732D01*
Y8713D01*
Y8703D01*
X189603Y8585D01*
X189623Y8486D01*
X189633Y8447D01*
X189643Y8418D01*
X189653Y8398D01*
Y8388D01*
X189702Y8280D01*
X189751Y8201D01*
X189790Y8142D01*
X189800Y8132D01*
X189810Y8122D01*
X189899Y8054D01*
X189987Y7994D01*
X190017Y7985D01*
X190046Y7965D01*
X190066Y7955D01*
X190076D01*
X190135Y7935D01*
X190204Y7926D01*
X190341Y7906D01*
X190410Y7896D01*
X191188D01*
Y9480D01*
D02*
G37*
G36*
Y6991D02*
X190341D01*
X190233Y6981D01*
X190145Y6971D01*
X190066Y6961D01*
X189997Y6942D01*
X189958Y6932D01*
X189928Y6922D01*
X189918D01*
X189771Y6873D01*
X189712Y6843D01*
X189662Y6814D01*
X189623Y6784D01*
X189584Y6764D01*
X189574Y6755D01*
X189564Y6745D01*
X189475Y6656D01*
X189407Y6568D01*
X189387Y6528D01*
X189367Y6499D01*
X189357Y6479D01*
Y6469D01*
X189308Y6341D01*
X189288Y6213D01*
X189279Y6164D01*
Y6125D01*
Y6095D01*
Y6086D01*
X189288Y5938D01*
X189318Y5830D01*
X189328Y5780D01*
X189348Y5751D01*
X189357Y5731D01*
Y5721D01*
X189416Y5613D01*
X189485Y5534D01*
X189544Y5475D01*
X189554Y5466D01*
X189564Y5456D01*
X189662Y5387D01*
X189761Y5338D01*
X189810Y5318D01*
X189839Y5308D01*
X189859Y5298D01*
X189869D01*
X190007Y5269D01*
X190145Y5259D01*
X190213Y5249D01*
X191188D01*
Y6991D01*
D02*
G37*
G36*
X184457Y9500D02*
X184378D01*
X184211Y9490D01*
X184073Y9480D01*
X183935Y9451D01*
X183827Y9421D01*
X183739Y9392D01*
X183680Y9372D01*
X183630Y9352D01*
X183621Y9342D01*
X183512Y9284D01*
X183414Y9205D01*
X183335Y9136D01*
X183266Y9067D01*
X183207Y8998D01*
X183168Y8949D01*
X183148Y8910D01*
X183138Y8900D01*
X183070Y8792D01*
X183020Y8683D01*
X182971Y8565D01*
X182932Y8467D01*
X182912Y8368D01*
X182893Y8299D01*
X182873Y8250D01*
Y8231D01*
X182824Y7926D01*
X182814Y7778D01*
X182804Y7650D01*
X182794Y7532D01*
Y7434D01*
Y7374D01*
Y7365D01*
Y7355D01*
Y7197D01*
X182804Y7040D01*
X182814Y6902D01*
X182833Y6784D01*
X182843Y6676D01*
X182863Y6597D01*
X182873Y6548D01*
Y6528D01*
X182902Y6391D01*
X182951Y6263D01*
X182991Y6145D01*
X183040Y6046D01*
X183079Y5967D01*
X183119Y5898D01*
X183138Y5859D01*
X183148Y5849D01*
X183227Y5741D01*
X183306Y5652D01*
X183384Y5574D01*
X183463Y5505D01*
X183532Y5456D01*
X183591Y5416D01*
X183630Y5397D01*
X183640Y5387D01*
X183758Y5328D01*
X183886Y5288D01*
X184014Y5259D01*
X184142Y5239D01*
X184240Y5229D01*
X184329Y5220D01*
X184408D01*
X184575Y5229D01*
X184723Y5239D01*
X184851Y5269D01*
X184969Y5298D01*
X185057Y5318D01*
X185116Y5347D01*
X185166Y5357D01*
X185175Y5367D01*
X185284Y5426D01*
X185372Y5495D01*
X185461Y5564D01*
X185530Y5633D01*
X185579Y5692D01*
X185628Y5741D01*
X185648Y5780D01*
X185658Y5790D01*
X185716Y5898D01*
X185776Y6017D01*
X185815Y6135D01*
X185854Y6233D01*
X185874Y6331D01*
X185894Y6400D01*
X185913Y6450D01*
Y6469D01*
X185953Y6784D01*
X185962Y6932D01*
X185972Y7069D01*
X185982Y7197D01*
Y7286D01*
Y7325D01*
Y7355D01*
Y7365D01*
Y7374D01*
Y7532D01*
X185972Y7689D01*
X185962Y7827D01*
X185943Y7945D01*
X185933Y8044D01*
X185923Y8122D01*
X185913Y8172D01*
Y8191D01*
X185884Y8329D01*
X185835Y8457D01*
X185795Y8575D01*
X185746Y8673D01*
X185707Y8752D01*
X185677Y8811D01*
X185658Y8850D01*
X185648Y8860D01*
X185569Y8959D01*
X185490Y9057D01*
X185402Y9136D01*
X185323Y9195D01*
X185254Y9254D01*
X185195Y9293D01*
X185156Y9313D01*
X185146Y9323D01*
X185028Y9382D01*
X184900Y9421D01*
X184772Y9461D01*
X184644Y9480D01*
X184536Y9490D01*
X184457Y9500D01*
D02*
G37*
%LPD*%
D10*
X9449Y168504D02*
D03*
Y225197D02*
D03*
Y222047D02*
D03*
Y218898D02*
D03*
Y215748D02*
D03*
Y212598D02*
D03*
Y209449D02*
D03*
Y206299D02*
D03*
Y203150D02*
D03*
Y200000D02*
D03*
Y196851D02*
D03*
Y193701D02*
D03*
Y190551D02*
D03*
Y187401D02*
D03*
Y184252D02*
D03*
Y181102D02*
D03*
Y177953D02*
D03*
Y174803D02*
D03*
Y171653D02*
D03*
Y165354D02*
D03*
Y162205D02*
D03*
Y159055D02*
D03*
Y143307D02*
D03*
Y140157D02*
D03*
Y137008D02*
D03*
Y133858D02*
D03*
Y130709D02*
D03*
Y127559D02*
D03*
Y124409D02*
D03*
Y121260D02*
D03*
Y118110D02*
D03*
Y114961D02*
D03*
Y111811D02*
D03*
Y108661D02*
D03*
Y105512D02*
D03*
Y102362D02*
D03*
Y99213D02*
D03*
Y96063D02*
D03*
Y92914D02*
D03*
Y89764D02*
D03*
D13*
Y218898D02*
X28740D01*
X35827Y225984D01*
X38583D01*
X39370Y225197D01*
X9449Y212598D02*
X33465D01*
X33465Y212598D01*
X36220D01*
X39370Y215748D01*
X9449Y206299D02*
X34252D01*
X39764Y200787D01*
D15*
X9449Y196851D02*
X15157D01*
X16339Y198032D01*
X9449Y200000D02*
X15157D01*
X16339Y198819D01*
X9449Y187401D02*
X15157D01*
X16339Y188583D01*
X9449Y190551D02*
X15157D01*
X16339Y189370D01*
Y188583D02*
X18504D01*
X9449Y168504D02*
X15157D01*
X16339Y169685D01*
X9449Y171653D02*
X15157D01*
X16339Y170472D01*
X9449Y159055D02*
X15157D01*
X16339Y160236D01*
X9449Y162205D02*
X15157D01*
X16339Y161024D01*
Y198032D02*
X18898D01*
X22835Y194095D01*
X24213D01*
X16339Y198819D02*
X19224D01*
X23161Y194882D01*
X24213Y194095D02*
X24803Y193504D01*
X23161Y194882D02*
X24213D01*
X24803Y195473D01*
X18504Y188583D02*
X23228Y183858D01*
X24213D01*
X16339Y189370D02*
X18830D01*
X23554Y184646D01*
X24213D01*
Y183858D02*
X24803Y183268D01*
X24213Y184646D02*
X24803Y185236D01*
X9449Y177953D02*
X15157D01*
X16339Y179134D01*
X17717D01*
X9449Y181102D02*
X15157D01*
X16339Y179921D01*
X17717Y179134D02*
X22441Y174409D01*
X16339Y179921D02*
X18043D01*
X22767Y175197D01*
X22441Y174409D02*
X24213D01*
X24803Y173819D01*
X22767Y175197D02*
X24213D01*
X24803Y175787D01*
X16339Y169685D02*
X17717D01*
X22441Y164961D01*
X16339Y170472D02*
X18043D01*
X22767Y165748D01*
X22441Y164961D02*
X24213D01*
X24803Y164370D01*
X22767Y165748D02*
X24213D01*
X24803Y166339D01*
X16339Y160236D02*
X24803D01*
X28740Y156299D01*
X29921D01*
X16339Y161024D02*
X25129D01*
X29066Y157087D01*
X29921D01*
Y156299D02*
X30315Y155905D01*
Y155709D02*
Y155905D01*
X29921Y157087D02*
X30315Y157480D01*
Y157677D01*
D16*
X99146Y117323D02*
X104488Y111980D01*
X9449Y137008D02*
X65748D01*
X88189Y114567D01*
Y109492D02*
Y114567D01*
Y109492D02*
X90945Y106736D01*
Y106693D02*
Y106736D01*
Y106693D02*
X99776D01*
X104488Y101980D01*
X9449Y130709D02*
X62205D01*
X88583Y104331D01*
Y99213D02*
Y104331D01*
Y99213D02*
X90945Y96850D01*
X99618D01*
X104488Y91980D01*
X9449Y127559D02*
X61024D01*
X85827Y102756D01*
X99461Y87008D02*
X104488Y81980D01*
X9449Y121260D02*
X62598D01*
X82284Y101575D01*
X99697Y76772D02*
X104488Y71980D01*
X99539Y66929D02*
X104488Y61980D01*
X89370Y59449D02*
X92126Y56693D01*
X99776D01*
X104488Y51980D01*
X86221Y53150D02*
X92520Y46850D01*
X99618D01*
X104488Y41980D01*
X9449Y102362D02*
X64567D01*
X68504Y98425D01*
X88976Y39764D02*
X91732Y37008D01*
X99461D01*
X104488Y31980D01*
X85827Y92913D02*
Y102756D01*
Y92913D02*
X91732Y87008D01*
X99461D01*
X82284Y87008D02*
Y101575D01*
Y87008D02*
X92520Y76772D01*
X99697D01*
X9449Y118110D02*
X61811D01*
X78740Y101181D01*
X93326Y66929D02*
X99539D01*
X9449Y111811D02*
X64173D01*
X75197Y100787D01*
X9449Y108661D02*
X62992D01*
X71653Y100000D01*
X9449Y140157D02*
X66142D01*
X88976Y117323D01*
X99146D01*
X78740Y81515D02*
X93326Y66929D01*
X75197Y81102D02*
Y100787D01*
Y81102D02*
X89370Y66929D01*
Y59449D02*
Y66929D01*
X78740Y81515D02*
Y101181D01*
X71653Y81496D02*
Y100000D01*
Y81496D02*
X86221Y66929D01*
Y53150D02*
Y66929D01*
X68504Y81102D02*
Y98425D01*
Y81102D02*
X83071Y66535D01*
Y51181D02*
Y66535D01*
Y51181D02*
X88976Y45276D01*
Y39764D02*
Y45276D01*
X9449Y99213D02*
X62205D01*
X65748Y95669D01*
X79921Y49606D02*
X86221Y43307D01*
Y30315D02*
Y43307D01*
Y30315D02*
X89764Y26772D01*
X99697D01*
X104488Y21980D01*
X9449Y92914D02*
X58661D01*
X76772Y48425D02*
X83465Y41732D01*
Y24016D02*
Y41732D01*
Y24016D02*
X92126Y15354D01*
X106693D01*
X109449Y18110D01*
Y36941D01*
X114488Y41980D01*
X65748Y79921D02*
Y95669D01*
Y79921D02*
X79921Y65748D01*
Y49606D02*
Y65748D01*
X76772Y48425D02*
Y65748D01*
X58661Y92914D02*
X63386Y88189D01*
Y79134D02*
Y88189D01*
Y79134D02*
X76772Y65748D01*
X61024Y78347D02*
X73228Y66142D01*
Y47244D02*
Y66142D01*
Y47244D02*
X80709Y39764D01*
Y22835D02*
Y39764D01*
Y22835D02*
X90945Y12598D01*
X108268D01*
X114488Y18819D01*
Y21980D01*
X9449Y89764D02*
X55906D01*
X61024Y78347D02*
Y84646D01*
X57480Y85039D02*
X60630D01*
X55906Y89764D02*
X60630Y85039D01*
X61024Y84646D01*
D17*
X114488Y21980D02*
D03*
X104488D02*
D03*
X94488D02*
D03*
X114488Y31980D02*
D03*
X104488D02*
D03*
X94488D02*
D03*
X114488Y41980D02*
D03*
X104488D02*
D03*
X94488D02*
D03*
X114488Y51980D02*
D03*
X104488D02*
D03*
X94488D02*
D03*
X114488Y61980D02*
D03*
X104488D02*
D03*
X94488D02*
D03*
X114488Y71980D02*
D03*
X104488D02*
D03*
X94488D02*
D03*
X114488Y81980D02*
D03*
X104488D02*
D03*
X94488D02*
D03*
X114488Y91980D02*
D03*
X104488D02*
D03*
X94488D02*
D03*
X114488Y101980D02*
D03*
X104488D02*
D03*
X94488D02*
D03*
X114488Y111980D02*
D03*
X104488D02*
D03*
X114488Y132480D02*
D03*
X104488D02*
D03*
X94488D02*
D03*
X114488Y142480D02*
D03*
X104488D02*
D03*
X94488D02*
D03*
X114488Y152480D02*
D03*
X104488D02*
D03*
X94488D02*
D03*
X114488Y162480D02*
D03*
X104488D02*
D03*
X94488D02*
D03*
X114488Y172480D02*
D03*
X104488D02*
D03*
X94488D02*
D03*
X114488Y182480D02*
D03*
X104488D02*
D03*
X94488D02*
D03*
X114488Y192480D02*
D03*
X104488D02*
D03*
X94488D02*
D03*
X114488Y202480D02*
D03*
X104488D02*
D03*
X94488D02*
D03*
X114488Y212480D02*
D03*
X104488D02*
D03*
X94488D02*
D03*
X114488Y222480D02*
D03*
X104488D02*
D03*
Y292480D02*
D03*
X94488Y282480D02*
D03*
X104488D02*
D03*
X94488Y272480D02*
D03*
X104488D02*
D03*
X94488Y262480D02*
D03*
X104488D02*
D03*
X94488Y252480D02*
D03*
X104488D02*
D03*
X94488Y242480D02*
D03*
X104488D02*
D03*
D18*
X94488Y111980D02*
D03*
Y222480D02*
D03*
Y292480D02*
D03*
D19*
X153473Y255630D02*
D03*
D20*
Y244724D02*
D03*
Y233819D02*
D03*
Y222913D02*
D03*
Y212008D02*
D03*
Y201102D02*
D03*
Y190197D02*
D03*
Y179291D02*
D03*
Y168386D02*
D03*
Y157480D02*
D03*
Y146575D02*
D03*
Y135669D02*
D03*
Y124764D02*
D03*
Y113858D02*
D03*
Y102953D02*
D03*
Y92047D02*
D03*
Y81142D02*
D03*
Y70236D02*
D03*
Y59331D02*
D03*
X164653Y250177D02*
D03*
Y239272D02*
D03*
Y228366D02*
D03*
Y217460D02*
D03*
Y206555D02*
D03*
Y195649D02*
D03*
Y184744D02*
D03*
Y173838D02*
D03*
Y162933D02*
D03*
Y152027D02*
D03*
Y141122D02*
D03*
Y130216D02*
D03*
Y119311D02*
D03*
Y108405D02*
D03*
Y97500D02*
D03*
Y86594D02*
D03*
Y75689D02*
D03*
Y64783D02*
D03*
D21*
X159063Y32480D02*
D03*
Y282480D02*
D03*
D22*
X39370Y225197D02*
D03*
Y215748D02*
D03*
X39764Y200787D02*
D03*
D23*
X24803Y193504D02*
D03*
Y195473D02*
D03*
Y183268D02*
D03*
Y185236D02*
D03*
Y173819D02*
D03*
Y175787D02*
D03*
Y164370D02*
D03*
Y166339D02*
D03*
X30315Y155709D02*
D03*
Y157677D02*
D03*
X57480Y85039D02*
D03*
M02*
