G04 Layer_Physical_Order=1*
G04 Layer_Color=255*
%FSLAX25Y25*%
%MOIN*%
G70*
G01*
G75*
%ADD10R,0.11024X0.02165*%
%ADD11R,0.06614X0.12362*%
%ADD12R,0.03937X0.03543*%
%ADD13C,0.01969*%
%ADD14C,0.03937*%
%ADD15C,0.00394*%
%ADD16C,0.00787*%
%ADD17C,0.06000*%
%ADD18R,0.06000X0.06000*%
%ADD19R,0.05906X0.05906*%
%ADD20C,0.05906*%
%ADD21C,0.14567*%
%ADD22C,0.03937*%
%ADD23C,0.01575*%
G36*
X196850Y314961D02*
Y-0D01*
X58425Y0D01*
Y75886D01*
X34567D01*
X34567Y75886D01*
X34181Y75867D01*
X33424Y75716D01*
X32711Y75421D01*
X32069Y74992D01*
X31524Y74446D01*
X31095Y73805D01*
X30799Y73092D01*
X30671Y72446D01*
X30649Y72335D01*
X30630Y71949D01*
X30630D01*
X30630Y71949D01*
Y69587D01*
X30630Y69587D01*
Y69273D01*
X30390Y68695D01*
X29947Y68252D01*
X29521Y68075D01*
X29055Y68012D01*
X29055Y68012D01*
X23623D01*
Y81791D01*
X23623Y81791D01*
X23604Y82177D01*
X23453Y82934D01*
X23158Y83647D01*
X22729Y84289D01*
X22183Y84835D01*
X21542Y85264D01*
X20829Y85559D01*
X20072Y85709D01*
X19686Y85728D01*
X19686Y85728D01*
X-0D01*
Y146457D01*
X20472D01*
X20472Y146457D01*
X21089Y146497D01*
X22280Y146816D01*
X23348Y147433D01*
X24221Y148305D01*
X24837Y149373D01*
X25156Y150564D01*
Y151798D01*
X24837Y152989D01*
X24221Y154057D01*
X23348Y154929D01*
X22280Y155546D01*
X21089Y155865D01*
X20472Y155905D01*
X20472Y155905D01*
X-0D01*
Y229232D01*
X19686D01*
X19686Y229232D01*
X20072Y229251D01*
X20829Y229402D01*
X21542Y229697D01*
X22183Y230126D01*
X22729Y230672D01*
X23158Y231313D01*
X23453Y232026D01*
X23585Y232691D01*
X23604Y232783D01*
X23623Y233169D01*
X23623Y233169D01*
Y246949D01*
X29055D01*
X29055Y246949D01*
X29055Y246949D01*
X29056D01*
X29538Y246879D01*
X29947Y246709D01*
X30390Y246266D01*
X30567Y245839D01*
X30630Y245374D01*
Y245374D01*
X30630Y245374D01*
X30630Y245374D01*
Y243012D01*
X30630Y243012D01*
X30649Y242626D01*
X30799Y241869D01*
X31095Y241156D01*
X31524Y240514D01*
X32069Y239968D01*
X32711Y239540D01*
X33424Y239244D01*
X34181Y239094D01*
X34567Y239075D01*
X34567Y239075D01*
X58425D01*
Y314961D01*
X196850Y314961D01*
D02*
G37*
%LPC*%
G36*
X104882Y286447D02*
Y282874D01*
X108455D01*
X108370Y283520D01*
X107968Y284490D01*
X107330Y285322D01*
X106498Y285961D01*
X105528Y286362D01*
X104882Y286447D01*
D02*
G37*
G36*
X94882D02*
Y282874D01*
X98455D01*
X98370Y283520D01*
X97968Y284490D01*
X97330Y285322D01*
X96497Y285961D01*
X95528Y286362D01*
X94882Y286447D01*
D02*
G37*
G36*
X104095D02*
X103448Y286362D01*
X102479Y285961D01*
X101647Y285322D01*
X101008Y284490D01*
X100607Y283520D01*
X100521Y282874D01*
X104095D01*
Y286447D01*
D02*
G37*
G36*
X94095D02*
X93448Y286362D01*
X92479Y285961D01*
X91647Y285322D01*
X91008Y284490D01*
X90606Y283520D01*
X90521Y282874D01*
X94095D01*
Y286447D01*
D02*
G37*
G36*
X108455Y282087D02*
X104882D01*
Y278514D01*
X105528Y278599D01*
X106498Y279000D01*
X107330Y279639D01*
X107968Y280471D01*
X108370Y281440D01*
X108455Y282087D01*
D02*
G37*
G36*
X98455D02*
X94882D01*
Y278514D01*
X95528Y278599D01*
X96497Y279000D01*
X97330Y279639D01*
X97968Y280471D01*
X98370Y281440D01*
X98455Y282087D01*
D02*
G37*
G36*
X104095D02*
X100521D01*
X100607Y281440D01*
X101008Y280471D01*
X101647Y279639D01*
X102479Y279000D01*
X103448Y278599D01*
X104095Y278514D01*
Y282087D01*
D02*
G37*
G36*
X94095D02*
X90521D01*
X90606Y281440D01*
X91008Y280471D01*
X91647Y279639D01*
X92479Y279000D01*
X93448Y278599D01*
X94095Y278514D01*
Y282087D01*
D02*
G37*
G36*
X104882Y266447D02*
Y262874D01*
X108455D01*
X108370Y263520D01*
X107968Y264490D01*
X107330Y265322D01*
X106498Y265961D01*
X105528Y266362D01*
X104882Y266447D01*
D02*
G37*
G36*
X94882D02*
Y262874D01*
X98455D01*
X98370Y263520D01*
X97968Y264490D01*
X97330Y265322D01*
X96497Y265961D01*
X95528Y266362D01*
X94882Y266447D01*
D02*
G37*
G36*
X104095D02*
X103448Y266362D01*
X102479Y265961D01*
X101647Y265322D01*
X101008Y264490D01*
X100607Y263520D01*
X100521Y262874D01*
X104095D01*
Y266447D01*
D02*
G37*
G36*
X94095D02*
X93448Y266362D01*
X92479Y265961D01*
X91647Y265322D01*
X91008Y264490D01*
X90606Y263520D01*
X90521Y262874D01*
X94095D01*
Y266447D01*
D02*
G37*
G36*
X108455Y262087D02*
X104882D01*
Y258513D01*
X105528Y258599D01*
X106498Y259000D01*
X107330Y259639D01*
X107968Y260471D01*
X108370Y261440D01*
X108455Y262087D01*
D02*
G37*
G36*
X98455D02*
X94882D01*
Y258513D01*
X95528Y258599D01*
X96497Y259000D01*
X97330Y259639D01*
X97968Y260471D01*
X98370Y261440D01*
X98455Y262087D01*
D02*
G37*
G36*
X104095D02*
X100521D01*
X100607Y261440D01*
X101008Y260471D01*
X101647Y259639D01*
X102479Y259000D01*
X103448Y258599D01*
X104095Y258513D01*
Y262087D01*
D02*
G37*
G36*
X94095D02*
X90521D01*
X90606Y261440D01*
X91008Y260471D01*
X91647Y259639D01*
X92479Y259000D01*
X93448Y258599D01*
X94095Y258513D01*
Y262087D01*
D02*
G37*
G36*
X156819Y258977D02*
X150126D01*
Y252284D01*
X156819D01*
Y254222D01*
X157281Y254414D01*
X158416Y253278D01*
Y253021D01*
X156822Y251427D01*
X135107D01*
X134655Y251239D01*
X108603Y225188D01*
X108416Y224736D01*
Y223222D01*
X107916Y222934D01*
X107846Y222974D01*
X107794Y223366D01*
X107453Y224192D01*
X106909Y224901D01*
X106200Y225445D01*
X105374Y225787D01*
X104488Y225903D01*
X103602Y225787D01*
X102777Y225445D01*
X102068Y224901D01*
X101524Y224192D01*
X101182Y223366D01*
X101065Y222480D01*
X101182Y221594D01*
X101524Y220769D01*
X102068Y220060D01*
X102777Y219516D01*
X103420Y219249D01*
X103321Y218749D01*
X98472D01*
Y222087D01*
X94488D01*
X90504D01*
Y218620D01*
X90364Y218562D01*
X87737Y215936D01*
X87550Y215484D01*
Y210107D01*
X69420Y191978D01*
X40355D01*
X33062Y199271D01*
X32610Y199458D01*
X16603D01*
X15609Y200452D01*
X15354Y200558D01*
Y201083D01*
X15945D01*
Y202756D01*
X9449D01*
X2953D01*
Y201083D01*
X3543D01*
Y198524D01*
X3543D01*
Y198327D01*
X3543D01*
Y195768D01*
X2953D01*
Y194095D01*
X9449D01*
X15945D01*
Y195768D01*
X15354D01*
Y196293D01*
X15609Y196398D01*
X16603Y197392D01*
X32019D01*
X39312Y190099D01*
X39764Y189912D01*
X70011D01*
X70463Y190099D01*
X89428Y209064D01*
X89616Y209516D01*
Y214893D01*
X91407Y216684D01*
X92918D01*
X93017Y216184D01*
X92479Y215961D01*
X91647Y215322D01*
X91008Y214490D01*
X90606Y213520D01*
X90521Y212874D01*
X94488D01*
X98455D01*
X98370Y213520D01*
X97968Y214490D01*
X97330Y215322D01*
X96497Y215961D01*
X95959Y216184D01*
X96058Y216684D01*
X108594D01*
X109046Y216871D01*
X110294Y218120D01*
X110482Y218571D01*
Y220208D01*
X111045Y220771D01*
X111622Y220641D01*
X112068Y220060D01*
X112777Y219516D01*
X113602Y219174D01*
X114488Y219057D01*
X115374Y219174D01*
X116200Y219516D01*
X116909Y220060D01*
X117453Y220769D01*
X117795Y221594D01*
X117911Y222480D01*
X117795Y223366D01*
X117453Y224192D01*
X116909Y224901D01*
X116200Y225445D01*
X115374Y225787D01*
X114488Y225903D01*
X113602Y225787D01*
X112777Y225445D01*
X112068Y224901D01*
X111524Y224192D01*
X111182Y223366D01*
X111126Y222943D01*
X110982Y222853D01*
X110482Y223130D01*
Y224145D01*
X135698Y249361D01*
X157413D01*
X157865Y249548D01*
X160433Y252117D01*
X161319D01*
X161334Y252108D01*
X161627Y251617D01*
X161393Y251051D01*
X161278Y250177D01*
X161393Y249304D01*
X161730Y248490D01*
X162267Y247791D01*
X162966Y247254D01*
X163780Y246917D01*
X164653Y246802D01*
X165527Y246917D01*
X166341Y247254D01*
X167040Y247791D01*
X167577Y248490D01*
X167914Y249304D01*
X168029Y250177D01*
X167914Y251051D01*
X167577Y251865D01*
X167040Y252564D01*
X166341Y253100D01*
X165527Y253438D01*
X164653Y253553D01*
X163780Y253438D01*
X162966Y253100D01*
X162778Y252957D01*
X162527Y253208D01*
X162075Y253395D01*
X160169D01*
X159694Y253543D01*
X159639Y253676D01*
X159507Y253995D01*
X157420Y256082D01*
X156968Y256270D01*
X156819D01*
Y258977D01*
D02*
G37*
G36*
X153866Y248643D02*
Y245118D01*
X157392D01*
X157308Y245752D01*
X156912Y246710D01*
X156281Y247532D01*
X155458Y248163D01*
X154500Y248560D01*
X153866Y248643D01*
D02*
G37*
G36*
X153079D02*
X152445Y248560D01*
X151487Y248163D01*
X150665Y247532D01*
X150034Y246710D01*
X149637Y245752D01*
X149553Y245118D01*
X153079D01*
Y248643D01*
D02*
G37*
G36*
X104882Y246447D02*
Y242874D01*
X108455D01*
X108370Y243520D01*
X107968Y244490D01*
X107330Y245322D01*
X106498Y245961D01*
X105528Y246362D01*
X104882Y246447D01*
D02*
G37*
G36*
X94882D02*
Y242874D01*
X98455D01*
X98370Y243520D01*
X97968Y244490D01*
X97330Y245322D01*
X96497Y245961D01*
X95528Y246362D01*
X94882Y246447D01*
D02*
G37*
G36*
X104095D02*
X103448Y246362D01*
X102479Y245961D01*
X101647Y245322D01*
X101008Y244490D01*
X100607Y243520D01*
X100521Y242874D01*
X104095D01*
Y246447D01*
D02*
G37*
G36*
X94095D02*
X93448Y246362D01*
X92479Y245961D01*
X91647Y245322D01*
X91008Y244490D01*
X90606Y243520D01*
X90521Y242874D01*
X94095D01*
Y246447D01*
D02*
G37*
G36*
X157392Y244331D02*
X153866D01*
Y240805D01*
X154500Y240889D01*
X155458Y241285D01*
X156281Y241916D01*
X156912Y242739D01*
X157308Y243696D01*
X157392Y244331D01*
D02*
G37*
G36*
X153079D02*
X149553D01*
X149637Y243696D01*
X150034Y242739D01*
X150665Y241916D01*
X151487Y241285D01*
X152445Y240889D01*
X153079Y240805D01*
Y244331D01*
D02*
G37*
G36*
X108455Y242087D02*
X104882D01*
Y238513D01*
X105528Y238599D01*
X106498Y239000D01*
X107330Y239639D01*
X107968Y240471D01*
X108370Y241440D01*
X108455Y242087D01*
D02*
G37*
G36*
X98455D02*
X94882D01*
Y238513D01*
X95528Y238599D01*
X96497Y239000D01*
X97330Y239639D01*
X97968Y240471D01*
X98370Y241440D01*
X98455Y242087D01*
D02*
G37*
G36*
X104095D02*
X100521D01*
X100607Y241440D01*
X101008Y240471D01*
X101647Y239639D01*
X102479Y239000D01*
X103448Y238599D01*
X104095Y238513D01*
Y242087D01*
D02*
G37*
G36*
X94095D02*
X90521D01*
X90606Y241440D01*
X91008Y240471D01*
X91647Y239639D01*
X92479Y239000D01*
X93448Y238599D01*
X94095Y238513D01*
Y242087D01*
D02*
G37*
G36*
X164653Y242648D02*
X163780Y242533D01*
X162966Y242195D01*
X162267Y241659D01*
X161730Y240960D01*
X161393Y240146D01*
X161278Y239272D01*
X161390Y238423D01*
X160965Y238247D01*
X159554Y236836D01*
X159400Y236466D01*
X157126D01*
X156674Y236279D01*
X156449Y236055D01*
X155950Y236087D01*
X155859Y236206D01*
X155160Y236742D01*
X154346Y237080D01*
X153473Y237195D01*
X152599Y237080D01*
X151785Y236742D01*
X151086Y236206D01*
X150549Y235507D01*
X150212Y234693D01*
X150097Y233819D01*
X150212Y232946D01*
X150549Y232132D01*
X151086Y231433D01*
X151785Y230896D01*
X152599Y230559D01*
X153473Y230444D01*
X154346Y230559D01*
X155160Y230896D01*
X155859Y231433D01*
X156396Y232132D01*
X156733Y232946D01*
X156848Y233819D01*
X156752Y234549D01*
X157390Y235188D01*
X159184D01*
X159203Y235168D01*
Y232942D01*
X156034Y229773D01*
X149606D01*
X149154Y229586D01*
X137531Y217962D01*
X112272D01*
X111820Y217775D01*
X108603Y214558D01*
X108416Y214106D01*
Y213140D01*
X108386Y213120D01*
X107827D01*
X107794Y213366D01*
X107453Y214192D01*
X106909Y214901D01*
X106200Y215445D01*
X105374Y215787D01*
X104488Y215903D01*
X103602Y215787D01*
X102777Y215445D01*
X102068Y214901D01*
X101524Y214192D01*
X101182Y213366D01*
X101065Y212480D01*
X101182Y211594D01*
X101524Y210769D01*
X102068Y210060D01*
X102777Y209516D01*
X103602Y209174D01*
X104488Y209057D01*
X105374Y209174D01*
X106200Y209516D01*
X106909Y210060D01*
X107453Y210769D01*
X107635Y211209D01*
X108181Y211424D01*
X108221Y211423D01*
X108416Y211187D01*
Y209320D01*
X107609Y208513D01*
X96637D01*
X96510Y208964D01*
X96515Y209013D01*
X97330Y209639D01*
X97968Y210471D01*
X98370Y211440D01*
X98455Y212087D01*
X94488D01*
X90521D01*
X90606Y211440D01*
X91008Y210471D01*
X91647Y209639D01*
X92462Y209013D01*
X92467Y208964D01*
X92339Y208513D01*
X91800D01*
X91348Y208326D01*
X72244Y189222D01*
X38386D01*
X32274Y195334D01*
X31822Y195521D01*
X25998D01*
X25916Y195933D01*
X25655Y196324D01*
X25264Y196585D01*
X24803Y196677D01*
X24342Y196585D01*
X23952Y196324D01*
X23691Y195933D01*
X23599Y195473D01*
X23691Y195012D01*
X23952Y194621D01*
Y194355D01*
X23691Y193965D01*
X23599Y193504D01*
X23691Y193043D01*
X23952Y192652D01*
X24342Y192391D01*
X24803Y192300D01*
X25264Y192391D01*
X25655Y192652D01*
X25916Y193043D01*
X25998Y193455D01*
X31231D01*
X37343Y187343D01*
X37795Y187156D01*
X72835D01*
X73287Y187343D01*
X90491Y204547D01*
X90914Y204264D01*
X90606Y203520D01*
X90521Y202874D01*
X94488D01*
X98455D01*
X98370Y203520D01*
X97968Y204490D01*
X97330Y205322D01*
X96515Y205947D01*
X96510Y205997D01*
X96637Y206447D01*
X108200D01*
X108652Y206635D01*
X108975Y206269D01*
X108603Y205896D01*
X108416Y205444D01*
Y203775D01*
X108368Y203694D01*
X107916Y203437D01*
X107728Y203527D01*
X107453Y204192D01*
X106909Y204901D01*
X106200Y205445D01*
X105374Y205787D01*
X104488Y205903D01*
X103602Y205787D01*
X102777Y205445D01*
X102068Y204901D01*
X101524Y204192D01*
X101182Y203366D01*
X101065Y202480D01*
X101182Y201594D01*
X101524Y200769D01*
X102068Y200060D01*
X102777Y199516D01*
X103602Y199174D01*
X103627Y199171D01*
X103594Y198671D01*
X96890D01*
X96720Y199171D01*
X97330Y199639D01*
X97968Y200471D01*
X98370Y201440D01*
X98455Y202087D01*
X94488D01*
X90521D01*
X90606Y201440D01*
X91008Y200471D01*
X91647Y199639D01*
X92256Y199171D01*
X92087Y198671D01*
X87402D01*
X86950Y198484D01*
X74932Y186466D01*
X33336D01*
X29980Y189822D01*
X29528Y190009D01*
X16603D01*
X15609Y191003D01*
X15354Y191109D01*
Y191634D01*
X15945D01*
Y193307D01*
X9449D01*
X2953D01*
Y191634D01*
X3543D01*
Y189075D01*
X3543D01*
Y188878D01*
X3543D01*
Y186319D01*
X2953D01*
Y184646D01*
X9449D01*
X15945D01*
Y186319D01*
X15354D01*
Y186844D01*
X15609Y186950D01*
X16603Y187943D01*
X28937D01*
X32293Y184587D01*
X32745Y184400D01*
X75523D01*
X75975Y184587D01*
X87993Y196605D01*
X92728D01*
X92827Y196105D01*
X92479Y195961D01*
X91647Y195322D01*
X91008Y194490D01*
X90606Y193520D01*
X90521Y192874D01*
X94488D01*
X98455D01*
X98370Y193520D01*
X97968Y194490D01*
X97330Y195322D01*
X96497Y195961D01*
X96149Y196105D01*
X96249Y196605D01*
X108594D01*
X109046Y196792D01*
X110294Y198041D01*
X110482Y198493D01*
Y200880D01*
X110858Y201214D01*
X111382Y201110D01*
X111524Y200769D01*
X112068Y200060D01*
X112777Y199516D01*
X113602Y199174D01*
X114488Y199057D01*
X115374Y199174D01*
X116200Y199516D01*
X116909Y200060D01*
X117453Y200769D01*
X117795Y201594D01*
X117911Y202480D01*
X117795Y203366D01*
X117453Y204192D01*
X116909Y204901D01*
X116200Y205445D01*
X115937Y205554D01*
X116036Y206054D01*
X139303D01*
X139754Y206241D01*
X150197Y216684D01*
X157413D01*
X157865Y216871D01*
X159252Y218258D01*
X161004D01*
X161334Y217882D01*
X161278Y217460D01*
X161393Y216587D01*
X161730Y215773D01*
X162267Y215074D01*
X162966Y214537D01*
X163780Y214200D01*
X164653Y214085D01*
X165527Y214200D01*
X166341Y214537D01*
X167040Y215074D01*
X167577Y215773D01*
X167914Y216587D01*
X168029Y217460D01*
X167914Y218334D01*
X167577Y219148D01*
X167040Y219847D01*
X166341Y220383D01*
X165527Y220721D01*
X164653Y220836D01*
X163780Y220721D01*
X162966Y220383D01*
X162267Y219847D01*
X162029Y219537D01*
X158988D01*
X158907Y219591D01*
Y220472D01*
X158720Y220924D01*
X156834Y222810D01*
X156848Y222913D01*
X156733Y223787D01*
X156396Y224601D01*
X155859Y225300D01*
X155160Y225836D01*
X154346Y226174D01*
X153473Y226289D01*
X152599Y226174D01*
X151785Y225836D01*
X151086Y225300D01*
X150549Y224601D01*
X150212Y223787D01*
X150097Y222913D01*
X150212Y222040D01*
X150549Y221226D01*
X151086Y220527D01*
X151785Y219990D01*
X152599Y219653D01*
X153473Y219538D01*
X154346Y219653D01*
X155160Y219990D01*
X155859Y220527D01*
X156182Y220947D01*
X156818Y221018D01*
X157629Y220208D01*
Y219556D01*
X156822Y218749D01*
X149606D01*
X149154Y218562D01*
X138712Y208120D01*
X111091D01*
X110639Y207932D01*
X110294Y208277D01*
X110482Y208729D01*
Y211286D01*
X110714Y211480D01*
X110727Y211483D01*
X111286Y211342D01*
X111524Y210769D01*
X112068Y210060D01*
X112777Y209516D01*
X113602Y209174D01*
X114488Y209057D01*
X115374Y209174D01*
X116200Y209516D01*
X116909Y210060D01*
X117453Y210769D01*
X117795Y211594D01*
X117911Y212480D01*
X117795Y213366D01*
X117453Y214192D01*
X116909Y214901D01*
X116263Y215396D01*
X116279Y215623D01*
X116401Y215896D01*
X138121D01*
X138573Y216083D01*
X150197Y227707D01*
X156625D01*
X157077Y227894D01*
X161082Y231899D01*
X161269Y232351D01*
Y235759D01*
X161082Y236211D01*
X160910Y236384D01*
X161602Y237076D01*
X162139Y237052D01*
X162267Y236886D01*
X162966Y236349D01*
X163780Y236012D01*
X164653Y235897D01*
X165527Y236012D01*
X166341Y236349D01*
X167040Y236886D01*
X167577Y237585D01*
X167914Y238399D01*
X168029Y239272D01*
X167914Y240146D01*
X167577Y240960D01*
X167040Y241659D01*
X166341Y242195D01*
X165527Y242533D01*
X164653Y242648D01*
D02*
G37*
G36*
X165047Y232285D02*
Y228760D01*
X168572D01*
X168489Y229394D01*
X168092Y230352D01*
X167461Y231174D01*
X166639Y231805D01*
X165681Y232202D01*
X165047Y232285D01*
D02*
G37*
G36*
X164260D02*
X163626Y232202D01*
X162668Y231805D01*
X161846Y231174D01*
X161214Y230352D01*
X160818Y229394D01*
X160734Y228760D01*
X164260D01*
Y232285D01*
D02*
G37*
G36*
X15945Y227264D02*
X9843D01*
Y225591D01*
X15945D01*
Y227264D01*
D02*
G37*
G36*
X9055D02*
X2953D01*
Y225591D01*
X9055D01*
Y227264D01*
D02*
G37*
G36*
X168572Y227973D02*
X165047D01*
Y224447D01*
X165681Y224531D01*
X166639Y224927D01*
X167461Y225558D01*
X168092Y226381D01*
X168489Y227339D01*
X168572Y227973D01*
D02*
G37*
G36*
X164260D02*
X160734D01*
X160818Y227339D01*
X161214Y226381D01*
X161846Y225558D01*
X162668Y224927D01*
X163626Y224531D01*
X164260Y224447D01*
Y227973D01*
D02*
G37*
G36*
X48791Y236075D02*
X41390D01*
Y230905D01*
X39539D01*
X39002Y230798D01*
X38546Y230493D01*
X28355Y220303D01*
X15945D01*
Y221654D01*
X9449D01*
X2953D01*
Y219980D01*
X3543D01*
Y217815D01*
X2953D01*
Y216142D01*
X9449D01*
X15945D01*
Y217493D01*
X28937D01*
X29475Y217600D01*
X29930Y217904D01*
X36630Y224604D01*
X37108Y224459D01*
X37145Y224275D01*
X37667Y223494D01*
X38448Y222972D01*
X39370Y222788D01*
X40292Y222972D01*
X40890Y223371D01*
X41390Y223136D01*
Y222925D01*
X48791D01*
Y236075D01*
D02*
G37*
G36*
X98472Y226465D02*
X94882D01*
Y222874D01*
X98472D01*
Y226465D01*
D02*
G37*
G36*
X94095D02*
X90504D01*
Y222874D01*
X94095D01*
Y226465D01*
D02*
G37*
G36*
X15945Y224803D02*
X9449D01*
X2953D01*
Y223130D01*
Y222441D01*
X9449D01*
X15945D01*
Y223130D01*
Y224803D01*
D02*
G37*
G36*
X48791Y221075D02*
X41390D01*
Y217809D01*
X40890Y217574D01*
X40292Y217973D01*
X39370Y218157D01*
X38448Y217973D01*
X37667Y217451D01*
X37145Y216670D01*
X36962Y215748D01*
X37145Y214826D01*
X37361Y214503D01*
X37093Y214003D01*
X15945D01*
Y215354D01*
X9449D01*
X2953D01*
Y213681D01*
X3543D01*
Y211516D01*
X2953D01*
Y209843D01*
X9449D01*
X15945D01*
Y211193D01*
X41390D01*
Y207925D01*
X48791D01*
Y221075D01*
D02*
G37*
G36*
X153866Y215927D02*
Y212402D01*
X157392D01*
X157308Y213036D01*
X156912Y213994D01*
X156281Y214816D01*
X155458Y215447D01*
X154500Y215844D01*
X153866Y215927D01*
D02*
G37*
G36*
X153079D02*
X152445Y215844D01*
X151487Y215447D01*
X150665Y214816D01*
X150034Y213994D01*
X149637Y213036D01*
X149553Y212402D01*
X153079D01*
Y215927D01*
D02*
G37*
G36*
X157392Y211615D02*
X153866D01*
Y208089D01*
X154500Y208173D01*
X155458Y208569D01*
X156281Y209200D01*
X156912Y210023D01*
X157308Y210981D01*
X157392Y211615D01*
D02*
G37*
G36*
X153079D02*
X149553D01*
X149637Y210981D01*
X150034Y210023D01*
X150665Y209200D01*
X151487Y208569D01*
X152445Y208173D01*
X153079Y208089D01*
Y211615D01*
D02*
G37*
G36*
X164653Y209931D02*
X163780Y209816D01*
X162966Y209478D01*
X162267Y208942D01*
X161730Y208243D01*
X161393Y207429D01*
X161278Y206555D01*
X161369Y205864D01*
X161066Y205399D01*
X160989Y205349D01*
X160572Y205176D01*
X159160Y203765D01*
X159007Y203395D01*
X155931D01*
X155859Y203489D01*
X155160Y204025D01*
X154346Y204363D01*
X153473Y204478D01*
X152599Y204363D01*
X151785Y204025D01*
X151086Y203489D01*
X150549Y202790D01*
X150212Y201976D01*
X150097Y201102D01*
X150212Y200229D01*
X150549Y199415D01*
X151086Y198716D01*
X151519Y198383D01*
X151349Y197883D01*
X111879D01*
X111427Y197696D01*
X108603Y194873D01*
X108416Y194421D01*
Y193624D01*
X107916Y193308D01*
X107794Y193366D01*
X107453Y194192D01*
X106909Y194901D01*
X106200Y195445D01*
X105374Y195787D01*
X104488Y195903D01*
X103602Y195787D01*
X102777Y195445D01*
X102068Y194901D01*
X101524Y194192D01*
X101182Y193366D01*
X101065Y192480D01*
X101182Y191594D01*
X101524Y190769D01*
X102068Y190060D01*
X102777Y189516D01*
X103602Y189174D01*
X104488Y189057D01*
X105374Y189174D01*
X106200Y189516D01*
X106909Y190060D01*
X107453Y190769D01*
X107536Y190972D01*
X108027Y191069D01*
X108416Y190680D01*
Y189635D01*
X107216Y188435D01*
X96439D01*
X96339Y188935D01*
X96497Y189000D01*
X97330Y189639D01*
X97968Y190471D01*
X98370Y191440D01*
X98455Y192087D01*
X94488D01*
X90521D01*
X90606Y191440D01*
X91008Y190471D01*
X91647Y189639D01*
X92479Y189000D01*
X92637Y188935D01*
X92538Y188435D01*
X83071D01*
X82619Y188247D01*
X78082Y183710D01*
X29725D01*
X28337Y185098D01*
X27885Y185285D01*
X25998D01*
X25916Y185697D01*
X25655Y186088D01*
X25264Y186349D01*
X24803Y186441D01*
X24342Y186349D01*
X23952Y186088D01*
X23691Y185697D01*
X23599Y185236D01*
X23691Y184775D01*
X23952Y184385D01*
Y184119D01*
X23691Y183729D01*
X23599Y183268D01*
X23691Y182807D01*
X23952Y182416D01*
X24342Y182155D01*
X24803Y182063D01*
X25264Y182155D01*
X25655Y182416D01*
X25916Y182807D01*
X25998Y183219D01*
X27294D01*
X28682Y181832D01*
X29134Y181644D01*
X78673D01*
X79125Y181832D01*
X83662Y186369D01*
X92217D01*
X92359Y185869D01*
X91647Y185322D01*
X91008Y184490D01*
X90606Y183520D01*
X90521Y182874D01*
X94488D01*
X98455D01*
X98370Y183520D01*
X97968Y184490D01*
X97330Y185322D01*
X96617Y185869D01*
X96759Y186369D01*
X104192D01*
X104225Y185869D01*
X103602Y185787D01*
X102777Y185445D01*
X102068Y184901D01*
X101524Y184192D01*
X101182Y183366D01*
X101065Y182480D01*
X101182Y181594D01*
X101524Y180769D01*
X102068Y180060D01*
X102777Y179516D01*
X103602Y179174D01*
X104225Y179092D01*
X104192Y178592D01*
X96759D01*
X96617Y179092D01*
X97330Y179639D01*
X97968Y180471D01*
X98370Y181440D01*
X98455Y182087D01*
X94488D01*
X90521D01*
X90606Y181440D01*
X91008Y180471D01*
X91647Y179639D01*
X92359Y179092D01*
X92217Y178592D01*
X91536D01*
X89755Y180373D01*
X89303Y180560D01*
X16603D01*
X15609Y181554D01*
X15354Y181660D01*
Y182185D01*
X15945D01*
Y183858D01*
X9449D01*
X2953D01*
Y182185D01*
X3543D01*
Y179626D01*
X3543D01*
Y179429D01*
X3543D01*
Y176870D01*
X2953D01*
Y175197D01*
X9449D01*
X15945D01*
Y176870D01*
X15354D01*
Y177395D01*
X15609Y177501D01*
X16603Y178495D01*
X88712D01*
X90493Y176713D01*
X90945Y176526D01*
X92538D01*
X92637Y176026D01*
X92479Y175961D01*
X91647Y175322D01*
X91008Y174490D01*
X90606Y173520D01*
X90521Y172874D01*
X94488D01*
X98455D01*
X98370Y173520D01*
X97968Y174490D01*
X97330Y175322D01*
X96497Y175961D01*
X96339Y176026D01*
X96439Y176526D01*
X108200D01*
X108652Y176713D01*
X110294Y178356D01*
X110482Y178808D01*
Y181071D01*
X110828Y181365D01*
X111327Y181244D01*
X111524Y180769D01*
X112068Y180060D01*
X112777Y179516D01*
X113602Y179174D01*
X114488Y179057D01*
X115374Y179174D01*
X116200Y179516D01*
X116909Y180060D01*
X117453Y180769D01*
X117795Y181594D01*
X117911Y182480D01*
X117795Y183366D01*
X117453Y184192D01*
X116909Y184901D01*
X116673Y185081D01*
X116843Y185581D01*
X146586D01*
X148204Y183963D01*
X148656Y183776D01*
X156789D01*
X157240Y183963D01*
X158696Y185418D01*
X160988D01*
X161317Y185042D01*
X161278Y184744D01*
X161393Y183871D01*
X161730Y183057D01*
X162267Y182358D01*
X162966Y181821D01*
X163780Y181484D01*
X164653Y181369D01*
X165527Y181484D01*
X166341Y181821D01*
X167040Y182358D01*
X167577Y183057D01*
X167914Y183871D01*
X168029Y184744D01*
X167914Y185618D01*
X167577Y186432D01*
X167040Y187131D01*
X166341Y187667D01*
X165527Y188005D01*
X164653Y188120D01*
X163780Y188005D01*
X162966Y187667D01*
X162267Y187131D01*
X161933Y186697D01*
X158431D01*
X158084Y187094D01*
X157932Y187460D01*
X156538Y188854D01*
X156733Y189324D01*
X156848Y190197D01*
X156733Y191071D01*
X156396Y191885D01*
X155859Y192584D01*
X155160Y193120D01*
X154346Y193458D01*
X153473Y193573D01*
X152599Y193458D01*
X151785Y193120D01*
X151086Y192584D01*
X150549Y191885D01*
X150212Y191071D01*
X150097Y190197D01*
X150212Y189324D01*
X150549Y188510D01*
X151086Y187811D01*
X151785Y187274D01*
X152599Y186937D01*
X153473Y186822D01*
X154346Y186937D01*
X155160Y187274D01*
X155811Y187773D01*
X156841Y186743D01*
Y186485D01*
X156198Y185842D01*
X149247D01*
X147628Y187460D01*
X147177Y187647D01*
X111091D01*
X110639Y187460D01*
X108603Y185424D01*
X108416Y184972D01*
Y183758D01*
X108295Y183590D01*
X107916Y183397D01*
X107751Y183472D01*
X107453Y184192D01*
X106909Y184901D01*
X106200Y185445D01*
X105374Y185787D01*
X104751Y185869D01*
X104784Y186369D01*
X107807D01*
X108258Y186556D01*
X110294Y188592D01*
X110482Y189044D01*
Y190680D01*
X110926Y191125D01*
X111417Y191027D01*
X111524Y190769D01*
X112068Y190060D01*
X112777Y189516D01*
X113602Y189174D01*
X114488Y189057D01*
X115374Y189174D01*
X116200Y189516D01*
X116909Y190060D01*
X117453Y190769D01*
X117795Y191594D01*
X117911Y192480D01*
X117795Y193366D01*
X117453Y194192D01*
X116909Y194901D01*
X116366Y195317D01*
X116535Y195817D01*
X157413D01*
X157865Y196005D01*
X160688Y198828D01*
X160875Y199280D01*
Y202688D01*
X160688Y203140D01*
X160516Y203313D01*
X161288Y204085D01*
X162375D01*
X162966Y203632D01*
X163780Y203295D01*
X164653Y203180D01*
X165527Y203295D01*
X166341Y203632D01*
X167040Y204169D01*
X167577Y204868D01*
X167914Y205682D01*
X168029Y206555D01*
X167914Y207429D01*
X167577Y208243D01*
X167040Y208942D01*
X166341Y209478D01*
X165527Y209816D01*
X164653Y209931D01*
D02*
G37*
G36*
X165047Y199568D02*
Y196043D01*
X168572D01*
X168489Y196677D01*
X168092Y197635D01*
X167461Y198457D01*
X166639Y199088D01*
X165681Y199485D01*
X165047Y199568D01*
D02*
G37*
G36*
X164260D02*
X163626Y199485D01*
X162668Y199088D01*
X161846Y198457D01*
X161214Y197635D01*
X160818Y196677D01*
X160734Y196043D01*
X164260D01*
Y199568D01*
D02*
G37*
G36*
X15945Y209055D02*
X9449D01*
X2953D01*
Y207382D01*
X3543D01*
Y205217D01*
X2953D01*
Y203543D01*
X9449D01*
X15945D01*
Y204894D01*
X37709D01*
X39092Y203512D01*
X38947Y203033D01*
X38842Y203013D01*
X38061Y202490D01*
X37539Y201709D01*
X37355Y200787D01*
X37539Y199866D01*
X38061Y199084D01*
X38842Y198562D01*
X39764Y198379D01*
X40685Y198562D01*
X40949Y198738D01*
X41390Y198503D01*
Y192925D01*
X48791D01*
Y206075D01*
X41390D01*
Y205841D01*
X40928Y205650D01*
X39285Y207293D01*
X38829Y207597D01*
X38291Y207704D01*
X15945D01*
Y209055D01*
D02*
G37*
G36*
X168572Y195256D02*
X165047D01*
Y191730D01*
X165681Y191814D01*
X166639Y192210D01*
X167461Y192841D01*
X168092Y193664D01*
X168489Y194622D01*
X168572Y195256D01*
D02*
G37*
G36*
X164260D02*
X160734D01*
X160818Y194622D01*
X161214Y193664D01*
X161846Y192841D01*
X162668Y192210D01*
X163626Y191814D01*
X164260Y191730D01*
Y195256D01*
D02*
G37*
G36*
X153866Y183210D02*
Y179685D01*
X157392D01*
X157308Y180319D01*
X156912Y181277D01*
X156281Y182099D01*
X155458Y182730D01*
X154500Y183127D01*
X153866Y183210D01*
D02*
G37*
G36*
X153079D02*
X152445Y183127D01*
X151487Y182730D01*
X150665Y182099D01*
X150034Y181277D01*
X149637Y180319D01*
X149553Y179685D01*
X153079D01*
Y183210D01*
D02*
G37*
G36*
X157392Y178898D02*
X153866D01*
Y175372D01*
X154500Y175456D01*
X155458Y175852D01*
X156281Y176483D01*
X156912Y177306D01*
X157308Y178264D01*
X157392Y178898D01*
D02*
G37*
G36*
X153079D02*
X149553D01*
X149637Y178264D01*
X150034Y177306D01*
X150665Y176483D01*
X151487Y175852D01*
X152445Y175456D01*
X153079Y175372D01*
Y178898D01*
D02*
G37*
G36*
X136153Y177805D02*
X111091D01*
X110639Y177617D01*
X108603Y175581D01*
X108416Y175129D01*
Y173800D01*
X108390Y173752D01*
X107916Y173465D01*
X107717Y173554D01*
X107453Y174192D01*
X106909Y174901D01*
X106200Y175445D01*
X105374Y175787D01*
X104488Y175903D01*
X103602Y175787D01*
X102777Y175445D01*
X102068Y174901D01*
X101524Y174192D01*
X101182Y173366D01*
X101065Y172480D01*
X101182Y171594D01*
X101524Y170769D01*
X102068Y170060D01*
X102777Y169516D01*
X103420Y169249D01*
X103321Y168749D01*
X96992D01*
X96823Y169249D01*
X97330Y169639D01*
X97968Y170471D01*
X98370Y171440D01*
X98455Y172087D01*
X94488D01*
X90521D01*
X90606Y171440D01*
X91008Y170471D01*
X91647Y169639D01*
X92154Y169249D01*
X91984Y168749D01*
X89567D01*
X82668Y175649D01*
X82216Y175836D01*
X25998D01*
X25916Y176248D01*
X25655Y176639D01*
X25264Y176900D01*
X24803Y176992D01*
X24342Y176900D01*
X23952Y176639D01*
X23691Y176248D01*
X23599Y175787D01*
X23691Y175327D01*
X23797Y175168D01*
X23910Y174803D01*
X23797Y174438D01*
X23691Y174280D01*
X23599Y173819D01*
X23691Y173358D01*
X23952Y172967D01*
X24342Y172706D01*
X24803Y172615D01*
X25264Y172706D01*
X25655Y172967D01*
X25916Y173358D01*
X25998Y173770D01*
X81625D01*
X88524Y166871D01*
X88976Y166684D01*
X92918D01*
X93017Y166184D01*
X92479Y165961D01*
X91647Y165322D01*
X91008Y164490D01*
X90606Y163520D01*
X90521Y162874D01*
X94488D01*
X98455D01*
X98370Y163520D01*
X97968Y164490D01*
X97330Y165322D01*
X96497Y165961D01*
X95959Y166184D01*
X96058Y166684D01*
X108200D01*
X108652Y166871D01*
X108975Y166505D01*
X108603Y166132D01*
X108416Y165681D01*
Y163783D01*
X108374Y163711D01*
X107916Y163445D01*
X107725Y163534D01*
X107453Y164192D01*
X106909Y164901D01*
X106200Y165445D01*
X105374Y165787D01*
X104488Y165903D01*
X103602Y165787D01*
X102777Y165445D01*
X102068Y164901D01*
X101524Y164192D01*
X101182Y163366D01*
X101065Y162480D01*
X101182Y161594D01*
X101524Y160769D01*
X102068Y160060D01*
X102777Y159516D01*
X103602Y159174D01*
X104488Y159057D01*
X105374Y159174D01*
X106200Y159516D01*
X106909Y160060D01*
X107453Y160769D01*
X107571Y161056D01*
X108102Y161176D01*
X108416Y160907D01*
Y159320D01*
X107609Y158513D01*
X96637D01*
X96510Y158964D01*
X96515Y159013D01*
X97330Y159639D01*
X97968Y160471D01*
X98370Y161440D01*
X98455Y162087D01*
X94488D01*
X90521D01*
X90606Y161440D01*
X91008Y160471D01*
X91647Y159639D01*
X92462Y159013D01*
X92467Y158964D01*
X92339Y158513D01*
X87993D01*
X75581Y170924D01*
X75129Y171112D01*
X16603D01*
X15609Y172106D01*
X15354Y172211D01*
Y172736D01*
X15945D01*
Y174409D01*
X9449D01*
X2953D01*
Y172736D01*
X3543D01*
Y170177D01*
X3543D01*
Y169980D01*
X3543D01*
Y167421D01*
X2953D01*
Y165748D01*
X9449D01*
X15945D01*
Y167421D01*
X15354D01*
Y167946D01*
X15609Y168052D01*
X16603Y169046D01*
X74538D01*
X86950Y156635D01*
X87402Y156447D01*
X92339D01*
X92467Y155997D01*
X92462Y155947D01*
X91647Y155322D01*
X91008Y154490D01*
X90606Y153520D01*
X90521Y152874D01*
X94488D01*
X98455D01*
X98370Y153520D01*
X97968Y154490D01*
X97330Y155322D01*
X96515Y155947D01*
X96510Y155997D01*
X96637Y156447D01*
X108200D01*
X108652Y156635D01*
X110294Y158277D01*
X110482Y158729D01*
Y161000D01*
X110851Y161321D01*
X111339Y161214D01*
X111524Y160769D01*
X112068Y160060D01*
X112777Y159516D01*
X113602Y159174D01*
X114488Y159057D01*
X115374Y159174D01*
X116200Y159516D01*
X116909Y160060D01*
X117453Y160769D01*
X117795Y161594D01*
X117911Y162480D01*
X117795Y163366D01*
X117453Y164192D01*
X116909Y164901D01*
X116263Y165396D01*
X116279Y165623D01*
X116401Y165896D01*
X141467D01*
X146605Y160759D01*
Y155579D01*
X146792Y155127D01*
X150403Y151516D01*
X150855Y151329D01*
X157413D01*
X157865Y151516D01*
X158696Y152347D01*
X160997D01*
X161278Y152027D01*
X161393Y151154D01*
X161730Y150340D01*
X162267Y149641D01*
X162966Y149104D01*
X163780Y148767D01*
X164653Y148652D01*
X165527Y148767D01*
X166341Y149104D01*
X167040Y149641D01*
X167577Y150340D01*
X167914Y151154D01*
X168029Y152027D01*
X167914Y152901D01*
X167577Y153715D01*
X167040Y154414D01*
X166341Y154950D01*
X165527Y155288D01*
X164653Y155403D01*
X163780Y155288D01*
X162966Y154950D01*
X162267Y154414D01*
X161730Y153715D01*
X161693Y153626D01*
X158513D01*
Y154724D01*
X158326Y155176D01*
X156752Y156751D01*
X156848Y157480D01*
X156733Y158354D01*
X156396Y159168D01*
X155859Y159867D01*
X155160Y160403D01*
X154346Y160741D01*
X153473Y160856D01*
X152599Y160741D01*
X151785Y160403D01*
X151086Y159867D01*
X150549Y159168D01*
X150212Y158354D01*
X150097Y157480D01*
X150212Y156607D01*
X150549Y155793D01*
X151086Y155094D01*
X151785Y154557D01*
X152599Y154220D01*
X153473Y154105D01*
X154346Y154220D01*
X155160Y154557D01*
X155859Y155094D01*
X155950Y155212D01*
X156449Y155245D01*
X157235Y154460D01*
Y153808D01*
X156822Y153395D01*
X151446D01*
X148671Y156170D01*
Y161350D01*
X148484Y161802D01*
X142510Y167775D01*
X142059Y167962D01*
X110697D01*
X110246Y167775D01*
X109922Y168141D01*
X110294Y168513D01*
X110482Y168965D01*
Y170920D01*
X110871Y171263D01*
X111359Y171166D01*
X111524Y170769D01*
X112068Y170060D01*
X112777Y169516D01*
X113602Y169174D01*
X114488Y169057D01*
X115374Y169174D01*
X116200Y169516D01*
X116909Y170060D01*
X117453Y170769D01*
X117795Y171594D01*
X117911Y172480D01*
X117795Y173366D01*
X117453Y174192D01*
X116909Y174901D01*
X116468Y175239D01*
X116638Y175739D01*
X135562D01*
X148761Y162540D01*
X149213Y162353D01*
X156625D01*
X157077Y162540D01*
X161082Y166545D01*
X161269Y166997D01*
Y170011D01*
X161082Y170463D01*
X160645Y170900D01*
Y171552D01*
X161250Y172157D01*
X161826Y172026D01*
X162267Y171452D01*
X162966Y170915D01*
X163780Y170578D01*
X164653Y170463D01*
X165527Y170578D01*
X166341Y170915D01*
X167040Y171452D01*
X167577Y172151D01*
X167914Y172965D01*
X168029Y173838D01*
X167914Y174712D01*
X167577Y175526D01*
X167040Y176225D01*
X166341Y176761D01*
X165527Y177099D01*
X164653Y177214D01*
X163780Y177099D01*
X162966Y176761D01*
X162267Y176225D01*
X161730Y175526D01*
X161393Y174712D01*
X161302Y174016D01*
X159554Y172269D01*
X159366Y171817D01*
Y170718D01*
X155902D01*
X155859Y170773D01*
X155160Y171309D01*
X154346Y171647D01*
X153473Y171762D01*
X152599Y171647D01*
X151785Y171309D01*
X151086Y170773D01*
X150549Y170074D01*
X150212Y169260D01*
X150097Y168386D01*
X150212Y167513D01*
X150549Y166699D01*
X151086Y166000D01*
X151785Y165463D01*
X152599Y165126D01*
X153473Y165011D01*
X154346Y165126D01*
X155160Y165463D01*
X155859Y166000D01*
X156396Y166699D01*
X156733Y167513D01*
X156848Y168386D01*
X156775Y168939D01*
X157163Y169439D01*
X159184D01*
X159203Y169420D01*
Y167588D01*
X156034Y164419D01*
X149803D01*
X136605Y177617D01*
X136153Y177805D01*
D02*
G37*
G36*
X165047Y166852D02*
Y163327D01*
X168572D01*
X168489Y163961D01*
X168092Y164919D01*
X167461Y165741D01*
X166639Y166372D01*
X165681Y166769D01*
X165047Y166852D01*
D02*
G37*
G36*
X164260D02*
X163626Y166769D01*
X162668Y166372D01*
X161846Y165741D01*
X161214Y164919D01*
X160818Y163961D01*
X160734Y163327D01*
X164260D01*
Y166852D01*
D02*
G37*
G36*
X168572Y162540D02*
X165047D01*
Y159014D01*
X165681Y159098D01*
X166639Y159494D01*
X167461Y160125D01*
X168092Y160948D01*
X168489Y161906D01*
X168572Y162540D01*
D02*
G37*
G36*
X164260D02*
X160734D01*
X160818Y161906D01*
X161214Y160948D01*
X161846Y160125D01*
X162668Y159494D01*
X163626Y159098D01*
X164260Y159014D01*
Y162540D01*
D02*
G37*
G36*
X153866Y150495D02*
Y146969D01*
X157392D01*
X157308Y147603D01*
X156912Y148561D01*
X156281Y149383D01*
X155458Y150014D01*
X154500Y150411D01*
X153866Y150495D01*
D02*
G37*
G36*
X153079D02*
X152445Y150411D01*
X151487Y150014D01*
X150665Y149383D01*
X150034Y148561D01*
X149637Y147603D01*
X149553Y146969D01*
X153079D01*
Y150495D01*
D02*
G37*
G36*
X15945Y145374D02*
X9843D01*
Y143701D01*
X15945D01*
Y145374D01*
D02*
G37*
G36*
X9055D02*
X2953D01*
Y143701D01*
X9055D01*
Y145374D01*
D02*
G37*
G36*
X157392Y146182D02*
X153866D01*
Y142656D01*
X154500Y142740D01*
X155458Y143136D01*
X156281Y143767D01*
X156912Y144590D01*
X157308Y145548D01*
X157392Y146182D01*
D02*
G37*
G36*
X153079D02*
X149553D01*
X149637Y145548D01*
X150034Y144590D01*
X150665Y143767D01*
X151487Y143136D01*
X152445Y142740D01*
X153079Y142656D01*
Y146182D01*
D02*
G37*
G36*
X24803Y167543D02*
X24342Y167451D01*
X23952Y167190D01*
X23691Y166799D01*
X23599Y166339D01*
X23691Y165878D01*
X23952Y165487D01*
Y165222D01*
X23691Y164831D01*
X23599Y164370D01*
X23691Y163909D01*
X23952Y163519D01*
X24342Y163258D01*
X24803Y163166D01*
X25264Y163258D01*
X25655Y163519D01*
X25916Y163909D01*
X25998Y164321D01*
X73425D01*
X90954Y146792D01*
X91406Y146605D01*
X92728D01*
X92827Y146105D01*
X92479Y145961D01*
X91647Y145322D01*
X91008Y144490D01*
X90606Y143520D01*
X90521Y142874D01*
X94488D01*
X98455D01*
X98370Y143520D01*
X97968Y144490D01*
X97330Y145322D01*
X96497Y145961D01*
X96149Y146105D01*
X96249Y146605D01*
X108200D01*
X108652Y146792D01*
X110294Y148434D01*
X110482Y148886D01*
Y150880D01*
X110858Y151214D01*
X111382Y151110D01*
X111524Y150769D01*
X112068Y150060D01*
X112777Y149516D01*
X113602Y149174D01*
X114488Y149057D01*
X115374Y149174D01*
X116200Y149516D01*
X116909Y150060D01*
X117453Y150769D01*
X117795Y151594D01*
X117911Y152480D01*
X117795Y153366D01*
X117453Y154192D01*
X116909Y154901D01*
X116571Y155160D01*
X116740Y155660D01*
X136349D01*
X146605Y145405D01*
Y133138D01*
X146792Y132686D01*
X150009Y129469D01*
X150461Y129282D01*
X156232D01*
X156684Y129469D01*
X161082Y133868D01*
X161269Y134319D01*
Y137334D01*
X161082Y137786D01*
X160645Y138223D01*
Y138875D01*
X161242Y139472D01*
X161809Y139332D01*
X162267Y138736D01*
X162966Y138199D01*
X163780Y137862D01*
X164653Y137747D01*
X165527Y137862D01*
X166341Y138199D01*
X167040Y138736D01*
X167577Y139435D01*
X167914Y140249D01*
X168029Y141122D01*
X167914Y141996D01*
X167577Y142810D01*
X167040Y143509D01*
X166341Y144045D01*
X165527Y144383D01*
X164653Y144498D01*
X163780Y144383D01*
X162966Y144045D01*
X162267Y143509D01*
X161730Y142810D01*
X161393Y141996D01*
X161307Y141345D01*
X159554Y139592D01*
X159366Y139139D01*
Y138041D01*
X155871D01*
X155859Y138056D01*
X155160Y138592D01*
X154346Y138930D01*
X153473Y139045D01*
X152599Y138930D01*
X151785Y138592D01*
X151086Y138056D01*
X150549Y137357D01*
X150212Y136543D01*
X150097Y135669D01*
X150212Y134796D01*
X150549Y133982D01*
X151086Y133283D01*
X151785Y132746D01*
X152599Y132409D01*
X153473Y132294D01*
X154346Y132409D01*
X155160Y132746D01*
X155859Y133283D01*
X156396Y133982D01*
X156733Y134796D01*
X156848Y135669D01*
X156770Y136262D01*
X157140Y136762D01*
X159184D01*
X159203Y136743D01*
Y134910D01*
X155641Y131348D01*
X151052D01*
X148671Y133729D01*
Y145995D01*
X148484Y146448D01*
X137392Y157539D01*
X136940Y157726D01*
X111485D01*
X111033Y157539D01*
X108603Y155109D01*
X108416Y154657D01*
Y153775D01*
X108368Y153694D01*
X107916Y153437D01*
X107728Y153527D01*
X107453Y154192D01*
X106909Y154901D01*
X106200Y155445D01*
X105374Y155787D01*
X104488Y155903D01*
X103602Y155787D01*
X102777Y155445D01*
X102068Y154901D01*
X101524Y154192D01*
X101182Y153366D01*
X101065Y152480D01*
X101182Y151594D01*
X101524Y150769D01*
X102068Y150060D01*
X102777Y149516D01*
X103602Y149174D01*
X103627Y149171D01*
X103594Y148671D01*
X96890D01*
X96720Y149171D01*
X97330Y149639D01*
X97968Y150471D01*
X98370Y151440D01*
X98455Y152087D01*
X94488D01*
X90521D01*
X90606Y151440D01*
X91008Y150471D01*
X91351Y150024D01*
X90974Y149693D01*
X74468Y166200D01*
X74016Y166387D01*
X25998D01*
X25916Y166799D01*
X25655Y167190D01*
X25264Y167451D01*
X24803Y167543D01*
D02*
G37*
G36*
X165047Y134135D02*
Y130610D01*
X168572D01*
X168489Y131244D01*
X168092Y132202D01*
X167461Y133024D01*
X166639Y133655D01*
X165681Y134052D01*
X165047Y134135D01*
D02*
G37*
G36*
X164260D02*
X163626Y134052D01*
X162668Y133655D01*
X161846Y133024D01*
X161214Y132202D01*
X160818Y131244D01*
X160734Y130610D01*
X164260D01*
Y134135D01*
D02*
G37*
G36*
X98455Y132087D02*
X94882D01*
Y128514D01*
X95528Y128599D01*
X96497Y129000D01*
X97330Y129639D01*
X97968Y130471D01*
X98370Y131440D01*
X98455Y132087D01*
D02*
G37*
G36*
X15945Y164961D02*
X9449D01*
X2953D01*
Y163287D01*
X3543D01*
Y160728D01*
X3543D01*
Y160531D01*
X3543D01*
Y157579D01*
X15354D01*
Y158497D01*
X15609Y158603D01*
X16603Y159597D01*
X67845D01*
X90887Y136556D01*
X91339Y136369D01*
X92217D01*
X92359Y135869D01*
X91647Y135322D01*
X91008Y134490D01*
X90606Y133520D01*
X90521Y132874D01*
X94488D01*
X98455D01*
X98370Y133520D01*
X97968Y134490D01*
X97330Y135322D01*
X96617Y135869D01*
X96759Y136369D01*
X104192D01*
X104225Y135869D01*
X103602Y135787D01*
X102777Y135445D01*
X102068Y134901D01*
X101524Y134192D01*
X101182Y133366D01*
X101065Y132480D01*
X101182Y131594D01*
X101524Y130769D01*
X102068Y130060D01*
X102777Y129516D01*
X103602Y129174D01*
X104488Y129057D01*
X105374Y129174D01*
X106200Y129516D01*
X106909Y130060D01*
X107453Y130769D01*
X107583Y131083D01*
X108073Y131180D01*
X108416Y130838D01*
Y129005D01*
X107216Y127805D01*
X92785D01*
X91588Y129001D01*
X91586Y129055D01*
X91765Y129205D01*
X92077Y129309D01*
X92479Y129000D01*
X93448Y128599D01*
X94095Y128514D01*
Y132087D01*
X90521D01*
X90606Y131440D01*
X91008Y130471D01*
X91317Y130069D01*
X91213Y129757D01*
X91063Y129578D01*
X91009Y129581D01*
X63050Y157539D01*
X62598Y157726D01*
X31510D01*
X31427Y158138D01*
X31166Y158529D01*
X30776Y158790D01*
X30315Y158881D01*
X29854Y158790D01*
X29463Y158529D01*
X29202Y158138D01*
X29111Y157677D01*
X29202Y157216D01*
X29463Y156826D01*
Y156560D01*
X29202Y156169D01*
X29111Y155709D01*
X29202Y155248D01*
X29463Y154857D01*
X29854Y154596D01*
X30315Y154504D01*
X30776Y154596D01*
X31166Y154857D01*
X31427Y155248D01*
X31510Y155660D01*
X62007D01*
X91742Y125926D01*
X92194Y125739D01*
X107807D01*
X108258Y125926D01*
X110294Y127962D01*
X110482Y128414D01*
Y130838D01*
X110880Y131236D01*
X111371Y131139D01*
X111524Y130769D01*
X112068Y130060D01*
X112777Y129516D01*
X113602Y129174D01*
X114488Y129057D01*
X115374Y129174D01*
X116200Y129516D01*
X116909Y130060D01*
X117453Y130769D01*
X117795Y131594D01*
X117911Y132480D01*
X117795Y133366D01*
X117453Y134192D01*
X116909Y134901D01*
X116200Y135445D01*
X116127Y135475D01*
X116226Y135975D01*
X133200D01*
X143849Y125326D01*
Y102430D01*
X144036Y101978D01*
X148828Y97186D01*
X149280Y96999D01*
X156625D01*
X157077Y97186D01*
X161476Y101584D01*
X161663Y102036D01*
Y103869D01*
X161476Y104322D01*
X160645Y105152D01*
Y105804D01*
X161317Y106476D01*
X161963Y106415D01*
X162267Y106019D01*
X162966Y105482D01*
X163780Y105145D01*
X164653Y105030D01*
X165527Y105145D01*
X166341Y105482D01*
X167040Y106019D01*
X167577Y106718D01*
X167914Y107532D01*
X168029Y108405D01*
X167914Y109279D01*
X167577Y110093D01*
X167040Y110792D01*
X166341Y111328D01*
X165527Y111666D01*
X164653Y111781D01*
X163780Y111666D01*
X162966Y111328D01*
X162267Y110792D01*
X161730Y110093D01*
X161393Y109279D01*
X161278Y108405D01*
X161321Y108080D01*
X160965Y107932D01*
X159554Y106521D01*
X159366Y106069D01*
Y104970D01*
X156143D01*
X155859Y105340D01*
X155160Y105876D01*
X154346Y106214D01*
X153473Y106329D01*
X152599Y106214D01*
X151785Y105876D01*
X151086Y105340D01*
X150549Y104641D01*
X150212Y103827D01*
X150097Y102953D01*
X150212Y102080D01*
X150549Y101266D01*
X151086Y100567D01*
X151785Y100030D01*
X152599Y99693D01*
X153473Y99578D01*
X154346Y99693D01*
X155160Y100030D01*
X155859Y100567D01*
X156396Y101266D01*
X156733Y102080D01*
X156848Y102953D01*
X156800Y103316D01*
X157130Y103691D01*
X159184D01*
X159597Y103279D01*
Y102627D01*
X156034Y99064D01*
X149871D01*
X145915Y103021D01*
Y121917D01*
X146327Y122036D01*
X146415Y122040D01*
X149616Y118839D01*
X150067Y118652D01*
X157019D01*
X157471Y118839D01*
X159252Y120621D01*
X161124D01*
X161325Y120319D01*
X161385Y120121D01*
X161278Y119311D01*
X161393Y118438D01*
X161730Y117624D01*
X162267Y116925D01*
X162966Y116388D01*
X163780Y116051D01*
X164653Y115936D01*
X165527Y116051D01*
X166341Y116388D01*
X167040Y116925D01*
X167577Y117624D01*
X167914Y118438D01*
X168029Y119311D01*
X167914Y120185D01*
X167577Y120999D01*
X167040Y121698D01*
X166341Y122234D01*
X165527Y122572D01*
X164653Y122687D01*
X163780Y122572D01*
X162966Y122234D01*
X162529Y121899D01*
X158988D01*
X158619Y121747D01*
X158119Y121949D01*
Y122047D01*
X157932Y122499D01*
X156677Y123755D01*
X156733Y123891D01*
X156848Y124764D01*
X156733Y125638D01*
X156396Y126452D01*
X155859Y127151D01*
X155160Y127687D01*
X154346Y128025D01*
X153473Y128140D01*
X152599Y128025D01*
X151785Y127687D01*
X151086Y127151D01*
X150549Y126452D01*
X150212Y125638D01*
X150097Y124764D01*
X150212Y123891D01*
X150549Y123077D01*
X151086Y122378D01*
X151785Y121841D01*
X152599Y121504D01*
X153473Y121389D01*
X154346Y121504D01*
X155160Y121841D01*
X155859Y122378D01*
X156222Y122401D01*
X156841Y121783D01*
Y121131D01*
X156428Y120718D01*
X150659D01*
X148277Y123099D01*
Y129854D01*
X148090Y130306D01*
X130306Y148090D01*
X129854Y148277D01*
X111485D01*
X111033Y148090D01*
X108603Y145660D01*
X108416Y145208D01*
Y143806D01*
X107916Y143491D01*
X107706Y143580D01*
X107453Y144192D01*
X106909Y144901D01*
X106200Y145445D01*
X105374Y145787D01*
X104488Y145903D01*
X103602Y145787D01*
X102777Y145445D01*
X102068Y144901D01*
X101524Y144192D01*
X101182Y143366D01*
X101065Y142480D01*
X101182Y141594D01*
X101524Y140769D01*
X102068Y140060D01*
X102777Y139516D01*
X103602Y139174D01*
X104488Y139057D01*
X105374Y139174D01*
X106200Y139516D01*
X106909Y140060D01*
X107453Y140769D01*
X107566Y141042D01*
X108079Y141157D01*
X108416Y140867D01*
Y139241D01*
X107609Y138435D01*
X96439D01*
X96339Y138935D01*
X96497Y139000D01*
X97330Y139639D01*
X97968Y140471D01*
X98370Y141440D01*
X98455Y142087D01*
X94488D01*
X90521D01*
X90606Y141440D01*
X91008Y140471D01*
X91647Y139639D01*
X92479Y139000D01*
X92637Y138935D01*
X92538Y138435D01*
X91930D01*
X68888Y161476D01*
X68436Y161663D01*
X16603D01*
X15609Y162657D01*
X15354Y162762D01*
Y163287D01*
X15945D01*
Y164961D01*
D02*
G37*
G36*
X168572Y129823D02*
X165047D01*
Y126297D01*
X165681Y126381D01*
X166639Y126777D01*
X167461Y127408D01*
X168092Y128231D01*
X168489Y129189D01*
X168572Y129823D01*
D02*
G37*
G36*
X164260D02*
X160734D01*
X160818Y129189D01*
X161214Y128231D01*
X161846Y127408D01*
X162668Y126777D01*
X163626Y126381D01*
X164260Y126297D01*
Y129823D01*
D02*
G37*
G36*
X153866Y117777D02*
Y114252D01*
X157392D01*
X157308Y114886D01*
X156912Y115844D01*
X156281Y116666D01*
X155458Y117297D01*
X154500Y117694D01*
X153866Y117777D01*
D02*
G37*
G36*
X153079D02*
X152445Y117694D01*
X151487Y117297D01*
X150665Y116666D01*
X150034Y115844D01*
X149637Y114886D01*
X149553Y114252D01*
X153079D01*
Y117777D01*
D02*
G37*
G36*
X114882Y115947D02*
Y112374D01*
X118455D01*
X118370Y113020D01*
X117968Y113990D01*
X117330Y114822D01*
X116498Y115461D01*
X115528Y115862D01*
X114882Y115947D01*
D02*
G37*
G36*
X114094D02*
X113448Y115862D01*
X112479Y115461D01*
X111647Y114822D01*
X111008Y113990D01*
X110607Y113020D01*
X110521Y112374D01*
X114094D01*
Y115947D01*
D02*
G37*
G36*
X157392Y113465D02*
X153866D01*
Y109939D01*
X154500Y110023D01*
X155458Y110419D01*
X156281Y111050D01*
X156912Y111873D01*
X157308Y112830D01*
X157392Y113465D01*
D02*
G37*
G36*
X153079D02*
X149553D01*
X149637Y112830D01*
X150034Y111873D01*
X150665Y111050D01*
X151487Y110419D01*
X152445Y110023D01*
X153079Y109939D01*
Y113465D01*
D02*
G37*
G36*
X15945Y142913D02*
X9449D01*
X2953D01*
Y141240D01*
X3543D01*
Y138984D01*
X3543Y138681D01*
X3543Y138181D01*
Y135925D01*
X2953D01*
Y134252D01*
X9449D01*
X15945D01*
Y135925D01*
X16329Y136205D01*
X65416D01*
X87386Y114234D01*
Y109492D01*
X87447Y109185D01*
X87621Y108924D01*
X92072Y104473D01*
X92068Y104401D01*
X91524Y103692D01*
X91182Y102866D01*
X91065Y101980D01*
X91182Y101094D01*
X91524Y100269D01*
X92068Y99560D01*
X92777Y99016D01*
X93602Y98674D01*
X94488Y98557D01*
X95374Y98674D01*
X96200Y99016D01*
X96909Y99560D01*
X97453Y100269D01*
X97795Y101094D01*
X97911Y101980D01*
X97795Y102866D01*
X97453Y103692D01*
X96909Y104401D01*
X96200Y104945D01*
X95374Y105287D01*
X94488Y105403D01*
X93602Y105287D01*
X93551Y105265D01*
X88992Y109825D01*
Y114567D01*
X88992Y114567D01*
X88931Y114874D01*
X88757Y115135D01*
X88757Y115135D01*
X66316Y137576D01*
X66055Y137750D01*
X65748Y137811D01*
X15708D01*
X15354Y138164D01*
Y138484D01*
X15354Y139001D01*
X15708Y139355D01*
X65978D01*
X91094Y114239D01*
Y108587D01*
X97882D01*
Y115374D01*
X92230D01*
X66879Y140725D01*
X66618Y140899D01*
X66311Y140960D01*
X16329D01*
X15945Y141240D01*
Y142913D01*
D02*
G37*
G36*
X104488Y115403D02*
X103602Y115287D01*
X102777Y114945D01*
X102068Y114401D01*
X101524Y113692D01*
X101182Y112866D01*
X101065Y111980D01*
X101182Y111094D01*
X101524Y110269D01*
X102068Y109560D01*
X102777Y109016D01*
X103602Y108674D01*
X104488Y108557D01*
X105374Y108674D01*
X106200Y109016D01*
X106909Y109560D01*
X107453Y110269D01*
X107794Y111094D01*
X107911Y111980D01*
X107794Y112866D01*
X107453Y113692D01*
X106909Y114401D01*
X106200Y114945D01*
X105374Y115287D01*
X104488Y115403D01*
D02*
G37*
G36*
X118455Y111587D02*
X114882D01*
Y108013D01*
X115528Y108099D01*
X116498Y108500D01*
X117330Y109139D01*
X117968Y109971D01*
X118370Y110940D01*
X118455Y111587D01*
D02*
G37*
G36*
X114094D02*
X110521D01*
X110607Y110940D01*
X111008Y109971D01*
X111647Y109139D01*
X112479Y108500D01*
X113448Y108099D01*
X114094Y108013D01*
Y111587D01*
D02*
G37*
G36*
X114882Y105947D02*
Y102374D01*
X118455D01*
X118370Y103020D01*
X117968Y103990D01*
X117330Y104822D01*
X116498Y105461D01*
X115528Y105862D01*
X114882Y105947D01*
D02*
G37*
G36*
X114094D02*
X113448Y105862D01*
X112479Y105461D01*
X111647Y104822D01*
X111008Y103990D01*
X110607Y103020D01*
X110521Y102374D01*
X114094D01*
Y105947D01*
D02*
G37*
G36*
X104488Y105403D02*
X103602Y105287D01*
X102777Y104945D01*
X102068Y104401D01*
X101524Y103692D01*
X101182Y102866D01*
X101065Y101980D01*
X101182Y101094D01*
X101524Y100269D01*
X102068Y99560D01*
X102777Y99016D01*
X103602Y98674D01*
X104488Y98557D01*
X105374Y98674D01*
X106200Y99016D01*
X106909Y99560D01*
X107453Y100269D01*
X107794Y101094D01*
X107911Y101980D01*
X107794Y102866D01*
X107453Y103692D01*
X106909Y104401D01*
X106200Y104945D01*
X105374Y105287D01*
X104488Y105403D01*
D02*
G37*
G36*
X118455Y101587D02*
X114882D01*
Y98014D01*
X115528Y98099D01*
X116498Y98500D01*
X117330Y99139D01*
X117968Y99971D01*
X118370Y100940D01*
X118455Y101587D01*
D02*
G37*
G36*
X114094D02*
X110521D01*
X110607Y100940D01*
X111008Y99971D01*
X111647Y99139D01*
X112479Y98500D01*
X113448Y98099D01*
X114094Y98014D01*
Y101587D01*
D02*
G37*
G36*
X165047Y101419D02*
Y97894D01*
X168572D01*
X168489Y98528D01*
X168092Y99486D01*
X167461Y100308D01*
X166639Y100939D01*
X165681Y101336D01*
X165047Y101419D01*
D02*
G37*
G36*
X164260D02*
X163626Y101336D01*
X162668Y100939D01*
X161846Y100308D01*
X161214Y99486D01*
X160818Y98528D01*
X160734Y97894D01*
X164260D01*
Y101419D01*
D02*
G37*
G36*
X168572Y97107D02*
X165047D01*
Y93581D01*
X165681Y93665D01*
X166639Y94061D01*
X167461Y94692D01*
X168092Y95515D01*
X168489Y96473D01*
X168572Y97107D01*
D02*
G37*
G36*
X164260D02*
X160734D01*
X160818Y96473D01*
X161214Y95515D01*
X161846Y94692D01*
X162668Y94061D01*
X163626Y93665D01*
X164260Y93581D01*
Y97107D01*
D02*
G37*
G36*
X153866Y95966D02*
Y92441D01*
X157392D01*
X157308Y93075D01*
X156912Y94033D01*
X156281Y94855D01*
X155458Y95486D01*
X154500Y95883D01*
X153866Y95966D01*
D02*
G37*
G36*
X153079D02*
X152445Y95883D01*
X151487Y95486D01*
X150665Y94855D01*
X150034Y94033D01*
X149637Y93075D01*
X149553Y92441D01*
X153079D01*
Y95966D01*
D02*
G37*
G36*
X114882Y95947D02*
Y92374D01*
X118455D01*
X118370Y93020D01*
X117968Y93990D01*
X117330Y94822D01*
X116498Y95461D01*
X115528Y95862D01*
X114882Y95947D01*
D02*
G37*
G36*
X114094D02*
X113448Y95862D01*
X112479Y95461D01*
X111647Y94822D01*
X111008Y93990D01*
X110607Y93020D01*
X110521Y92374D01*
X114094D01*
Y95947D01*
D02*
G37*
G36*
X104488Y95403D02*
X103602Y95287D01*
X102777Y94945D01*
X102068Y94401D01*
X101524Y93692D01*
X101182Y92866D01*
X101065Y91980D01*
X101182Y91094D01*
X101524Y90269D01*
X102068Y89560D01*
X102777Y89016D01*
X103602Y88674D01*
X104488Y88557D01*
X105374Y88674D01*
X106200Y89016D01*
X106909Y89560D01*
X107453Y90269D01*
X107794Y91094D01*
X107911Y91980D01*
X107794Y92866D01*
X107453Y93692D01*
X106909Y94401D01*
X106200Y94945D01*
X105374Y95287D01*
X104488Y95403D01*
D02*
G37*
G36*
X15945Y133465D02*
X9449D01*
X2953D01*
Y131791D01*
X3543D01*
Y129535D01*
X3543Y129232D01*
X3543Y128732D01*
Y126476D01*
X2953D01*
Y124803D01*
X9449D01*
X15945D01*
Y126476D01*
X16329Y126756D01*
X60691D01*
X85024Y102423D01*
Y92913D01*
X85085Y92606D01*
X85259Y92346D01*
X92443Y85162D01*
X92410Y84663D01*
X92068Y84401D01*
X91524Y83692D01*
X91182Y82866D01*
X91065Y81980D01*
X91182Y81094D01*
X91524Y80269D01*
X92068Y79560D01*
X92777Y79016D01*
X93602Y78674D01*
X94488Y78557D01*
X95374Y78674D01*
X96200Y79016D01*
X96909Y79560D01*
X97453Y80269D01*
X97795Y81094D01*
X97911Y81980D01*
X97795Y82866D01*
X97453Y83692D01*
X96909Y84401D01*
X96200Y84945D01*
X95374Y85287D01*
X94488Y85403D01*
X94474Y85401D01*
X86630Y93246D01*
Y102756D01*
X86630Y102756D01*
X86568Y103063D01*
X86395Y103324D01*
X61591Y128127D01*
X61331Y128301D01*
X61024Y128362D01*
X15708D01*
X15354Y128716D01*
Y129035D01*
X15354Y129552D01*
X15708Y129906D01*
X61872D01*
X87780Y103998D01*
Y99213D01*
X87841Y98905D01*
X88015Y98645D01*
X92080Y94580D01*
X92068Y94401D01*
X91524Y93692D01*
X91182Y92866D01*
X91065Y91980D01*
X91182Y91094D01*
X91524Y90269D01*
X92068Y89560D01*
X92777Y89016D01*
X93602Y88674D01*
X94488Y88557D01*
X95374Y88674D01*
X96200Y89016D01*
X96909Y89560D01*
X97453Y90269D01*
X97795Y91094D01*
X97911Y91980D01*
X97795Y92866D01*
X97453Y93692D01*
X96909Y94401D01*
X96200Y94945D01*
X95374Y95287D01*
X94488Y95403D01*
X93639Y95292D01*
X89385Y99545D01*
Y104331D01*
X89324Y104638D01*
X89150Y104898D01*
X89150Y104898D01*
X62772Y131276D01*
X62512Y131450D01*
X62205Y131511D01*
X16329D01*
X15945Y131791D01*
Y133465D01*
D02*
G37*
G36*
X157392Y91654D02*
X153866D01*
Y88128D01*
X154500Y88212D01*
X155458Y88608D01*
X156281Y89239D01*
X156912Y90062D01*
X157308Y91020D01*
X157392Y91654D01*
D02*
G37*
G36*
X153079D02*
X149553D01*
X149637Y91020D01*
X150034Y90062D01*
X150665Y89239D01*
X151487Y88608D01*
X152445Y88212D01*
X153079Y88128D01*
Y91654D01*
D02*
G37*
G36*
X118455Y91587D02*
X114882D01*
Y88013D01*
X115528Y88099D01*
X116498Y88500D01*
X117330Y89139D01*
X117968Y89971D01*
X118370Y90940D01*
X118455Y91587D01*
D02*
G37*
G36*
X114094D02*
X110521D01*
X110607Y90940D01*
X111008Y89971D01*
X111647Y89139D01*
X112479Y88500D01*
X113448Y88099D01*
X114094Y88013D01*
Y91587D01*
D02*
G37*
G36*
X42320Y85146D02*
X39761D01*
Y82784D01*
X42320D01*
Y85146D01*
D02*
G37*
G36*
X114882Y85947D02*
Y82374D01*
X118455D01*
X118370Y83020D01*
X117968Y83990D01*
X117330Y84822D01*
X116498Y85461D01*
X115528Y85862D01*
X114882Y85947D01*
D02*
G37*
G36*
X114094D02*
X113448Y85862D01*
X112479Y85461D01*
X111647Y84822D01*
X111008Y83990D01*
X110607Y83020D01*
X110521Y82374D01*
X114094D01*
Y85947D01*
D02*
G37*
G36*
X153866Y85062D02*
Y81536D01*
X157392D01*
X157308Y82170D01*
X156912Y83128D01*
X156281Y83950D01*
X155458Y84581D01*
X154500Y84978D01*
X153866Y85062D01*
D02*
G37*
G36*
X153079D02*
X152445Y84978D01*
X151487Y84581D01*
X150665Y83950D01*
X150034Y83128D01*
X149637Y82170D01*
X149553Y81536D01*
X153079D01*
Y85062D01*
D02*
G37*
G36*
X42320Y81997D02*
X39761D01*
Y79635D01*
X42320D01*
Y81997D01*
D02*
G37*
G36*
X104488Y85403D02*
X103602Y85287D01*
X102777Y84945D01*
X102068Y84401D01*
X101524Y83692D01*
X101182Y82866D01*
X101065Y81980D01*
X101182Y81094D01*
X101524Y80269D01*
X102068Y79560D01*
X102777Y79016D01*
X103602Y78674D01*
X104488Y78557D01*
X105374Y78674D01*
X106200Y79016D01*
X106909Y79560D01*
X107453Y80269D01*
X107794Y81094D01*
X107911Y81980D01*
X107794Y82866D01*
X107453Y83692D01*
X106909Y84401D01*
X106200Y84945D01*
X105374Y85287D01*
X104488Y85403D01*
D02*
G37*
G36*
X118455Y81587D02*
X114882D01*
Y78013D01*
X115528Y78099D01*
X116498Y78500D01*
X117330Y79139D01*
X117968Y79971D01*
X118370Y80940D01*
X118455Y81587D01*
D02*
G37*
G36*
X114094D02*
X110521D01*
X110607Y80940D01*
X111008Y79971D01*
X111647Y79139D01*
X112479Y78500D01*
X113448Y78099D01*
X114094Y78013D01*
Y81587D01*
D02*
G37*
G36*
X157392Y80749D02*
X153866D01*
Y77223D01*
X154500Y77307D01*
X155458Y77703D01*
X156281Y78334D01*
X156912Y79157D01*
X157308Y80115D01*
X157392Y80749D01*
D02*
G37*
G36*
X153079D02*
X149553D01*
X149637Y80115D01*
X150034Y79157D01*
X150665Y78334D01*
X151487Y77703D01*
X152445Y77307D01*
X153079Y77223D01*
Y80749D01*
D02*
G37*
G36*
X114882Y75947D02*
Y72374D01*
X118455D01*
X118370Y73020D01*
X117968Y73990D01*
X117330Y74822D01*
X116498Y75461D01*
X115528Y75862D01*
X114882Y75947D01*
D02*
G37*
G36*
X114094D02*
X113448Y75862D01*
X112479Y75461D01*
X111647Y74822D01*
X111008Y73990D01*
X110607Y73020D01*
X110521Y72374D01*
X114094D01*
Y75947D01*
D02*
G37*
G36*
X164961Y297684D02*
X138583D01*
X137661Y297501D01*
X136880Y296979D01*
X114790Y274889D01*
X106918D01*
X106909Y274901D01*
X106200Y275445D01*
X105374Y275787D01*
X104488Y275903D01*
X103602Y275787D01*
X102777Y275445D01*
X102068Y274901D01*
X102059Y274889D01*
X96918D01*
X96909Y274901D01*
X96200Y275445D01*
X95374Y275787D01*
X94488Y275903D01*
X93602Y275787D01*
X92777Y275445D01*
X92068Y274901D01*
X92059Y274889D01*
X80551D01*
X79629Y274706D01*
X78848Y274183D01*
X71919Y267254D01*
X71397Y266473D01*
X71214Y265551D01*
Y220289D01*
X68110Y217186D01*
X67610Y217393D01*
Y221075D01*
X60209D01*
Y207925D01*
X67610D01*
Y212091D01*
X68831D01*
X69752Y212275D01*
X70534Y212797D01*
X75325Y217588D01*
X75847Y218370D01*
X76030Y219291D01*
Y264554D01*
X81549Y270072D01*
X92059D01*
X92068Y270060D01*
X92777Y269516D01*
X93602Y269174D01*
X94488Y269057D01*
X95374Y269174D01*
X96200Y269516D01*
X96909Y270060D01*
X96918Y270072D01*
X102059D01*
X102068Y270060D01*
X102777Y269516D01*
X103602Y269174D01*
X104488Y269057D01*
X105374Y269174D01*
X106200Y269516D01*
X106909Y270060D01*
X106918Y270072D01*
X115787D01*
X116709Y270255D01*
X117490Y270777D01*
X139580Y292867D01*
X163963D01*
X178694Y278136D01*
Y93136D01*
X164618Y79060D01*
X163780Y78950D01*
X162966Y78612D01*
X162267Y78076D01*
X161730Y77377D01*
X161393Y76563D01*
X161278Y75689D01*
X161393Y74816D01*
X161730Y74002D01*
X162267Y73303D01*
X162966Y72766D01*
X163780Y72429D01*
X164653Y72314D01*
X165527Y72429D01*
X166341Y72766D01*
X167040Y73303D01*
X167577Y74002D01*
X167914Y74816D01*
X168024Y75654D01*
X182805Y90435D01*
X183327Y91217D01*
X183511Y92138D01*
Y279134D01*
X183327Y280055D01*
X182805Y280837D01*
X166664Y296979D01*
X165882Y297501D01*
X164961Y297684D01*
D02*
G37*
G36*
X153866Y74155D02*
Y70630D01*
X157392D01*
X157308Y71264D01*
X156912Y72222D01*
X156281Y73044D01*
X155458Y73675D01*
X154500Y74072D01*
X153866Y74155D01*
D02*
G37*
G36*
X153079D02*
X152445Y74072D01*
X151487Y73675D01*
X150665Y73044D01*
X150034Y72222D01*
X149637Y71264D01*
X149553Y70630D01*
X153079D01*
Y74155D01*
D02*
G37*
G36*
X104488Y75403D02*
X103602Y75287D01*
X102777Y74945D01*
X102068Y74401D01*
X101524Y73692D01*
X101182Y72866D01*
X101065Y71980D01*
X101182Y71094D01*
X101524Y70269D01*
X102068Y69560D01*
X102777Y69016D01*
X103602Y68674D01*
X104488Y68557D01*
X105374Y68674D01*
X106200Y69016D01*
X106909Y69560D01*
X107453Y70269D01*
X107794Y71094D01*
X107911Y71980D01*
X107794Y72866D01*
X107453Y73692D01*
X106909Y74401D01*
X106200Y74945D01*
X105374Y75287D01*
X104488Y75403D01*
D02*
G37*
G36*
X15945Y124016D02*
X9449D01*
X2953D01*
Y122343D01*
X3543D01*
Y120087D01*
X3543Y119783D01*
X3543Y119283D01*
Y117028D01*
X2953D01*
Y115354D01*
X9449D01*
X15945D01*
Y117028D01*
X16329Y117307D01*
X61478D01*
X77937Y100849D01*
Y81515D01*
X77998Y81208D01*
X78172Y80947D01*
X93383Y65737D01*
X93265Y65147D01*
X92777Y64945D01*
X92068Y64401D01*
X91524Y63692D01*
X91182Y62866D01*
X91065Y61980D01*
X91182Y61094D01*
X91524Y60269D01*
X92068Y59560D01*
X92777Y59016D01*
X93602Y58674D01*
X94488Y58557D01*
X95374Y58674D01*
X96200Y59016D01*
X96909Y59560D01*
X97453Y60269D01*
X97795Y61094D01*
X97911Y61980D01*
X97795Y62866D01*
X97453Y63692D01*
X96909Y64401D01*
X96200Y64945D01*
X95374Y65287D01*
X95297Y65297D01*
X95291Y65767D01*
X95230Y66074D01*
X95056Y66334D01*
X95056Y66334D01*
X93014Y68377D01*
X93297Y68800D01*
X93602Y68674D01*
X94488Y68557D01*
X95374Y68674D01*
X96200Y69016D01*
X96909Y69560D01*
X97453Y70269D01*
X97795Y71094D01*
X97911Y71980D01*
X97795Y72866D01*
X97453Y73692D01*
X96909Y74401D01*
X96200Y74945D01*
X95374Y75287D01*
X95087Y75324D01*
X95056Y75371D01*
X95056Y75371D01*
X83086Y87340D01*
Y101575D01*
X83086Y101575D01*
X83025Y101882D01*
X82851Y102143D01*
X63166Y121828D01*
X62906Y122002D01*
X62598Y122063D01*
X16329D01*
X15945Y122343D01*
Y124016D01*
D02*
G37*
G36*
X118455Y71587D02*
X114882D01*
Y68014D01*
X115528Y68099D01*
X116498Y68500D01*
X117330Y69139D01*
X117968Y69971D01*
X118370Y70940D01*
X118455Y71587D01*
D02*
G37*
G36*
X114094D02*
X110521D01*
X110607Y70940D01*
X111008Y69971D01*
X111647Y69139D01*
X112479Y68500D01*
X113448Y68099D01*
X114094Y68014D01*
Y71587D01*
D02*
G37*
G36*
X157392Y69843D02*
X153866D01*
Y66317D01*
X154500Y66401D01*
X155458Y66797D01*
X156281Y67428D01*
X156912Y68251D01*
X157308Y69209D01*
X157392Y69843D01*
D02*
G37*
G36*
X153079D02*
X149553D01*
X149637Y69209D01*
X150034Y68251D01*
X150665Y67428D01*
X151487Y66797D01*
X152445Y66401D01*
X153079Y66317D01*
Y69843D01*
D02*
G37*
G36*
X165047Y68702D02*
Y65177D01*
X168572D01*
X168489Y65811D01*
X168092Y66769D01*
X167461Y67591D01*
X166639Y68222D01*
X165681Y68619D01*
X165047Y68702D01*
D02*
G37*
G36*
X164260D02*
X163626Y68619D01*
X162668Y68222D01*
X161846Y67591D01*
X161214Y66769D01*
X160818Y65811D01*
X160734Y65177D01*
X164260D01*
Y68702D01*
D02*
G37*
G36*
X114882Y65947D02*
Y62374D01*
X118455D01*
X118370Y63020D01*
X117968Y63990D01*
X117330Y64822D01*
X116498Y65461D01*
X115528Y65862D01*
X114882Y65947D01*
D02*
G37*
G36*
X114094D02*
X113448Y65862D01*
X112479Y65461D01*
X111647Y64822D01*
X111008Y63990D01*
X110607Y63020D01*
X110521Y62374D01*
X114094D01*
Y65947D01*
D02*
G37*
G36*
X168572Y64390D02*
X165047D01*
Y60864D01*
X165681Y60948D01*
X166639Y61344D01*
X167461Y61975D01*
X168092Y62798D01*
X168489Y63756D01*
X168572Y64390D01*
D02*
G37*
G36*
X164260D02*
X160734D01*
X160818Y63756D01*
X161214Y62798D01*
X161846Y61975D01*
X162668Y61344D01*
X163626Y60948D01*
X164260Y60864D01*
Y64390D01*
D02*
G37*
G36*
X104488Y65403D02*
X103602Y65287D01*
X102777Y64945D01*
X102068Y64401D01*
X101524Y63692D01*
X101182Y62866D01*
X101065Y61980D01*
X101182Y61094D01*
X101524Y60269D01*
X102068Y59560D01*
X102777Y59016D01*
X103602Y58674D01*
X104488Y58557D01*
X105374Y58674D01*
X106200Y59016D01*
X106909Y59560D01*
X107453Y60269D01*
X107794Y61094D01*
X107911Y61980D01*
X107794Y62866D01*
X107453Y63692D01*
X106909Y64401D01*
X106200Y64945D01*
X105374Y65287D01*
X104488Y65403D01*
D02*
G37*
G36*
X118455Y61587D02*
X114882D01*
Y58013D01*
X115528Y58099D01*
X116498Y58500D01*
X117330Y59139D01*
X117968Y59971D01*
X118370Y60940D01*
X118455Y61587D01*
D02*
G37*
G36*
X114094D02*
X110521D01*
X110607Y60940D01*
X111008Y59971D01*
X111647Y59139D01*
X112479Y58500D01*
X113448Y58099D01*
X114094Y58013D01*
Y61587D01*
D02*
G37*
G36*
X169685Y307527D02*
X131496D01*
X130574Y307343D01*
X129793Y306821D01*
X117861Y294889D01*
X106918D01*
X106909Y294901D01*
X106200Y295445D01*
X105374Y295787D01*
X104488Y295903D01*
X103602Y295787D01*
X102777Y295445D01*
X102068Y294901D01*
X102059Y294889D01*
X97882D01*
Y295874D01*
X91094D01*
Y294889D01*
X73976D01*
X73055Y294706D01*
X72273Y294183D01*
X64242Y286152D01*
X63720Y285370D01*
X63536Y284449D01*
Y236075D01*
X60209D01*
Y222925D01*
X67610D01*
Y229795D01*
X67648Y229832D01*
X68170Y230614D01*
X68353Y231535D01*
Y283451D01*
X74974Y290072D01*
X91094D01*
Y289087D01*
X97882D01*
Y290072D01*
X102059D01*
X102068Y290060D01*
X102777Y289516D01*
X103602Y289174D01*
X104488Y289057D01*
X105374Y289174D01*
X106200Y289516D01*
X106909Y290060D01*
X106918Y290072D01*
X118858D01*
X119780Y290255D01*
X120561Y290777D01*
X132494Y302710D01*
X168687D01*
X187749Y283648D01*
Y73045D01*
X170656Y55952D01*
X160258D01*
X156843Y59367D01*
X156733Y60205D01*
X156396Y61019D01*
X155859Y61718D01*
X155160Y62254D01*
X154346Y62592D01*
X153473Y62707D01*
X152599Y62592D01*
X151785Y62254D01*
X151086Y61718D01*
X150549Y61019D01*
X150212Y60205D01*
X150097Y59331D01*
X150212Y58458D01*
X150549Y57644D01*
X151086Y56945D01*
X151785Y56408D01*
X152599Y56071D01*
X153437Y55961D01*
X157557Y51840D01*
X158339Y51318D01*
X159261Y51135D01*
X171653D01*
X172575Y51318D01*
X173357Y51840D01*
X191860Y70344D01*
X192383Y71126D01*
X192566Y72047D01*
Y284646D01*
X192383Y285567D01*
X191860Y286349D01*
X171388Y306821D01*
X170607Y307343D01*
X169685Y307527D01*
D02*
G37*
G36*
X163779Y269731D02*
X130315D01*
X129393Y269548D01*
X128612Y269026D01*
X114475Y254889D01*
X106918D01*
X106909Y254901D01*
X106200Y255445D01*
X105374Y255787D01*
X104488Y255903D01*
X103602Y255787D01*
X102777Y255445D01*
X102068Y254901D01*
X102059Y254889D01*
X96918D01*
X96909Y254901D01*
X96200Y255445D01*
X95374Y255787D01*
X94488Y255903D01*
X93602Y255787D01*
X92777Y255445D01*
X92068Y254901D01*
X92059Y254889D01*
X88110D01*
X87189Y254706D01*
X86407Y254183D01*
X79793Y247569D01*
X79271Y246788D01*
X79088Y245866D01*
Y212021D01*
X68975Y201908D01*
X67610D01*
Y206075D01*
X60209D01*
Y192925D01*
X67610D01*
Y197091D01*
X69972D01*
X70894Y197275D01*
X71675Y197797D01*
X83199Y209321D01*
X83721Y210102D01*
X83904Y211024D01*
Y244868D01*
X89108Y250072D01*
X92059D01*
X92068Y250060D01*
X92777Y249516D01*
X93602Y249174D01*
X94488Y249057D01*
X95374Y249174D01*
X96200Y249516D01*
X96909Y250060D01*
X96918Y250072D01*
X102059D01*
X102068Y250060D01*
X102777Y249516D01*
X103602Y249174D01*
X104488Y249057D01*
X105374Y249174D01*
X106200Y249516D01*
X106909Y250060D01*
X106918Y250072D01*
X115472D01*
X116394Y250255D01*
X117175Y250777D01*
X131313Y264914D01*
X162782D01*
X171607Y256089D01*
Y96954D01*
X164618Y89965D01*
X163780Y89855D01*
X162966Y89517D01*
X162267Y88981D01*
X161730Y88282D01*
X161393Y87468D01*
X161374Y87322D01*
X124262D01*
X123955Y87261D01*
X123695Y87086D01*
X123695Y87086D01*
X120692Y84084D01*
X120518Y83823D01*
X120457Y83516D01*
Y27800D01*
X119995Y27609D01*
X117402Y30202D01*
X117453Y30269D01*
X117795Y31094D01*
X117911Y31980D01*
X117795Y32866D01*
X117453Y33692D01*
X116909Y34401D01*
X116200Y34945D01*
X115374Y35287D01*
X114488Y35403D01*
X113602Y35287D01*
X112777Y34945D01*
X112068Y34401D01*
X111524Y33692D01*
X111182Y32866D01*
X111065Y31980D01*
X111182Y31094D01*
X111524Y30269D01*
X112068Y29560D01*
X112777Y29016D01*
X113602Y28674D01*
X114488Y28557D01*
X115374Y28674D01*
X116200Y29016D01*
X116266Y29067D01*
X119276Y26057D01*
Y19230D01*
X113447Y13401D01*
X91277D01*
X81511Y23167D01*
Y39764D01*
X81511Y39764D01*
X81450Y40071D01*
X81276Y40332D01*
X81276Y40332D01*
X74031Y47577D01*
Y66142D01*
X73970Y66449D01*
X73796Y66709D01*
X73796Y66709D01*
X61826Y78679D01*
Y84646D01*
X61826Y84646D01*
X61765Y84953D01*
X61591Y85213D01*
X61591Y85213D01*
X56698Y90106D01*
Y90855D01*
X51974D01*
Y90566D01*
X50887D01*
Y90855D01*
X46163D01*
Y90566D01*
X45076D01*
Y90855D01*
X40352D01*
Y90566D01*
X15708D01*
X15354Y90920D01*
Y91240D01*
X15354Y91757D01*
X15708Y92111D01*
X58329D01*
X62583Y87856D01*
Y79134D01*
X62644Y78827D01*
X62818Y78566D01*
X75969Y65416D01*
Y48425D01*
X76030Y48118D01*
X76204Y47857D01*
X82662Y41400D01*
Y24016D01*
X82723Y23708D01*
X82897Y23448D01*
X91558Y14787D01*
X91558Y14787D01*
X91819Y14613D01*
X92126Y14551D01*
X92126Y14551D01*
X106602D01*
X106910Y14613D01*
X107170Y14787D01*
X109926Y17542D01*
X110100Y17803D01*
X110161Y18110D01*
Y46518D01*
X112710Y49067D01*
X112777Y49016D01*
X113602Y48674D01*
X114488Y48557D01*
X115374Y48674D01*
X116200Y49016D01*
X116909Y49560D01*
X117453Y50269D01*
X117795Y51094D01*
X117911Y51980D01*
X117795Y52866D01*
X117453Y53692D01*
X116909Y54401D01*
X116200Y54945D01*
X115374Y55287D01*
X114488Y55403D01*
X113602Y55287D01*
X112777Y54945D01*
X112068Y54401D01*
X111524Y53692D01*
X111182Y52866D01*
X111065Y51980D01*
X111182Y51094D01*
X111524Y50269D01*
X111575Y50202D01*
X108791Y47418D01*
X108616Y47158D01*
X108555Y46850D01*
Y18443D01*
X106270Y16157D01*
X92458D01*
X84267Y24348D01*
Y41732D01*
X84267Y41732D01*
X84206Y42039D01*
X84032Y42300D01*
X77574Y48758D01*
Y65748D01*
X77574Y65748D01*
X77513Y66055D01*
X77339Y66316D01*
X64189Y79466D01*
Y88189D01*
X64127Y88496D01*
X63954Y88757D01*
X59229Y93481D01*
X58969Y93655D01*
X58661Y93716D01*
X16329D01*
X15945Y93996D01*
Y95669D01*
X9449D01*
X2953D01*
Y93996D01*
X3543D01*
Y91740D01*
X3543Y91437D01*
X3543Y90937D01*
Y88287D01*
X15354D01*
Y88961D01*
X40352D01*
Y86524D01*
X45076D01*
Y88961D01*
X46163D01*
Y86524D01*
X50887D01*
Y88961D01*
X51974D01*
Y86524D01*
X56698D01*
Y87182D01*
X57160Y87374D01*
X57855Y86679D01*
X57609Y86218D01*
X57480Y86244D01*
X57020Y86152D01*
X56629Y85891D01*
X56368Y85500D01*
X56276Y85039D01*
X56287Y84982D01*
X55862Y84556D01*
X51974D01*
Y80784D01*
X51474Y80577D01*
X50887Y81164D01*
Y84556D01*
X46167D01*
X46163Y84556D01*
X45667Y84565D01*
Y85146D01*
X43108D01*
Y82390D01*
Y79635D01*
X45667D01*
Y80216D01*
X46163Y80225D01*
X46167Y80225D01*
X49555D01*
X51167Y78613D01*
X51428Y78439D01*
X51735Y78378D01*
X57182D01*
X70080Y65480D01*
Y45957D01*
X70141Y45650D01*
X70315Y45389D01*
X77586Y38118D01*
Y21485D01*
X77647Y21177D01*
X77821Y20917D01*
X89123Y9615D01*
X89123Y9615D01*
X89383Y9441D01*
X89690Y9380D01*
X89691Y9380D01*
X114871D01*
X115178Y9441D01*
X115439Y9615D01*
X121827Y16004D01*
X122002Y16265D01*
X122063Y16572D01*
Y83184D01*
X124595Y85716D01*
X161395D01*
X161730Y84907D01*
X162267Y84208D01*
X162966Y83671D01*
X163780Y83334D01*
X164653Y83219D01*
X165527Y83334D01*
X166341Y83671D01*
X167040Y84208D01*
X167577Y84907D01*
X167914Y85721D01*
X168024Y86559D01*
X175719Y94254D01*
X176241Y95035D01*
X176424Y95957D01*
Y257087D01*
X176241Y258008D01*
X175719Y258790D01*
X165483Y269026D01*
X164701Y269548D01*
X163779Y269731D01*
D02*
G37*
G36*
X104488Y55403D02*
X103602Y55287D01*
X102777Y54945D01*
X102068Y54401D01*
X101524Y53692D01*
X101182Y52866D01*
X101065Y51980D01*
X101182Y51094D01*
X101524Y50269D01*
X102068Y49560D01*
X102777Y49016D01*
X103602Y48674D01*
X104488Y48557D01*
X105374Y48674D01*
X106200Y49016D01*
X106909Y49560D01*
X107453Y50269D01*
X107794Y51094D01*
X107911Y51980D01*
X107794Y52866D01*
X107453Y53692D01*
X106909Y54401D01*
X106200Y54945D01*
X105374Y55287D01*
X104488Y55403D01*
D02*
G37*
G36*
X15945Y114567D02*
X9449D01*
X2953D01*
Y112894D01*
X3543D01*
Y110638D01*
X3543Y110335D01*
X3543Y109835D01*
Y107579D01*
X2953D01*
Y105906D01*
X9449D01*
X15945D01*
Y107579D01*
X16329Y107859D01*
X62660D01*
X70851Y99667D01*
Y81496D01*
X70912Y81189D01*
X71086Y80928D01*
X85418Y66597D01*
Y53150D01*
X85479Y52842D01*
X85653Y52582D01*
X92804Y45430D01*
X92667Y44861D01*
X92068Y44401D01*
X91524Y43692D01*
X91182Y42866D01*
X91065Y41980D01*
X91182Y41094D01*
X91524Y40269D01*
X92068Y39560D01*
X92777Y39016D01*
X93602Y38674D01*
X94488Y38557D01*
X95374Y38674D01*
X96200Y39016D01*
X96909Y39560D01*
X97453Y40269D01*
X97795Y41094D01*
X97911Y41980D01*
X97795Y42866D01*
X97453Y43692D01*
X96909Y44401D01*
X96200Y44945D01*
X95374Y45287D01*
X95144Y45317D01*
X95056Y45450D01*
X87023Y53482D01*
Y66929D01*
X86962Y67236D01*
X86788Y67497D01*
X72456Y81829D01*
Y100000D01*
X72456Y100000D01*
X72395Y100307D01*
X72221Y100568D01*
X63560Y109229D01*
X63299Y109403D01*
X62992Y109464D01*
X15708D01*
X15354Y109818D01*
Y110138D01*
X15354Y110655D01*
X15708Y111008D01*
X63841D01*
X74394Y100455D01*
Y81102D01*
X74455Y80795D01*
X74629Y80535D01*
X88567Y66597D01*
Y59449D01*
X88628Y59142D01*
X88802Y58881D01*
X92487Y55196D01*
X92454Y54697D01*
X92068Y54401D01*
X91524Y53692D01*
X91182Y52866D01*
X91065Y51980D01*
X91182Y51094D01*
X91524Y50269D01*
X92068Y49560D01*
X92777Y49016D01*
X93602Y48674D01*
X94488Y48557D01*
X95374Y48674D01*
X96200Y49016D01*
X96909Y49560D01*
X97453Y50269D01*
X97795Y51094D01*
X97911Y51980D01*
X97795Y52866D01*
X97453Y53692D01*
X96909Y54401D01*
X96200Y54945D01*
X95374Y55287D01*
X94560Y55394D01*
X90173Y59781D01*
Y66929D01*
X90112Y67236D01*
X89938Y67497D01*
X89938Y67497D01*
X76000Y81435D01*
Y100787D01*
X75939Y101095D01*
X75765Y101355D01*
X75765Y101355D01*
X64741Y112379D01*
X64480Y112553D01*
X64173Y112614D01*
X16329D01*
X15945Y112894D01*
Y114567D01*
D02*
G37*
G36*
X114488Y45403D02*
X113602Y45287D01*
X112777Y44945D01*
X112068Y44401D01*
X111524Y43692D01*
X111182Y42866D01*
X111065Y41980D01*
X111182Y41094D01*
X111524Y40269D01*
X112068Y39560D01*
X112777Y39016D01*
X113602Y38674D01*
X114488Y38557D01*
X115374Y38674D01*
X116200Y39016D01*
X116909Y39560D01*
X117453Y40269D01*
X117795Y41094D01*
X117911Y41980D01*
X117795Y42866D01*
X117453Y43692D01*
X116909Y44401D01*
X116200Y44945D01*
X115374Y45287D01*
X114488Y45403D01*
D02*
G37*
G36*
X104488D02*
X103602Y45287D01*
X102777Y44945D01*
X102068Y44401D01*
X101524Y43692D01*
X101182Y42866D01*
X101065Y41980D01*
X101182Y41094D01*
X101524Y40269D01*
X102068Y39560D01*
X102777Y39016D01*
X103602Y38674D01*
X104488Y38557D01*
X105374Y38674D01*
X106200Y39016D01*
X106909Y39560D01*
X107453Y40269D01*
X107794Y41094D01*
X107911Y41980D01*
X107794Y42866D01*
X107453Y43692D01*
X106909Y44401D01*
X106200Y44945D01*
X105374Y45287D01*
X104488Y45403D01*
D02*
G37*
G36*
Y35403D02*
X103602Y35287D01*
X102777Y34945D01*
X102068Y34401D01*
X101524Y33692D01*
X101182Y32866D01*
X101065Y31980D01*
X101182Y31094D01*
X101524Y30269D01*
X102068Y29560D01*
X102777Y29016D01*
X103602Y28674D01*
X104488Y28557D01*
X105374Y28674D01*
X106200Y29016D01*
X106909Y29560D01*
X107453Y30269D01*
X107794Y31094D01*
X107911Y31980D01*
X107794Y32866D01*
X107453Y33692D01*
X106909Y34401D01*
X106200Y34945D01*
X105374Y35287D01*
X104488Y35403D01*
D02*
G37*
G36*
X15945Y105118D02*
X9449D01*
X2953D01*
Y103445D01*
X3543D01*
Y101189D01*
X3543Y100886D01*
X3543Y100386D01*
Y98130D01*
X2953D01*
Y96457D01*
X9449D01*
X15945D01*
Y98130D01*
X16329Y98410D01*
X61872D01*
X64945Y95337D01*
Y79921D01*
X65006Y79614D01*
X65180Y79354D01*
X79118Y65416D01*
Y49606D01*
X79180Y49299D01*
X79354Y49039D01*
X85418Y42974D01*
Y30248D01*
X85479Y29941D01*
X85653Y29680D01*
X91575Y23758D01*
X91524Y23692D01*
X91182Y22866D01*
X91065Y21980D01*
X91182Y21094D01*
X91524Y20269D01*
X92068Y19560D01*
X92777Y19016D01*
X93602Y18674D01*
X94488Y18557D01*
X95374Y18674D01*
X96200Y19016D01*
X96909Y19560D01*
X97453Y20269D01*
X97795Y21094D01*
X97911Y21980D01*
X97795Y22866D01*
X97453Y23692D01*
X96909Y24401D01*
X96200Y24945D01*
X95374Y25287D01*
X94488Y25403D01*
X93602Y25287D01*
X92777Y24945D01*
X92710Y24894D01*
X87023Y30581D01*
Y43307D01*
X87023Y43307D01*
X86962Y43614D01*
X86788Y43875D01*
X80724Y49939D01*
Y65748D01*
X80663Y66055D01*
X80489Y66316D01*
X80489Y66316D01*
X66551Y80254D01*
Y95669D01*
X66551Y95669D01*
X66490Y95977D01*
X66316Y96237D01*
X66316Y96237D01*
X62772Y99780D01*
X62512Y99954D01*
X62205Y100015D01*
X15708D01*
X15354Y100369D01*
Y100689D01*
X15354Y101206D01*
X15708Y101559D01*
X64628D01*
X68095Y98093D01*
Y80709D01*
X68156Y80401D01*
X68330Y80141D01*
X82268Y66203D01*
Y51181D01*
X82329Y50874D01*
X82503Y50613D01*
X88174Y44943D01*
Y39764D01*
X88235Y39456D01*
X88409Y39196D01*
X92443Y35162D01*
X92410Y34663D01*
X92068Y34401D01*
X91524Y33692D01*
X91182Y32866D01*
X91065Y31980D01*
X91182Y31094D01*
X91524Y30269D01*
X92068Y29560D01*
X92777Y29016D01*
X93602Y28674D01*
X94488Y28557D01*
X95374Y28674D01*
X96200Y29016D01*
X96909Y29560D01*
X97453Y30269D01*
X97795Y31094D01*
X97911Y31980D01*
X97795Y32866D01*
X97453Y33692D01*
X96909Y34401D01*
X96200Y34945D01*
X95374Y35287D01*
X94488Y35403D01*
X94474Y35401D01*
X89779Y40096D01*
Y45276D01*
X89718Y45583D01*
X89544Y45843D01*
X89544Y45843D01*
X83874Y51514D01*
Y66535D01*
X83813Y66843D01*
X83639Y67103D01*
X83639Y67103D01*
X69700Y81041D01*
Y98425D01*
X69700Y98425D01*
X69639Y98732D01*
X69465Y98993D01*
X69465Y98993D01*
X65528Y102930D01*
X65268Y103104D01*
X64961Y103165D01*
X16329D01*
X15945Y103445D01*
Y105118D01*
D02*
G37*
G36*
X114488Y25403D02*
X113602Y25287D01*
X112777Y24945D01*
X112068Y24401D01*
X111524Y23692D01*
X111182Y22866D01*
X111065Y21980D01*
X111182Y21094D01*
X111524Y20269D01*
X112068Y19560D01*
X112777Y19016D01*
X113602Y18674D01*
X114488Y18557D01*
X115374Y18674D01*
X116200Y19016D01*
X116909Y19560D01*
X117453Y20269D01*
X117795Y21094D01*
X117911Y21980D01*
X117795Y22866D01*
X117453Y23692D01*
X116909Y24401D01*
X116200Y24945D01*
X115374Y25287D01*
X114488Y25403D01*
D02*
G37*
G36*
X104488D02*
X103602Y25287D01*
X102777Y24945D01*
X102068Y24401D01*
X101524Y23692D01*
X101182Y22866D01*
X101065Y21980D01*
X101182Y21094D01*
X101524Y20269D01*
X102068Y19560D01*
X102777Y19016D01*
X103602Y18674D01*
X104488Y18557D01*
X105374Y18674D01*
X106200Y19016D01*
X106909Y19560D01*
X107453Y20269D01*
X107794Y21094D01*
X107911Y21980D01*
X107794Y22866D01*
X107453Y23692D01*
X106909Y24401D01*
X106200Y24945D01*
X105374Y25287D01*
X104488Y25403D01*
D02*
G37*
G36*
X192803Y10925D02*
X175888D01*
Y3811D01*
X192803D01*
Y10925D01*
D02*
G37*
%LPD*%
G36*
X146211Y129263D02*
Y126508D01*
X145799Y126389D01*
X145711Y126385D01*
X134243Y137854D01*
X133791Y138041D01*
X111091D01*
X110639Y137854D01*
X110294Y138198D01*
X110482Y138650D01*
Y140960D01*
X110874Y141304D01*
X111344Y141202D01*
X111524Y140769D01*
X112068Y140060D01*
X112777Y139516D01*
X113602Y139174D01*
X114488Y139057D01*
X115374Y139174D01*
X116200Y139516D01*
X116909Y140060D01*
X117453Y140769D01*
X117795Y141594D01*
X117911Y142480D01*
X117795Y143366D01*
X117453Y144192D01*
X116909Y144901D01*
X116200Y145445D01*
X115556Y145711D01*
X115656Y146211D01*
X129263D01*
X146211Y129263D01*
D02*
G37*
G36*
X81481Y101242D02*
Y87008D01*
X81542Y86701D01*
X81716Y86440D01*
X92742Y75414D01*
X92623Y74826D01*
X92068Y74401D01*
X91524Y73692D01*
X91182Y72866D01*
X91065Y71980D01*
X91182Y71094D01*
X91308Y70789D01*
X90885Y70506D01*
X79543Y81847D01*
Y101181D01*
X79482Y101488D01*
X79308Y101749D01*
X62379Y118678D01*
X62118Y118852D01*
X61811Y118913D01*
X15708D01*
X15354Y119267D01*
Y119587D01*
X15354Y120104D01*
X15708Y120457D01*
X62266D01*
X81481Y101242D01*
D02*
G37*
G36*
X72426Y65716D02*
Y47244D01*
X72487Y46937D01*
X72661Y46676D01*
X79906Y39431D01*
Y22835D01*
X79967Y22527D01*
X80141Y22267D01*
X90377Y12031D01*
X90377Y12031D01*
X90638Y11857D01*
X90945Y11796D01*
X90945Y11796D01*
X113779D01*
X114087Y11857D01*
X114347Y12031D01*
X119995Y17679D01*
X120457Y17487D01*
Y16904D01*
X114539Y10986D01*
X90023D01*
X79192Y21817D01*
Y38451D01*
X79131Y38758D01*
X78957Y39019D01*
X78957Y39019D01*
X71686Y46290D01*
Y65680D01*
X72025Y65879D01*
X72176Y65908D01*
X72426Y65716D01*
D02*
G37*
G36*
X190353Y10413D02*
X190490Y10403D01*
X190530D01*
X190569Y10394D01*
X190628Y10384D01*
X190697Y10374D01*
X190776Y10364D01*
X190864Y10344D01*
X190963Y10325D01*
X190972D01*
X191012Y10315D01*
X191061Y10305D01*
X191140Y10285D01*
X191218Y10256D01*
X191307Y10216D01*
X191514Y10128D01*
X191524Y10118D01*
X191563Y10098D01*
X191612Y10069D01*
X191681Y10029D01*
X191760Y9971D01*
X191838Y9911D01*
X191996Y9754D01*
X192006Y9744D01*
X192025Y9715D01*
X192065Y9665D01*
X192104Y9606D01*
X192153Y9528D01*
X192212Y9439D01*
X192262Y9341D01*
X192301Y9233D01*
X192311Y9223D01*
X192321Y9183D01*
X192340Y9124D01*
X192360Y9036D01*
X192380Y8937D01*
X192390Y8829D01*
X192409Y8701D01*
Y8563D01*
Y8553D01*
Y8544D01*
Y8514D01*
Y8475D01*
X192399Y8376D01*
X192390Y8258D01*
X192370Y8111D01*
X192340Y7953D01*
X192301Y7806D01*
X192242Y7648D01*
X192232Y7629D01*
X192212Y7579D01*
X192173Y7510D01*
X192124Y7422D01*
X192055Y7314D01*
X191976Y7196D01*
X191878Y7087D01*
X191770Y6979D01*
X191760Y6969D01*
X191710Y6930D01*
X191651Y6881D01*
X191563Y6822D01*
X191455Y6753D01*
X191327Y6694D01*
X191179Y6625D01*
X191022Y6566D01*
X191002Y6556D01*
X190943Y6546D01*
X190854Y6526D01*
X190726Y6497D01*
X190569Y6468D01*
X190392Y6448D01*
X190185Y6438D01*
X189969Y6428D01*
X189467D01*
Y4480D01*
Y4470D01*
Y4450D01*
X189447Y4421D01*
X189428Y4391D01*
X189418Y4381D01*
X189408Y4372D01*
X189378Y4352D01*
X189329Y4332D01*
X189319D01*
X189280Y4322D01*
X189221Y4312D01*
X189142Y4303D01*
X189123D01*
X189093Y4293D01*
X189064D01*
X188965Y4283D01*
X188739D01*
X188640Y4293D01*
X188542Y4303D01*
X188522D01*
X188473Y4312D01*
X188414Y4322D01*
X188345Y4332D01*
X188335D01*
X188306Y4352D01*
X188276Y4362D01*
X188247Y4391D01*
Y4401D01*
X188237Y4421D01*
X188227Y4480D01*
Y9971D01*
Y9980D01*
Y10010D01*
X188237Y10049D01*
Y10098D01*
X188276Y10207D01*
X188296Y10256D01*
X188335Y10305D01*
X188345Y10315D01*
X188355Y10325D01*
X188385Y10344D01*
X188414Y10364D01*
X188513Y10403D01*
X188572Y10423D01*
X190215D01*
X190353Y10413D01*
D02*
G37*
G36*
X180818D02*
X180837Y10394D01*
X180847Y10384D01*
X180857Y10374D01*
X180877Y10344D01*
X180896Y10305D01*
X180906Y10295D01*
X180916Y10266D01*
X180926Y10216D01*
X180936Y10148D01*
Y10128D01*
X180946Y10079D01*
X180955Y10010D01*
Y9911D01*
Y9902D01*
Y9892D01*
Y9833D01*
X180946Y9754D01*
X180936Y9675D01*
Y9656D01*
X180926Y9616D01*
X180916Y9567D01*
X180896Y9518D01*
Y9508D01*
X180886Y9488D01*
X180867Y9459D01*
X180837Y9429D01*
X180818Y9420D01*
X180768Y9410D01*
X179243D01*
Y4480D01*
Y4470D01*
Y4450D01*
X179224Y4421D01*
X179204Y4391D01*
X179194Y4381D01*
X179184Y4372D01*
X179155Y4352D01*
X179105Y4332D01*
X179096D01*
X179056Y4322D01*
X178997Y4312D01*
X178909Y4303D01*
X178889D01*
X178830Y4293D01*
X178732Y4283D01*
X178505D01*
X178407Y4293D01*
X178308Y4303D01*
X178289D01*
X178240Y4312D01*
X178181Y4322D01*
X178121Y4332D01*
X178112D01*
X178082Y4352D01*
X178053Y4362D01*
X178023Y4391D01*
Y4401D01*
X178013Y4421D01*
X178003Y4450D01*
X177994Y4480D01*
Y9410D01*
X176429D01*
X176380Y9429D01*
Y9439D01*
X176360Y9449D01*
X176340Y9478D01*
X176321Y9518D01*
Y9528D01*
X176311Y9557D01*
X176301Y9606D01*
X176291Y9675D01*
Y9695D01*
Y9744D01*
X176281Y9813D01*
Y9911D01*
Y9921D01*
Y9931D01*
Y9990D01*
Y10069D01*
X176291Y10148D01*
Y10167D01*
X176301Y10207D01*
X176311Y10256D01*
X176321Y10305D01*
X176331Y10315D01*
X176340Y10335D01*
X176360Y10364D01*
X176380Y10394D01*
X176390Y10403D01*
X176400Y10413D01*
X176429Y10423D01*
X180788D01*
X180818Y10413D01*
D02*
G37*
G36*
X184518Y10521D02*
X184586D01*
X184754Y10512D01*
X184941Y10482D01*
X185147Y10453D01*
X185354Y10403D01*
X185561Y10344D01*
X185570D01*
X185580Y10335D01*
X185610Y10325D01*
X185649Y10305D01*
X185748Y10266D01*
X185875Y10207D01*
X186013Y10128D01*
X186161Y10029D01*
X186308Y9911D01*
X186446Y9774D01*
X186466Y9754D01*
X186505Y9705D01*
X186574Y9626D01*
X186653Y9508D01*
X186741Y9370D01*
X186830Y9203D01*
X186918Y9016D01*
X186987Y8809D01*
Y8800D01*
X186997Y8780D01*
X187007Y8750D01*
X187017Y8711D01*
X187027Y8652D01*
X187046Y8583D01*
X187066Y8504D01*
X187086Y8416D01*
X187115Y8219D01*
X187145Y7983D01*
X187164Y7717D01*
X187174Y7432D01*
Y7422D01*
Y7402D01*
Y7363D01*
Y7304D01*
X187164Y7235D01*
Y7156D01*
X187155Y6979D01*
X187125Y6773D01*
X187096Y6536D01*
X187046Y6300D01*
X186978Y6074D01*
Y6064D01*
X186968Y6044D01*
X186958Y6015D01*
X186938Y5976D01*
X186899Y5857D01*
X186840Y5720D01*
X186761Y5562D01*
X186663Y5385D01*
X186545Y5218D01*
X186417Y5051D01*
X186397Y5031D01*
X186348Y4982D01*
X186269Y4913D01*
X186161Y4814D01*
X186023Y4716D01*
X185866Y4608D01*
X185688Y4509D01*
X185492Y4421D01*
X185482D01*
X185462Y4411D01*
X185433Y4401D01*
X185393Y4391D01*
X185344Y4372D01*
X185275Y4352D01*
X185127Y4312D01*
X184941Y4273D01*
X184724Y4234D01*
X184488Y4214D01*
X184222Y4204D01*
X184104D01*
X184045Y4214D01*
X183966D01*
X183799Y4224D01*
X183612Y4244D01*
X183405Y4283D01*
X183189Y4322D01*
X182982Y4381D01*
X182973D01*
X182963Y4391D01*
X182933Y4401D01*
X182894Y4421D01*
X182796Y4460D01*
X182677Y4519D01*
X182530Y4608D01*
X182382Y4706D01*
X182235Y4814D01*
X182097Y4952D01*
X182077Y4972D01*
X182038Y5021D01*
X181979Y5110D01*
X181900Y5218D01*
X181811Y5356D01*
X181723Y5523D01*
X181644Y5720D01*
X181565Y5926D01*
Y5936D01*
X181556Y5956D01*
X181546Y5985D01*
X181536Y6035D01*
X181526Y6084D01*
X181506Y6153D01*
X181497Y6231D01*
X181477Y6320D01*
X181447Y6526D01*
X181418Y6763D01*
X181398Y7028D01*
X181388Y7323D01*
Y7333D01*
Y7353D01*
Y7392D01*
Y7451D01*
X181398Y7510D01*
Y7589D01*
X181408Y7776D01*
X181438Y7983D01*
X181467Y8199D01*
X181516Y8435D01*
X181575Y8662D01*
Y8672D01*
X181585Y8691D01*
X181595Y8721D01*
X181615Y8760D01*
X181654Y8868D01*
X181713Y9006D01*
X181792Y9164D01*
X181890Y9331D01*
X182008Y9508D01*
X182136Y9665D01*
X182156Y9685D01*
X182205Y9734D01*
X182284Y9813D01*
X182392Y9902D01*
X182530Y10000D01*
X182687Y10108D01*
X182864Y10216D01*
X183061Y10305D01*
X183071D01*
X183091Y10315D01*
X183120Y10325D01*
X183159Y10344D01*
X183209Y10354D01*
X183278Y10374D01*
X183425Y10423D01*
X183612Y10463D01*
X183838Y10492D01*
X184075Y10521D01*
X184340Y10531D01*
X184458D01*
X184518Y10521D01*
D02*
G37*
%LPC*%
G36*
X190126Y9469D02*
X189467D01*
Y7383D01*
X190126D01*
X190195Y7392D01*
X190353Y7412D01*
X190510Y7461D01*
X190520D01*
X190549Y7481D01*
X190579Y7491D01*
X190628Y7520D01*
X190736Y7589D01*
X190845Y7678D01*
X190854Y7688D01*
X190864Y7707D01*
X190894Y7737D01*
X190913Y7776D01*
X190982Y7884D01*
X191041Y8022D01*
Y8032D01*
X191051Y8061D01*
X191061Y8101D01*
X191081Y8160D01*
X191091Y8219D01*
X191100Y8298D01*
X191110Y8475D01*
Y8485D01*
Y8524D01*
X191100Y8583D01*
Y8662D01*
X191061Y8829D01*
X191032Y8918D01*
X190992Y8996D01*
X190982Y9006D01*
X190972Y9036D01*
X190943Y9075D01*
X190913Y9114D01*
X190825Y9223D01*
X190766Y9272D01*
X190707Y9311D01*
X190697D01*
X190677Y9331D01*
X190648Y9341D01*
X190608Y9360D01*
X190500Y9410D01*
X190362Y9439D01*
X190353D01*
X190333Y9449D01*
X190294D01*
X190254Y9459D01*
X190126Y9469D01*
D02*
G37*
G36*
X184291Y9508D02*
X184212D01*
X184134Y9498D01*
X184026Y9488D01*
X183898Y9469D01*
X183770Y9429D01*
X183642Y9390D01*
X183524Y9331D01*
X183514Y9321D01*
X183474Y9301D01*
X183415Y9262D01*
X183346Y9203D01*
X183268Y9144D01*
X183179Y9065D01*
X183100Y8967D01*
X183022Y8868D01*
X183012Y8859D01*
X182992Y8819D01*
X182963Y8760D01*
X182923Y8681D01*
X182874Y8583D01*
X182835Y8465D01*
X182786Y8337D01*
X182756Y8199D01*
Y8180D01*
X182746Y8130D01*
X182736Y8052D01*
X182727Y7953D01*
X182707Y7835D01*
X182697Y7698D01*
X182687Y7540D01*
Y7383D01*
Y7373D01*
Y7363D01*
Y7333D01*
Y7294D01*
Y7205D01*
X182697Y7078D01*
X182707Y6940D01*
X182717Y6792D01*
X182756Y6477D01*
Y6458D01*
X182776Y6408D01*
X182796Y6340D01*
X182815Y6241D01*
X182854Y6143D01*
X182894Y6025D01*
X182953Y5907D01*
X183012Y5798D01*
X183022Y5788D01*
X183042Y5749D01*
X183091Y5700D01*
X183140Y5641D01*
X183209Y5572D01*
X183297Y5503D01*
X183386Y5434D01*
X183494Y5375D01*
X183504Y5365D01*
X183553Y5356D01*
X183612Y5326D01*
X183701Y5306D01*
X183819Y5277D01*
X183947Y5247D01*
X184094Y5237D01*
X184262Y5228D01*
X184340D01*
X184429Y5237D01*
X184527Y5247D01*
X184655Y5267D01*
X184783Y5297D01*
X184911Y5336D01*
X185029Y5395D01*
X185039Y5405D01*
X185078Y5424D01*
X185137Y5464D01*
X185206Y5513D01*
X185285Y5582D01*
X185364Y5661D01*
X185442Y5749D01*
X185521Y5857D01*
X185531Y5867D01*
X185551Y5907D01*
X185590Y5976D01*
X185629Y6054D01*
X185679Y6153D01*
X185718Y6271D01*
X185767Y6399D01*
X185797Y6536D01*
Y6556D01*
X185807Y6605D01*
X185826Y6684D01*
X185836Y6792D01*
X185856Y6910D01*
X185866Y7048D01*
X185875Y7205D01*
Y7363D01*
Y7373D01*
Y7383D01*
Y7442D01*
Y7540D01*
X185866Y7658D01*
X185856Y7786D01*
X185846Y7934D01*
X185797Y8239D01*
Y8258D01*
X185777Y8308D01*
X185757Y8376D01*
X185738Y8475D01*
X185698Y8573D01*
X185649Y8691D01*
X185600Y8800D01*
X185531Y8908D01*
X185521Y8918D01*
X185502Y8957D01*
X185462Y9006D01*
X185403Y9075D01*
X185334Y9144D01*
X185256Y9213D01*
X185157Y9291D01*
X185049Y9351D01*
X185039Y9360D01*
X184990Y9380D01*
X184931Y9400D01*
X184842Y9429D01*
X184734Y9459D01*
X184596Y9488D01*
X184458Y9498D01*
X184291Y9508D01*
D02*
G37*
%LPD*%
D10*
X9449Y225197D02*
D03*
Y222047D02*
D03*
Y218898D02*
D03*
Y215748D02*
D03*
Y212598D02*
D03*
Y209449D02*
D03*
Y206299D02*
D03*
Y203150D02*
D03*
Y200000D02*
D03*
Y196851D02*
D03*
Y193701D02*
D03*
Y190551D02*
D03*
Y187401D02*
D03*
Y184252D02*
D03*
Y181102D02*
D03*
Y177953D02*
D03*
Y174803D02*
D03*
Y171653D02*
D03*
Y168504D02*
D03*
Y165354D02*
D03*
Y162205D02*
D03*
Y159055D02*
D03*
Y143307D02*
D03*
Y140157D02*
D03*
Y137008D02*
D03*
Y133858D02*
D03*
Y130709D02*
D03*
Y127559D02*
D03*
Y124409D02*
D03*
Y121260D02*
D03*
Y118110D02*
D03*
Y114961D02*
D03*
Y111811D02*
D03*
Y108661D02*
D03*
Y105512D02*
D03*
Y102362D02*
D03*
Y99213D02*
D03*
Y96063D02*
D03*
Y92914D02*
D03*
Y89764D02*
D03*
D11*
X45091Y229500D02*
D03*
X63910D02*
D03*
X45091Y214500D02*
D03*
X63910D02*
D03*
X45091Y199500D02*
D03*
X63910D02*
D03*
D12*
X42714Y88690D02*
D03*
Y82390D02*
D03*
X48525Y88690D02*
D03*
Y82390D02*
D03*
X54336Y82390D02*
D03*
Y88690D02*
D03*
D13*
X9449Y218898D02*
X28937D01*
X9449Y212598D02*
X43189D01*
X45091Y214500D01*
X9449Y206299D02*
X38291D01*
X39370Y225197D02*
X43673Y229500D01*
X45091D01*
X28937Y218898D02*
X39539Y229500D01*
X43673D01*
X39370Y215748D02*
X43843D01*
X45091Y214500D01*
X39764Y200787D02*
X43803D01*
X38291Y206299D02*
X43803Y200787D01*
X45091Y199500D01*
D14*
X63910Y229500D02*
X65945Y231535D01*
Y284449D01*
X73976Y292480D01*
X94488D01*
X104488D01*
X63910Y214500D02*
X68831D01*
X80551Y272480D02*
X94488D01*
X104488D01*
X88110Y252480D02*
X94488D01*
X104488D01*
X63910Y199500D02*
X69972D01*
X81496Y211024D01*
Y245866D01*
X88110Y252480D01*
X68831Y214500D02*
X73622Y219291D01*
Y265551D01*
X80551Y272480D01*
X104488Y252480D02*
X115472D01*
X130315Y267323D01*
X163779D01*
X174016Y257087D01*
Y95957D02*
Y257087D01*
X164653Y86594D02*
X174016Y95957D01*
X104488Y272480D02*
X115787D01*
X138583Y295276D01*
X164961D01*
X181102Y279134D01*
Y92138D02*
Y279134D01*
X164653Y75689D02*
X181102Y92138D01*
X104488Y292480D02*
X118858D01*
X131496Y305118D01*
X169685D01*
X190157Y284646D01*
Y72047D02*
Y284646D01*
X171653Y53543D02*
X190157Y72047D01*
X159261Y53543D02*
X171653D01*
X153473Y59331D02*
X159261Y53543D01*
D15*
X9449Y196851D02*
X15157D01*
X16339Y198032D01*
X9449Y200000D02*
X15157D01*
X16339Y198819D01*
Y198032D02*
X32283D01*
X39764Y190551D01*
X16339Y198819D02*
X32610D01*
X40090Y191339D01*
X69685D01*
X39764Y190551D02*
X70011D01*
X69685Y191339D02*
X88189Y209842D01*
Y215484D01*
X90816Y218110D01*
X108268D01*
X91142Y217323D02*
X108594D01*
X108268Y218110D02*
X109055Y218898D01*
Y220472D01*
X108594Y217323D02*
X109843Y218571D01*
Y220472D01*
X107047Y222480D02*
X109055Y220472D01*
X104488Y222480D02*
X107047D01*
X111850D02*
X114488D01*
X9449Y187401D02*
X15157D01*
X16339Y188583D01*
X9449Y190551D02*
X15157D01*
X16339Y189370D01*
Y188583D02*
X29201D01*
X32745Y185039D01*
X16339Y189370D02*
X29528D01*
X33071Y185827D01*
X75197D01*
X32745Y185039D02*
X75523D01*
X87728Y197244D01*
X75197Y185827D02*
X87402Y198031D01*
X108268D01*
X109055Y198819D01*
X87728Y197244D02*
X108594D01*
X109055Y198819D02*
Y201181D01*
X108594Y197244D02*
X109843Y198493D01*
Y201181D01*
X107756Y202480D02*
X109055Y201181D01*
X104488Y202480D02*
X107756D01*
X109843Y201181D02*
X111142Y202480D01*
X114488D01*
X9449Y177953D02*
X15157D01*
X16339Y179134D01*
X9449Y181102D02*
X15157D01*
X16339Y179921D01*
Y179134D02*
X88977D01*
X90945Y177165D01*
X16339Y179921D02*
X89303D01*
X91271Y177953D01*
X107874D01*
X90945Y177165D02*
X108200D01*
X107874Y177953D02*
X109055Y179134D01*
Y181496D01*
X108200Y177165D02*
X109843Y178808D01*
Y181496D01*
X108071Y182480D02*
X109055Y181496D01*
X104488Y182480D02*
X108071D01*
X109843Y181496D02*
X110827Y182480D01*
X114488D01*
X9449Y168504D02*
X15157D01*
X16339Y169685D01*
X9449Y171653D02*
X15157D01*
X16339Y170472D01*
Y169685D02*
X74803D01*
X16339Y170472D02*
X75129D01*
X87728Y157874D01*
X74803Y169685D02*
X87402Y157087D01*
X108200D01*
X87728Y157874D02*
X107874D01*
X109055Y159055D01*
Y161417D01*
X108200Y157087D02*
X109843Y158729D01*
Y161417D01*
X107992Y162480D02*
X109055Y161417D01*
X104488Y162480D02*
X107992D01*
X109843Y161417D02*
X110906Y162480D01*
X114488D01*
X9449Y159055D02*
X15157D01*
X16339Y160236D01*
X9449Y162205D02*
X15157D01*
X16339Y161024D01*
Y160236D02*
X68110D01*
X16339Y161024D02*
X68436D01*
X91665Y137795D01*
X68110Y160236D02*
X91339Y137008D01*
X108200D01*
X91665Y137795D02*
X107874D01*
X109055Y138976D01*
Y141339D01*
X108200Y137008D02*
X109843Y138650D01*
Y141339D01*
X107913Y142480D02*
X109055Y141339D01*
X104488Y142480D02*
X107913D01*
X109843Y141339D02*
X110984Y142480D01*
X114488D01*
X109843Y220472D02*
X111850Y222480D01*
X109843Y220472D02*
Y224410D01*
X109055Y220472D02*
Y224736D01*
X109843Y224410D02*
X135433Y250000D01*
X157413D01*
X109055Y224736D02*
X135107Y250787D01*
X157087D01*
X157413Y250000D02*
X160169Y252756D01*
X162075D01*
X164653Y250177D01*
X157087Y250787D02*
X159055Y252756D01*
Y253543D01*
X156968Y255630D02*
X159055Y253543D01*
X153473Y255630D02*
X156968D01*
X109843Y201181D02*
Y205118D01*
X109055Y201181D02*
Y205444D01*
X109843Y205118D02*
X111417Y206693D01*
X109055Y205444D02*
X111091Y207480D01*
X138976D01*
X111417Y206693D02*
X139303D01*
X149933Y217323D01*
X138976Y207480D02*
X149606Y218110D01*
X157087D01*
X149933Y217323D02*
X157413D01*
X153473Y222913D02*
X155827D01*
X157087Y218110D02*
X158268Y219291D01*
Y220472D01*
X155827Y222913D02*
X158268Y220472D01*
X157413Y217323D02*
X158988Y218898D01*
X163216D01*
X164653Y217460D01*
X109843Y181496D02*
Y184646D01*
X111417Y186221D01*
X109055Y181496D02*
Y184972D01*
X111417Y186221D02*
X146850D01*
X148656Y184415D01*
X109055Y184972D02*
X111091Y187008D01*
X147177D01*
X148982Y185203D01*
X156462D01*
X148656Y184415D02*
X156789D01*
X158431Y186057D01*
X163340D01*
X164653Y184744D01*
X153473Y190197D02*
X154291D01*
X157480Y187008D01*
Y186221D02*
Y187008D01*
X156462Y185203D02*
X157480Y186221D01*
X109843Y161417D02*
Y165354D01*
X111024Y166535D01*
X109055Y161417D02*
Y165681D01*
X111024Y166535D02*
X141732D01*
X109055Y165681D02*
X110697Y167323D01*
X142059D01*
X141732Y166535D02*
X147244Y161024D01*
Y155579D02*
Y161024D01*
X142059Y167323D02*
X148031Y161350D01*
Y155905D02*
Y161350D01*
Y155905D02*
X151181Y152756D01*
X157087D01*
X147244Y155579D02*
X150855Y151969D01*
X157413D01*
X158431Y152987D01*
X163694D01*
X164653Y152027D01*
X157087Y152756D02*
X157874Y153543D01*
X153473Y157480D02*
X155118D01*
X157874Y154724D01*
Y153543D02*
Y154724D01*
X109843Y141339D02*
Y144882D01*
X109055Y141339D02*
Y145208D01*
X109843Y144882D02*
X111811Y146850D01*
X109055Y145208D02*
X111485Y147638D01*
X129854D01*
X111811Y146850D02*
X129527D01*
X146850Y129527D01*
Y122509D02*
Y129527D01*
X129854Y147638D02*
X147638Y129854D01*
Y122835D02*
Y129854D01*
X146850Y122509D02*
X150067Y119291D01*
X147638Y122835D02*
X150394Y120079D01*
X150067Y119291D02*
X157019D01*
X150394Y120079D02*
X156693D01*
X157480Y120866D01*
X157019Y119291D02*
X158988Y121260D01*
X162705D01*
X164653Y119311D01*
X153473Y124764D02*
X154763D01*
X157480Y122047D01*
Y120866D02*
Y122047D01*
X88976Y215158D02*
X91142Y217323D01*
X70011Y190551D02*
X88976Y209516D01*
Y215158D01*
X161024Y204724D02*
X162822D01*
X164653Y206555D01*
X153473Y233819D02*
X155118D01*
X157126Y235827D01*
X159449D01*
X160006Y236384D02*
X161417Y237795D01*
X163176D01*
X164653Y239272D01*
X160006Y236384D02*
X160630Y235759D01*
X159449Y235827D02*
X159843Y235433D01*
Y232677D02*
Y235433D01*
X160630Y232351D02*
Y235759D01*
X156625Y228346D02*
X160630Y232351D01*
X156299Y229134D02*
X159843Y232677D01*
X149933Y228346D02*
X156625D01*
X149606Y229134D02*
X156299D01*
X137795Y217323D02*
X149606Y229134D01*
X138121Y216535D02*
X149933Y228346D01*
X112598Y216535D02*
X138121D01*
X112272Y217323D02*
X137795D01*
X109055Y214106D02*
X112272Y217323D01*
X109843Y213779D02*
X112598Y216535D01*
X109055Y211811D02*
Y214106D01*
X109843Y211811D02*
Y213779D01*
X110512Y212480D02*
X114488D01*
X109843Y211811D02*
X110512Y212480D01*
X104488D02*
X108386D01*
X109055Y211811D01*
X109843Y208729D02*
Y211811D01*
X108200Y207087D02*
X109843Y208729D01*
X109055Y209055D02*
Y211811D01*
X107874Y207874D02*
X109055Y209055D01*
X92126Y207087D02*
X108200D01*
X91800Y207874D02*
X107874D01*
X159612Y203313D02*
X161024Y204724D01*
X153473Y201102D02*
X155126Y202756D01*
X159055D01*
X159612Y203313D02*
X160236Y202688D01*
X159055Y202756D02*
X159449Y202362D01*
Y199606D02*
Y202362D01*
X160236Y199280D02*
Y202688D01*
X157413Y196457D02*
X160236Y199280D01*
X157087Y197244D02*
X159449Y199606D01*
X112205Y196457D02*
X157413D01*
X111879Y197244D02*
X157087D01*
X109055Y194421D02*
X111879Y197244D01*
X109843Y194095D02*
X112205Y196457D01*
X109055Y190945D02*
Y194421D01*
X109843Y190945D02*
Y194095D01*
X111378Y192480D02*
X114488D01*
X109843Y190945D02*
X111378Y192480D01*
X104488D02*
X107520D01*
X109055Y190945D01*
X109843Y189044D02*
Y190945D01*
X109055Y189370D02*
Y190945D01*
X107807Y187008D02*
X109843Y189044D01*
X107480Y187795D02*
X109055Y189370D01*
X83071Y187795D02*
X107480D01*
X83397Y187008D02*
X107807D01*
X162027Y173838D02*
X164653D01*
X160006Y171817D02*
X162027Y173838D01*
X160006Y170635D02*
Y171817D01*
X153473Y168386D02*
X155165Y170079D01*
X159449D01*
X160006Y170635D02*
X160630Y170011D01*
Y166997D02*
Y170011D01*
X156625Y162992D02*
X160630Y166997D01*
X159449Y170079D02*
X159843Y169685D01*
Y167323D02*
Y169685D01*
X149213Y162992D02*
X156625D01*
X156299Y163779D02*
X159843Y167323D01*
X149539Y163779D02*
X156299D01*
X135827Y176378D02*
X149213Y162992D01*
X136153Y177165D02*
X149539Y163779D01*
X111417Y176378D02*
X135827D01*
X111091Y177165D02*
X136153D01*
X109055Y175129D02*
X111091Y177165D01*
X109055Y171260D02*
Y175129D01*
X109843Y174803D02*
X111417Y176378D01*
X109843Y171260D02*
Y174803D01*
X111063Y172480D02*
X114488D01*
X109843Y171260D02*
X111063Y172480D01*
X104488D02*
X107835D01*
X109055Y171260D01*
X109843Y168965D02*
Y171260D01*
X108200Y167323D02*
X109843Y168965D01*
X109055Y169291D02*
Y171260D01*
X107874Y168110D02*
X109055Y169291D01*
X161988Y141122D02*
X164653D01*
X160006Y139139D02*
X161988Y141122D01*
X160006Y137958D02*
Y139139D01*
X153473Y135669D02*
X155205Y137402D01*
X159449D01*
X160006Y137958D02*
X160630Y137334D01*
Y134319D02*
Y137334D01*
X156232Y129921D02*
X160630Y134319D01*
X159449Y137402D02*
X159843Y137008D01*
Y134646D02*
Y137008D01*
X150461Y129921D02*
X156232D01*
X155905Y130709D02*
X159843Y134646D01*
X150787Y130709D02*
X155905D01*
X147244Y133138D02*
X150461Y129921D01*
X147244Y133138D02*
Y145669D01*
X148031Y133465D02*
X150787Y130709D01*
X148031Y133465D02*
Y145995D01*
X136940Y157087D02*
X148031Y145995D01*
X136614Y156299D02*
X147244Y145669D01*
X111811Y156299D02*
X136614D01*
X111485Y157087D02*
X136940D01*
X109055Y154657D02*
X111485Y157087D01*
X109055Y151181D02*
Y154657D01*
X109843Y154331D02*
X111811Y156299D01*
X109843Y151181D02*
Y154331D01*
X111142Y152480D02*
X114488D01*
X109843Y151181D02*
X111142Y152480D01*
X104488D02*
X107756D01*
X109055Y151181D01*
X109843Y148886D02*
Y151181D01*
X108200Y147244D02*
X109843Y148886D01*
X109055Y149213D02*
Y151181D01*
X107874Y148031D02*
X109055Y149213D01*
X91406Y147244D02*
X108200D01*
X73690Y164961D02*
X91406Y147244D01*
X91732Y148031D02*
X107874D01*
X160006Y104887D02*
Y106069D01*
X161417Y107480D01*
X163728D01*
X164653Y108405D01*
X153473Y102953D02*
X154850Y104331D01*
X159449D01*
X160006Y104887D02*
X161024Y103869D01*
Y102036D02*
Y103869D01*
X159449Y104331D02*
X160236Y103543D01*
X156625Y97638D02*
X161024Y102036D01*
X160236Y102362D02*
Y103543D01*
X156299Y98425D02*
X160236Y102362D01*
X149280Y97638D02*
X156625D01*
X149606Y98425D02*
X156299D01*
X144488Y102430D02*
X149280Y97638D01*
X145276Y102756D02*
X149606Y98425D01*
X145276Y102756D02*
Y125917D01*
X133791Y137402D02*
X145276Y125917D01*
X144488Y102430D02*
Y125591D01*
X133465Y136614D02*
X144488Y125591D01*
X111417Y136614D02*
X133465D01*
X111091Y137402D02*
X133791D01*
X109055Y135365D02*
X111091Y137402D01*
X109843Y135039D02*
X111417Y136614D01*
X109055Y131102D02*
Y135365D01*
X109843Y131102D02*
Y135039D01*
X111221Y132480D02*
X114488D01*
X109843Y131102D02*
X111221Y132480D01*
X104488D02*
X107677D01*
X109055Y131102D01*
X109843Y128414D02*
Y131102D01*
X107807Y126378D02*
X109843Y128414D01*
X109055Y128740D02*
Y131102D01*
X107480Y127165D02*
X109055Y128740D01*
X92194Y126378D02*
X107807D01*
X62272Y156299D02*
X92194Y126378D01*
X92520Y127165D02*
X107480D01*
X24803Y193504D02*
X25394Y194095D01*
X24803Y195473D02*
X25394Y194882D01*
Y194095D02*
X31496D01*
X25394Y194882D02*
X31822D01*
X38121Y188583D01*
X31496Y194095D02*
X37795Y187795D01*
X38121Y188583D02*
X72509D01*
X37795Y187795D02*
X72835D01*
X92126Y207087D01*
X72509Y188583D02*
X91800Y207874D01*
X24803Y183268D02*
X25394Y183858D01*
X27559D01*
X24803Y185236D02*
X25394Y184646D01*
X27559Y183858D02*
X29134Y182283D01*
X25394Y184646D02*
X27885D01*
X29460Y183071D01*
X78347D01*
X29134Y182283D02*
X78673D01*
X83397Y187008D01*
X78347Y183071D02*
X83071Y187795D01*
X88976Y167323D02*
X108200D01*
X89302Y168110D02*
X107874D01*
X24803Y173819D02*
X25394Y174409D01*
X24803Y175787D02*
X25394Y175197D01*
Y174409D02*
X81890D01*
X88976Y167323D01*
X25394Y175197D02*
X82216D01*
X89302Y168110D01*
X24803Y164370D02*
X25394Y164961D01*
X24803Y166339D02*
X25394Y165748D01*
Y164961D02*
X73690D01*
X25394Y165748D02*
X74016D01*
X91732Y148031D01*
X30315Y155709D02*
X30906Y156299D01*
X30315Y157677D02*
X30906Y157087D01*
X62598D01*
X30906Y156299D02*
X62272D01*
X62598Y157087D02*
X92520Y127165D01*
D16*
X9449Y137008D02*
X65748D01*
X9449Y130709D02*
X62205D01*
X9449Y127559D02*
X61024D01*
X94488Y41980D02*
Y44882D01*
X9449Y121260D02*
X62598D01*
X9449Y118110D02*
X61811D01*
X9449Y111811D02*
X64173D01*
X9449Y108661D02*
X62992D01*
X86221Y30248D02*
Y43307D01*
Y30248D02*
X94488Y21980D01*
X83465Y24016D02*
Y41732D01*
X109358Y46850D02*
X114488Y51980D01*
X65748Y137008D02*
X88189Y114567D01*
X94488Y81980D02*
Y84252D01*
Y71980D02*
Y74803D01*
X62992Y108661D02*
X71653Y100000D01*
X9449Y102362D02*
X64961D01*
X68898Y98425D01*
Y80709D02*
Y98425D01*
X9449Y99213D02*
X62205D01*
X65748Y95669D01*
X9449Y92914D02*
X58661D01*
X88189Y109492D02*
Y114567D01*
Y109492D02*
X94488Y103193D01*
Y101980D02*
Y103193D01*
X62205Y130709D02*
X88583Y104331D01*
Y99213D02*
Y104331D01*
Y99213D02*
X94488Y93307D01*
Y91980D02*
Y93307D01*
X85827Y92913D02*
X94488Y84252D01*
X85827Y92913D02*
Y102756D01*
X61024Y127559D02*
X85827Y102756D01*
X82284Y87008D02*
X94488Y74803D01*
X82284Y87008D02*
Y101575D01*
X62598Y121260D02*
X82284Y101575D01*
X61811Y118110D02*
X78740Y101181D01*
X94488Y61980D02*
Y65767D01*
X9449Y140157D02*
X66311D01*
X94488Y111980D01*
X64173Y111811D02*
X75197Y100787D01*
X94488Y51980D02*
Y54331D01*
X78740Y81515D02*
X94488Y65767D01*
X71653Y81496D02*
Y100000D01*
X75197Y81102D02*
Y100787D01*
X89370Y59449D02*
X94488Y54331D01*
X89370Y59449D02*
Y66929D01*
X75197Y81102D02*
X89370Y66929D01*
X86221Y53150D02*
X94488Y44882D01*
X86221Y53150D02*
Y66929D01*
X71653Y81496D02*
X86221Y66929D01*
X78740Y81515D02*
Y101181D01*
X83071Y51181D02*
X88976Y45276D01*
X83071Y51181D02*
Y66535D01*
X68898Y80709D02*
X83071Y66535D01*
X88976Y39764D02*
Y45276D01*
Y39764D02*
X94488Y34252D01*
Y31980D02*
Y34252D01*
X79921Y49606D02*
X86221Y43307D01*
X76772Y48425D02*
X83465Y41732D01*
X109358Y18110D02*
Y46850D01*
X92126Y15354D02*
X106602D01*
X109358Y18110D01*
X65748Y79921D02*
Y95669D01*
Y79921D02*
X79921Y65748D01*
Y49606D02*
Y65748D01*
X58661Y92914D02*
X63386Y88189D01*
Y79134D02*
Y88189D01*
Y79134D02*
X76772Y65748D01*
Y48425D02*
Y65748D01*
X61024Y78347D02*
Y84646D01*
Y78347D02*
X73228Y66142D01*
Y47244D02*
Y66142D01*
Y47244D02*
X80709Y39764D01*
Y22835D02*
Y39764D01*
Y22835D02*
X90945Y12598D01*
X113779D01*
X120079Y18898D01*
Y26390D01*
X114488Y31980D02*
X120079Y26390D01*
X83465Y24016D02*
X92126Y15354D01*
X55906Y89764D02*
X61024Y84646D01*
X9449Y89764D02*
X55906D01*
X54336Y82390D02*
X54831D01*
X57480Y85039D01*
X48525Y82390D02*
X51735Y79181D01*
X57515D01*
X70883Y65813D01*
Y45957D02*
Y65813D01*
Y45957D02*
X78389Y38451D01*
Y21485D02*
Y38451D01*
Y21485D02*
X89690Y10183D01*
X114871D01*
X121260Y16572D01*
Y83516D01*
X124262Y86519D01*
X164578D01*
X164653Y86594D01*
D17*
X114488Y21980D02*
D03*
X104488D02*
D03*
X94488D02*
D03*
X114488Y31980D02*
D03*
X104488D02*
D03*
X94488D02*
D03*
X114488Y41980D02*
D03*
X104488D02*
D03*
X94488D02*
D03*
X114488Y51980D02*
D03*
X104488D02*
D03*
X94488D02*
D03*
X114488Y61980D02*
D03*
X104488D02*
D03*
X94488D02*
D03*
X114488Y71980D02*
D03*
X104488D02*
D03*
X94488D02*
D03*
X114488Y81980D02*
D03*
X104488D02*
D03*
X94488D02*
D03*
X114488Y91980D02*
D03*
X104488D02*
D03*
X94488D02*
D03*
X114488Y101980D02*
D03*
X104488D02*
D03*
X94488D02*
D03*
X114488Y111980D02*
D03*
X104488D02*
D03*
X114488Y132480D02*
D03*
X104488D02*
D03*
X94488D02*
D03*
X114488Y142480D02*
D03*
X104488D02*
D03*
X94488D02*
D03*
X114488Y152480D02*
D03*
X104488D02*
D03*
X94488D02*
D03*
X114488Y162480D02*
D03*
X104488D02*
D03*
X94488D02*
D03*
X114488Y172480D02*
D03*
X104488D02*
D03*
X94488D02*
D03*
X114488Y182480D02*
D03*
X104488D02*
D03*
X94488D02*
D03*
X114488Y192480D02*
D03*
X104488D02*
D03*
X94488D02*
D03*
X114488Y202480D02*
D03*
X104488D02*
D03*
X94488D02*
D03*
X114488Y212480D02*
D03*
X104488D02*
D03*
X94488D02*
D03*
X114488Y222480D02*
D03*
X104488D02*
D03*
Y292480D02*
D03*
X94488Y282480D02*
D03*
X104488D02*
D03*
X94488Y272480D02*
D03*
X104488D02*
D03*
X94488Y262480D02*
D03*
X104488D02*
D03*
X94488Y252480D02*
D03*
X104488D02*
D03*
X94488Y242480D02*
D03*
X104488D02*
D03*
D18*
X94488Y111980D02*
D03*
Y222480D02*
D03*
Y292480D02*
D03*
D19*
X153473Y255630D02*
D03*
D20*
Y244724D02*
D03*
Y233819D02*
D03*
Y222913D02*
D03*
Y212008D02*
D03*
Y201102D02*
D03*
Y190197D02*
D03*
Y179291D02*
D03*
Y168386D02*
D03*
Y157480D02*
D03*
Y146575D02*
D03*
Y135669D02*
D03*
Y124764D02*
D03*
Y113858D02*
D03*
Y102953D02*
D03*
Y92047D02*
D03*
Y81142D02*
D03*
Y70236D02*
D03*
Y59331D02*
D03*
X164653Y250177D02*
D03*
Y239272D02*
D03*
Y228366D02*
D03*
Y217460D02*
D03*
Y206555D02*
D03*
Y195649D02*
D03*
Y184744D02*
D03*
Y173838D02*
D03*
Y162933D02*
D03*
Y152027D02*
D03*
Y141122D02*
D03*
Y130216D02*
D03*
Y119311D02*
D03*
Y108405D02*
D03*
Y97500D02*
D03*
Y86594D02*
D03*
Y75689D02*
D03*
Y64783D02*
D03*
D21*
X159063Y32480D02*
D03*
Y282480D02*
D03*
D22*
X39370Y225197D02*
D03*
Y215748D02*
D03*
X39764Y200787D02*
D03*
D23*
X24803Y193504D02*
D03*
Y195473D02*
D03*
Y183268D02*
D03*
Y185236D02*
D03*
Y173819D02*
D03*
Y175787D02*
D03*
Y164370D02*
D03*
Y166339D02*
D03*
X30315Y155709D02*
D03*
Y157677D02*
D03*
X57480Y85039D02*
D03*
M02*
